ply
format ascii 1.0
element vertex 6
property float x
property float y
property float z
element face 2
property list uchar int vertex_indices
end_header
7.1946076921438502 1.8425532015276052 2.7729441441638567
7.1946076921438502 3.2425532015276053 1.7729441441638567
7.1946076921438502 1.8425532015276052 1.7729441441638567
7.1946076921438502 3.2425532015276053 1.7729441441638567
7.1946076921438502 1.8425532015276052 2.7729441441638567
7.1946076921438502 3.2425532015276053 2.7729441441638567
3 0 1 2
3 3 4 5
