ply
format ascii 1.0
element vertex 48
property float x
property float y
property float z
element face 16
property list uchar int vertex_indices
end_header
7.1946076921438502 0 3.4968371448674715
0 0 3.4968371448674715
0 4.6228240027774632 3.4968371448674715
0 4.6228240027774632 3.4968371448674715
7.1946076921438502 4.6228240027774632 3.4968371448674715
7.1946076921438502 0 3.4968371448674715
0 0 0
0 4.6228240027774632 3.4968371448674715
0 0 3.4968371448674715
0 4.6228240027774632 3.4968371448674715
0 0 0
0 4.6228240027774632 0
0 0 3.4968371448674715
7.1946076921438502 0 0
0 0 0
7.1946076921438502 0 0
0 0 3.4968371448674715
7.1946076921438502 0 3.4968371448674715
0 4.6228240027774632 0
7.1946076921438502 4.6228240027774632 3.4968371448674715
0 4.6228240027774632 3.4968371448674715
7.1946076921438502 4.6228240027774632 3.4968371448674715
0 4.6228240027774632 0
7.1946076921438502 4.6228240027774632 0
7.1946076921438502 0 3.4968371448674715
7.1946076921438502 1.8425532015276052 0
7.1946076921438502 0 0
7.1946076921438502 1.8425532015276052 0
7.1946076921438502 0 3.4968371448674715
7.1946076921438502 1.8425532015276052 3.4968371448674715
7.1946076921438502 4.6228240027774632 0
7.1946076921438502 3.2425532015276053 0
7.1946076921438502 3.2425532015276053 3.4968371448674715
7.1946076921438502 3.2425532015276053 3.4968371448674715
7.1946076921438502 4.6228240027774632 3.4968371448674715
7.1946076921438502 4.6228240027774632 0
7.1946076921438502 1.8425532015276052 1.7729441441638567
7.1946076921438502 3.2425532015276053 0
7.1946076921438502 1.8425532015276052 0
7.1946076921438502 3.2425532015276053 0
7.1946076921438502 1.8425532015276052 1.7729441441638567
7.1946076921438502 3.2425532015276053 1.7729441441638567
7.1946076921438502 1.8425532015276052 3.4968371448674715
7.1946076921438502 3.2425532015276053 2.7729441441638567
7.1946076921438502 1.8425532015276052 2.7729441441638567
7.1946076921438502 3.2425532015276053 2.7729441441638567
7.1946076921438502 1.8425532015276052 3.4968371448674715
7.1946076921438502 3.2425532015276053 3.4968371448674715
3 0 1 2
3 3 4 5
3 6 7 8
3 9 10 11
3 12 13 14
3 15 16 17
3 18 19 20
3 21 22 23
3 24 25 26
3 27 28 29
3 30 31 32
3 33 34 35
3 36 37 38
3 39 40 41
3 42 43 44
3 45 46 47
