ply
format ascii 1.0
element vertex 6
property float x
property float y
property float z
element face 2
property list uchar int vertex_indices
end_header
5.6416540361072549 1.7619378512382176 2.4989801843078014
5.6416540361072549 3.1619378512382177 1.4989801843078014
5.6416540361072549 1.7619378512382176 1.4989801843078014
5.6416540361072549 3.1619378512382177 1.4989801843078014
5.6416540361072549 1.7619378512382176 2.4989801843078014
5.6416540361072549 3.1619378512382177 2.4989801843078014
3 0 1 2
3 3 4 5
