ply
format ascii 1.0
element vertex 6
property float x
property float y
property float z
element face 2
property list uchar int vertex_indices
end_header
6.6317144414522931 1.8696134543810887 2.8522994731253011
6.6317144414522931 3.2696134543810889 1.8522994731253011
6.6317144414522931 1.8696134543810887 1.8522994731253011
6.6317144414522931 3.2696134543810889 1.8522994731253011
6.6317144414522931 1.8696134543810887 2.8522994731253011
6.6317144414522931 3.2696134543810889 2.8522994731253011
3 0 1 2
3 3 4 5
