ply
format ascii 1.0
element vertex 48
property float x
property float y
property float z
element face 16
property list uchar int vertex_indices
end_header
6.6317144414522931 0 3.6189222663466172
0 0 3.6189222663466172
0 4.6720244625110698 3.6189222663466172
0 4.6720244625110698 3.6189222663466172
6.6317144414522931 4.6720244625110698 3.6189222663466172
6.6317144414522931 0 3.6189222663466172
0 4.6720244625110698 3.6189222663466172
0 0 3.6189222663466172
0 0 0
0 0 0
0 4.6720244625110698 0
0 4.6720244625110698 3.6189222663466172
0 0 3.6189222663466172
6.6317144414522931 0 0
0 0 0
6.6317144414522931 0 0
0 0 3.6189222663466172
6.6317144414522931 0 3.6189222663466172
0 4.6720244625110698 0
6.6317144414522931 4.6720244625110698 3.6189222663466172
0 4.6720244625110698 3.6189222663466172
6.6317144414522931 4.6720244625110698 3.6189222663466172
0 4.6720244625110698 0
6.6317144414522931 4.6720244625110698 0
6.6317144414522931 1.8696134543810887 0
6.6317144414522931 0 0
6.6317144414522931 0 3.6189222663466172
6.6317144414522931 0 3.6189222663466172
6.6317144414522931 1.8696134543810887 3.6189222663466172
6.6317144414522931 1.8696134543810887 0
6.6317144414522931 3.2696134543810889 3.6189222663466172
6.6317144414522931 4.6720244625110698 0
6.6317144414522931 3.2696134543810889 0
6.6317144414522931 4.6720244625110698 0
6.6317144414522931 3.2696134543810889 3.6189222663466172
6.6317144414522931 4.6720244625110698 3.6189222663466172
6.6317144414522931 1.8696134543810887 1.8522994731253011
6.6317144414522931 3.2696134543810889 0
6.6317144414522931 1.8696134543810887 0
6.6317144414522931 3.2696134543810889 0
6.6317144414522931 1.8696134543810887 1.8522994731253011
6.6317144414522931 3.2696134543810889 1.8522994731253011
6.6317144414522931 1.8696134543810887 3.6189222663466172
6.6317144414522931 3.2696134543810889 2.8522994731253011
6.6317144414522931 1.8696134543810887 2.8522994731253011
6.6317144414522931 3.2696134543810889 2.8522994731253011
6.6317144414522931 1.8696134543810887 3.6189222663466172
6.6317144414522931 3.2696134543810889 3.6189222663466172
3 0 1 2
3 3 4 5
3 6 7 8
3 9 10 11
3 12 13 14
3 15 16 17
3 18 19 20
3 21 22 23
3 24 25 26
3 27 28 29
3 30 31 32
3 33 34 35
3 36 37 38
3 39 40 41
3 42 43 44
3 45 46 47
