ply
format ascii 1.0
element vertex 12
property float x
property float y
property float z
element face 4
property list uchar int vertex_indices
end_header
11.550000000000001 0 2.1000000000000001
12.449999999999999 0 0
11.550000000000001 0 0
12.449999999999999 0 0
11.550000000000001 0 2.1000000000000001
12.449999999999999 0 2.1000000000000001
27.550000000000001 0 2.1000000000000001
28.449999999999999 0 0
27.550000000000001 0 0
28.449999999999999 0 0
27.550000000000001 0 2.1000000000000001
28.449999999999999 0 2.1000000000000001
3 0 1 2
3 3 4 5
3 6 7 8
3 9 10 11
