ply
format ascii 1.0
element vertex 6
property float x
property float y
property float z
element face 2
property list uchar int vertex_indices
end_header
6.0835856152944938 1.7331275841651059 2.5750300766725536
6.0835856152944938 3.1331275841651056 1.5750300766725536
6.0835856152944938 1.7331275841651059 1.5750300766725536
6.0835856152944938 3.1331275841651056 1.5750300766725536
6.0835856152944938 1.7331275841651059 2.5750300766725536
6.0835856152944938 3.1331275841651056 2.5750300766725536
3 0 1 2
3 3 4 5
