ply
format ascii 1.0
element vertex 48
property float x
property float y
property float z
element face 16
property list uchar int vertex_indices
end_header
0 4.4238683348456469 3.1923539641116205
6.0835856152944938 0 3.1923539641116205
0 0 3.1923539641116205
6.0835856152944938 0 3.1923539641116205
0 4.4238683348456469 3.1923539641116205
6.0835856152944938 4.4238683348456469 3.1923539641116205
0 0 0
0 4.4238683348456469 3.1923539641116205
0 0 3.1923539641116205
0 4.4238683348456469 3.1923539641116205
0 0 0
0 4.4238683348456469 0
6.0835856152944938 0 0
0 0 0
0 0 3.1923539641116205
0 0 3.1923539641116205
6.0835856152944938 0 3.1923539641116205
6.0835856152944938 0 0
6.0835856152944938 4.4238683348456469 3.1923539641116205
0 4.4238683348456469 3.1923539641116205
0 4.4238683348456469 0
0 4.4238683348456469 0
6.0835856152944938 4.4238683348456469 0
6.0835856152944938 4.4238683348456469 3.1923539641116205
6.0835856152944938 1.7331275841651059 0
6.0835856152944938 0 0
6.0835856152944938 0 3.1923539641116205
6.0835856152944938 0 3.1923539641116205
6.0835856152944938 1.7331275841651059 3.1923539641116205
6.0835856152944938 1.7331275841651059 0
6.0835856152944938 3.1331275841651056 3.1923539641116205
6.0835856152944938 4.4238683348456469 0
6.0835856152944938 3.1331275841651056 0
6.0835856152944938 4.4238683348456469 0
6.0835856152944938 3.1331275841651056 3.1923539641116205
6.0835856152944938 4.4238683348456469 3.1923539641116205
6.0835856152944938 1.7331275841651059 1.5750300766725536
6.0835856152944938 3.1331275841651056 0
6.0835856152944938 1.7331275841651059 0
6.0835856152944938 3.1331275841651056 0
6.0835856152944938 1.7331275841651059 1.5750300766725536
6.0835856152944938 3.1331275841651056 1.5750300766725536
6.0835856152944938 1.7331275841651059 3.1923539641116205
6.0835856152944938 3.1331275841651056 2.5750300766725536
6.0835856152944938 1.7331275841651059 2.5750300766725536
6.0835856152944938 3.1331275841651056 2.5750300766725536
6.0835856152944938 1.7331275841651059 3.1923539641116205
6.0835856152944938 3.1331275841651056 3.1923539641116205
3 0 1 2
3 3 4 5
3 6 7 8
3 9 10 11
3 12 13 14
3 15 16 17
3 18 19 20
3 21 22 23
3 24 25 26
3 27 28 29
3 30 31 32
3 33 34 35
3 36 37 38
3 39 40 41
3 42 43 44
3 45 46 47
