ply
format ascii 1.0
element vertex 24
property float x
property float y
property float z
element face 8
property list uchar int vertex_indices
end_header
3 4.5499999999999998 1.8
6 4.5499999999999998 0
3 4.5499999999999998 0
6 4.5499999999999998 0
3 4.5499999999999998 1.8
6 4.5499999999999998 1.8
8.25 6.2999999999999998 0
8.25 9.3000000000000007 1.8
8.25 6.2999999999999998 1.8
8.25 9.3000000000000007 1.8
8.25 6.2999999999999998 0
8.25 9.3000000000000007 0
9 3.8999999999999999 1.8
12 3.8999999999999999 0
9 3.8999999999999999 0
12 3.8999999999999999 0
9 3.8999999999999999 1.8
12 3.8999999999999999 1.8
6 7.5999999999999996 0
6 10.6 1.8
6 7.5999999999999996 1.8
6 10.6 1.8
6 7.5999999999999996 0
6 10.6 0
3 0 1 2
3 3 4 5
3 6 7 8
3 9 10 11
3 12 13 14
3 15 16 17
3 18 19 20
3 21 22 23
