ply
format ascii 1.0
element vertex 1200
property float x
property float y
property float z
element face 400
property list uchar int vertex_indices
end_header
6.6665694622006679 5.7573621389214127 0.46000000000000002
6.6665694622006679 5.7573621389214127 0.39999999999999991
6.7081537538361191 5.6979736157104606 0.39999999999999991
6.4500443574781485 6.0665920356405065 0.48999999999999999
6.2951787196633662 6.2877630875985346 0.39999999999999991
6.6235512294743399 5.818798542243087 0.39999999999999991
6.4500443574781485 6.0665920356405065 0.48999999999999999
6.4500443574781485 6.0665920356405065 0.54000000000000004
6.2951787196633662 6.2877630875985346 0.54000000000000004
6.6235512294743399 5.818798542243087 0.46000000000000002
6.6665694622006679 5.7573621389214127 0.46000000000000002
6.7081537538361191 5.6979736157104606 0.54000000000000004
6.7081537538361191 5.6979736157104606 0.39999999999999991
6.7081537538361191 5.6979736157104606 0.54000000000000004
6.6665694622006679 5.7573621389214127 0.46000000000000002
6.2951787196633662 6.2877630875985346 0.54000000000000004
6.2951787196633662 6.2877630875985346 0.39999999999999991
6.4500443574781485 6.0665920356405065 0.48999999999999999
6.7081537538361191 5.6979736157104606 0.54000000000000004
6.4844589436592113 6.0174429129831672 0.54000000000000004
6.6235512294743399 5.818798542243087 0.46000000000000002
6.4844589436592113 6.0174429129831672 0.48999999999999999
6.4500443574781485 6.0665920356405065 0.48999999999999999
6.6235512294743399 5.818798542243087 0.39999999999999991
6.4844589436592113 6.0174429129831672 0.54000000000000004
6.4844589436592113 6.0174429129831672 0.48999999999999999
6.6235512294743399 5.818798542243087 0.46000000000000002
6.6235512294743399 5.818798542243087 0.39999999999999991
6.6235512294743399 5.818798542243087 0.46000000000000002
6.4844589436592113 6.0174429129831672 0.48999999999999999
7.1890479283369801 6.2147635936194128 0.46000000000000002
7.0499556425218515 6.4134079643594939 0.48999999999999999
7.0499556425218515 6.4134079643594939 0.54000000000000004
7.0155410563407887 6.4625570870168332 0.48999999999999999
6.8606754185260064 6.6837281389748613 0.54000000000000004
7.0155410563407887 6.4625570870168332 0.54000000000000004
7.0155410563407887 6.4625570870168332 0.48999999999999999
7.1890479283369801 6.2147635936194128 0.39999999999999991
6.8606754185260064 6.6837281389748613 0.39999999999999991
7.232066161063309 6.1533271902977384 0.46000000000000002
7.2736504526987593 6.0939386670867872 0.39999999999999991
7.232066161063309 6.1533271902977384 0.39999999999999991
6.8606754185260064 6.6837281389748613 0.39999999999999991
6.8606754185260064 6.6837281389748613 0.54000000000000004
7.0155410563407887 6.4625570870168332 0.48999999999999999
7.232066161063309 6.1533271902977384 0.46000000000000002
7.2736504526987593 6.0939386670867872 0.54000000000000004
7.2736504526987593 6.0939386670867872 0.39999999999999991
7.0499556425218515 6.4134079643594939 0.48999999999999999
7.1890479283369801 6.2147635936194128 0.39999999999999991
7.0155410563407887 6.4625570870168332 0.48999999999999999
7.1890479283369801 6.2147635936194128 0.46000000000000002
7.2736504526987593 6.0939386670867872 0.54000000000000004
7.232066161063309 6.1533271902977384 0.46000000000000002
7.0499556425218515 6.4134079643594939 0.48999999999999999
7.1890479283369801 6.2147635936194128 0.46000000000000002
7.1890479283369801 6.2147635936194128 0.39999999999999991
7.0499556425218515 6.4134079643594939 0.54000000000000004
7.2736504526987593 6.0939386670867872 0.54000000000000004
7.1890479283369801 6.2147635936194128 0.46000000000000002
7.2736504526987593 6.0939386670867872 0.39999999999999991
6.7081537538361191 5.6979736157104606 0.54000000000000004
6.7081537538361191 5.6979736157104606 0.39999999999999991
6.7081537538361191 5.6979736157104606 0.54000000000000004
7.2736504526987593 6.0939386670867872 0.39999999999999991
7.2736504526987593 6.0939386670867872 0.54000000000000004
6.2951787196633662 6.2877630875985346 0.39999999999999991
6.8606754185260064 6.6837281389748613 0.53000000000000003
6.8606754185260064 6.6837281389748613 0.39999999999999991
6.8606754185260064 6.6837281389748613 0.53000000000000003
6.2951787196633662 6.2877630875985346 0.39999999999999991
6.2951787196633662 6.2877630875985346 0.53000000000000003
6.6460779106922878 5.8345718942427398 0.39999999999999991
6.6235512294743399 5.8187985422430861 0.39999999999999991
6.2951787196633662 6.2877630875985346 0.39999999999999991
6.6890961434186167 5.7731354909210664 0.39999999999999991
6.7081537538361191 5.6979736157104606 0.39999999999999991
6.6665694622006688 5.7573621389214118 0.39999999999999991
7.2095394798453611 6.1375538382980848 0.39999999999999991
7.232066161063309 6.1533271902977384 0.39999999999999991
7.2736504526987593 6.0939386670867872 0.39999999999999991
7.1665212471190323 6.1989902416197582 0.39999999999999991
6.8606754185260064 6.6837281389748613 0.39999999999999991
7.1890479283369801 6.2147635936194128 0.39999999999999991
7.1665212471190323 6.1989902416197582 0.39999999999999991
6.6460779106922878 5.8345718942427398 0.39999999999999991
6.2951787196633662 6.2877630875985346 0.39999999999999991
7.2736504526987593 6.0939386670867872 0.39999999999999991
6.7081537538361191 5.6979736157104606 0.39999999999999991
7.2095394798453611 6.1375538382980848 0.39999999999999991
6.2951787196633662 6.2877630875985346 0.39999999999999991
6.8606754185260064 6.6837281389748613 0.39999999999999991
7.1665212471190323 6.1989902416197582 0.39999999999999991
6.6890961434186167 5.7731354909210664 0.39999999999999991
7.2095394798453611 6.1375538382980848 0.39999999999999991
6.7081537538361191 5.6979736157104606 0.39999999999999991
6.6890961434186167 5.7731354909210664 0.39999999999999991
6.6460779106922878 5.8345718942427398 0.39999999999999991
7.1665212471190323 6.1989902416197582 0.39999999999999991
7.1665212471190323 6.1989902416197582 0.39999999999999991
7.2095394798453611 6.1375538382980848 0.39999999999999991
6.6890961434186167 5.7731354909210664 0.39999999999999991
6.5008419845449916 6.0289144417101879 0.54000000000000004
6.4844589436592113 6.0174429129831672 0.54000000000000004
6.7081537538361191 5.6979736157104606 0.54000000000000004
6.9991580154550084 6.4510855582898126 0.54000000000000004
7.0155410563407887 6.4625570870168341 0.54000000000000004
6.8606754185260064 6.6837281389748613 0.54000000000000004
7.0335726016360711 6.4019364356324724 0.54000000000000004
7.2736504526987593 6.0939386670867872 0.54000000000000004
7.0499556425218515 6.4134079643594939 0.54000000000000004
7.0335726016360711 6.4019364356324724 0.54000000000000004
6.5008419845449916 6.0289144417101879 0.54000000000000004
6.7081537538361191 5.6979736157104606 0.54000000000000004
6.4664273983639289 6.078063564367528 0.54000000000000004
6.2951787196633662 6.2877630875985346 0.54000000000000004
6.4500443574781485 6.0665920356405065 0.54000000000000004
6.8606754185260064 6.6837281389748613 0.54000000000000004
6.2951787196633662 6.2877630875985346 0.54000000000000004
6.9991580154550084 6.4510855582898126 0.54000000000000004
6.7081537538361191 5.6979736157104606 0.54000000000000004
7.2736504526987593 6.0939386670867872 0.54000000000000004
7.0335726016360711 6.4019364356324724 0.54000000000000004
6.4664273983639289 6.078063564367528 0.54000000000000004
6.9991580154550084 6.4510855582898126 0.54000000000000004
6.2951787196633662 6.2877630875985346 0.54000000000000004
6.4664273983639289 6.078063564367528 0.54000000000000004
6.5008419845449916 6.0289144417101879 0.54000000000000004
7.0335726016360711 6.4019364356324724 0.54000000000000004
7.0335726016360711 6.4019364356324724 0.54000000000000004
6.9991580154550084 6.4510855582898126 0.54000000000000004
6.4664273983639289 6.078063564367528 0.54000000000000004
6.2177459007559754 6.3983486135775482 0.7400000000000001
6.2177459007559754 6.3983486135775482 1.01
6.2148780185742201 6.4024443737989936 1.01
6.2578962513005481 6.3410079704773192 0.7400000000000001
6.2951787196633662 6.2877630875985346 1.01
6.2578962513005481 6.3410079704773192 1.01
6.2148780185742201 6.4024443737989936 1.01
6.2148780185742201 6.4024443737989936 0.53000000000000014
6.2177459007559754 6.3983486135775482 0.7400000000000001
6.2578962513005481 6.3410079704773192 0.7400000000000001
6.2951787196633662 6.2877630875985346 0.53000000000000014
6.2951787196633662 6.2877630875985346 1.01
6.2578962513005481 6.3410079704773192 0.7400000000000001
6.2177459007559754 6.3983486135775482 0.7400000000000001
6.2148780185742201 6.4024443737989936 0.53000000000000014
6.2148780185742201 6.4024443737989936 0.53000000000000014
6.2951787196633662 6.2877630875985346 0.53000000000000014
6.2578962513005481 6.3410079704773192 0.7400000000000001
6.8233929501631883 6.7369730218536459 0.73999999999999999
6.8233929501631883 6.7369730218536459 1.01
6.8606754185260064 6.6837281389748613 1.01
6.7832425996186148 6.7943136649538749 0.73999999999999999
6.7803747174368594 6.7984094251753202 1.01
6.7832425996186148 6.7943136649538749 1.01
6.8606754185260064 6.6837281389748613 1.01
6.8606754185260064 6.6837281389748613 0.53000000000000003
6.8233929501631883 6.7369730218536459 0.73999999999999999
6.7832425996186148 6.7943136649538749 0.73999999999999999
6.7803747174368594 6.7984094251753202 0.53000000000000003
6.7803747174368594 6.7984094251753202 1.01
6.7803747174368594 6.7984094251753202 0.53000000000000003
6.8233929501631883 6.7369730218536459 0.73999999999999999
6.8606754185260064 6.6837281389748613 0.53000000000000003
6.8233929501631883 6.7369730218536459 0.73999999999999999
6.7803747174368594 6.7984094251753202 0.53000000000000003
6.7832425996186148 6.7943136649538749 0.73999999999999999
6.2951787196633662 6.2877630875985346 1.01
6.8606754185260064 6.6837281389748613 0.54000000000000004
6.8606754185260064 6.6837281389748613 1.01
6.8606754185260064 6.6837281389748613 0.54000000000000004
6.2951787196633662 6.2877630875985346 1.01
6.2951787196633662 6.2877630875985346 0.54000000000000004
6.2148780185742201 6.4024443737989936 0.53000000000000003
6.7803747174368594 6.7984094251753202 1.01
6.7803747174368594 6.7984094251753202 0.53000000000000003
6.7803747174368594 6.7984094251753202 1.01
6.2148780185742201 6.4024443737989936 0.53000000000000003
6.2148780185742201 6.4024443737989936 1.01
6.7803747174368594 6.7984094251753202 0.53000000000000003
6.8606754185260064 6.6837281389748613 0.53000000000000003
6.2951787196633662 6.2877630875985346 0.53000000000000003
6.2951787196633662 6.2877630875985346 0.53000000000000003
6.2148780185742201 6.4024443737989936 0.53000000000000003
6.7803747174368594 6.7984094251753202 0.53000000000000003
6.8233929501631883 6.7369730218536459 1.01
6.2578962513005481 6.3410079704773192 1.01
6.2951787196633662 6.2877630875985346 1.01
6.7832425996186148 6.7943136649538758 1.01
6.2148780185742201 6.4024443737989936 1.01
6.2177459007559746 6.3983486135775491 1.01
6.2951787196633662 6.2877630875985346 1.01
6.8606754185260064 6.6837281389748613 1.01
6.8233929501631883 6.7369730218536459 1.01
6.7832425996186148 6.7943136649538758 1.01
6.7803747174368594 6.7984094251753202 1.01
6.2148780185742201 6.4024443737989936 1.01
6.6458930983096938 5.6910014730398224 0.745
6.2558611215909821 6.2480248631563367 0.65499999999999992
6.6458930983096938 5.6910014730398224 0.65499999999999992
6.2558611215909821 6.2480248631563367 0.65499999999999992
6.6458930983096938 5.6910014730398224 0.745
6.2558611215909821 6.2480248631563367 0.745
6.7196167822957031 5.7426233523114165 0.65499999999999992
6.3295848055769914 6.2996467424279308 0.745
6.7196167822957031 5.7426233523114165 0.745
6.3295848055769914 6.2996467424279308 0.745
6.7196167822957031 5.7426233523114165 0.65499999999999992
6.3295848055769914 6.2996467424279308 0.65499999999999992
6.7196167822957031 5.7426233523114165 0.65499999999999992
6.6458930983096938 5.6910014730398224 0.745
6.6458930983096938 5.6910014730398224 0.65499999999999992
6.6458930983096938 5.6910014730398224 0.745
6.7196167822957031 5.7426233523114165 0.65499999999999992
6.7196167822957031 5.7426233523114165 0.745
6.2558611215909821 6.2480248631563367 0.65499999999999992
6.3295848055769914 6.2996467424279308 0.745
6.3295848055769914 6.2996467424279308 0.65499999999999992
6.3295848055769914 6.2996467424279308 0.745
6.2558611215909821 6.2480248631563367 0.65499999999999992
6.2558611215909821 6.2480248631563367 0.745
6.2558611215909821 6.2480248631563367 0.65499999999999992
6.4172782757065887 6.0436489781864653 0.65499999999999992
6.4516928618876515 5.9944998555291251 0.65499999999999992
6.5008419845449916 6.0289144417101879 0.65499999999999992
6.6458930983096938 5.6910014730398224 0.65499999999999992
6.4516928618876515 5.9944998555291251 0.65499999999999992
6.4516928618876515 5.9944998555291251 0.65499999999999992
6.6458930983096938 5.6910014730398224 0.65499999999999992
6.2558611215909821 6.2480248631563367 0.65499999999999992
6.5008419845449916 6.0289144417101879 0.65499999999999992
6.7196167822957031 5.7426233523114174 0.65499999999999992
6.6458930983096938 5.6910014730398224 0.65499999999999992
6.3295848055769914 6.2996467424279308 0.65499999999999992
6.4172782757065887 6.0436489781864653 0.65499999999999992
6.2558611215909821 6.2480248631563367 0.65499999999999992
6.3295848055769914 6.2996467424279308 0.65499999999999992
6.7196167822957031 5.7426233523114174 0.65499999999999992
6.5008419845449916 6.0289144417101879 0.65499999999999992
6.3295848055769914 6.2996467424279308 0.65499999999999992
6.4664273983639289 6.078063564367528 0.65499999999999992
6.4172782757065887 6.0436489781864653 0.65499999999999992
6.5008419845449916 6.0289144417101879 0.65499999999999992
6.4664273983639289 6.078063564367528 0.65499999999999992
6.3295848055769914 6.2996467424279308 0.65499999999999992
6.6458930983096938 5.6910014730398224 0.745
6.3295848055769914 6.2996467424279308 0.745
6.2558611215909821 6.2480248631563367 0.745
6.3295848055769914 6.2996467424279308 0.745
6.6458930983096938 5.6910014730398224 0.745
6.7196167822957031 5.7426233523114165 0.745
6.4516928618876515 5.9944998555291251 0.48999999999999999
6.4172782757065887 6.0436489781864653 0.65499999999999992
6.4172782757065887 6.0436489781864653 0.48999999999999999
6.4172782757065887 6.0436489781864653 0.65499999999999992
6.4516928618876515 5.9944998555291251 0.48999999999999999
6.4516928618876515 5.9944998555291251 0.65499999999999992
6.4664273983639289 6.078063564367528 0.54000000000000004
6.5008419845449916 6.0289144417101879 0.65499999999999992
6.5008419845449916 6.0289144417101879 0.54000000000000004
6.5008419845449916 6.0289144417101879 0.65499999999999992
6.4664273983639289 6.078063564367528 0.54000000000000004
6.4664273983639289 6.078063564367528 0.65499999999999992
6.4844589436592113 6.0174429129831672 0.54000000000000004
6.4516928618876515 5.9944998555291251 0.48999999999999999
6.4844589436592113 6.0174429129831672 0.48999999999999999
6.4844589436592113 6.0174429129831672 0.54000000000000004
6.5008419845449916 6.0289144417101879 0.65499999999999992
6.4516928618876515 5.9944998555291251 0.65499999999999992
6.5008419845449916 6.0289144417101879 0.65499999999999992
6.4844589436592113 6.0174429129831672 0.54000000000000004
6.5008419845449916 6.0289144417101879 0.54000000000000004
6.4516928618876515 5.9944998555291251 0.65499999999999992
6.4516928618876515 5.9944998555291251 0.48999999999999999
6.4844589436592113 6.0174429129831672 0.54000000000000004
6.4172782757065887 6.0436489781864653 0.48999999999999999
6.4500443574781485 6.0665920356405065 0.54000000000000004
6.4500443574781485 6.0665920356405065 0.48999999999999999
6.4500443574781485 6.0665920356405065 0.54000000000000004
6.4664273983639289 6.078063564367528 0.65499999999999992
6.4664273983639289 6.078063564367528 0.54000000000000004
6.4500443574781485 6.0665920356405065 0.54000000000000004
6.4172782757065887 6.0436489781864653 0.48999999999999999
6.4172782757065887 6.0436489781864653 0.65499999999999992
6.4172782757065887 6.0436489781864653 0.65499999999999992
6.4664273983639289 6.078063564367528 0.65499999999999992
6.4500443574781485 6.0665920356405065 0.54000000000000004
6.4500443574781485 6.0665920356405065 0.48999999999999999
6.4844589436592113 6.0174429129831672 0.48999999999999999
6.4516928618876515 5.9944998555291251 0.48999999999999999
6.4516928618876515 5.9944998555291251 0.48999999999999999
6.4172782757065887 6.0436489781864653 0.48999999999999999
6.4500443574781485 6.0665920356405065 0.48999999999999999
6.6276597400969415 5.7301172581947375 0.46000000000000002
6.5846415073706135 5.7915536615164118 2.2204460492503131e-16
6.6276597400969415 5.7301172581947375 2.2204460492503131e-16
6.5846415073706135 5.7915536615164118 2.2204460492503131e-16
6.6276597400969415 5.7301172581947375 0.46000000000000002
6.5846415073706135 5.7915536615164118 0.46000000000000002
6.6460779106922878 5.8345718942427407 0
6.6890961434186158 5.7731354909210664 0.39999999999999974
6.6890961434186158 5.7731354909210664 0
6.6890961434186158 5.7731354909210664 0.39999999999999974
6.6460779106922878 5.8345718942427407 0
6.6460779106922878 5.8345718942427407 0.39999999999999974
6.6665694622006688 5.7573621389214127 0.39999999999999997
6.6276597400969415 5.7301172581947375 0.46000000000000002
6.6276597400969415 5.7301172581947375 0
6.6276597400969415 5.7301172581947375 0.46000000000000002
6.6665694622006688 5.7573621389214127 0.39999999999999997
6.6665694622006688 5.7573621389214127 0.46000000000000002
6.6665694622006688 5.7573621389214127 0.39999999999999997
6.6890961434186158 5.7731354909210664 0
6.6890961434186158 5.7731354909210664 0.39999999999999997
6.6276597400969415 5.7301172581947375 0
6.6890961434186158 5.7731354909210664 0
6.6665694622006688 5.7573621389214127 0.39999999999999997
6.6235512294743399 5.8187985422430861 0.39999999999999997
6.6460779106922878 5.8345718942427407 0
6.5846415073706135 5.7915536615164118 0
6.6460779106922878 5.8345718942427407 0
6.6235512294743399 5.8187985422430861 0.39999999999999997
6.6460779106922878 5.8345718942427407 0.39999999999999997
6.6235512294743399 5.8187985422430861 0.39999999999999997
6.5846415073706135 5.7915536615164118 0.46000000000000002
6.6235512294743399 5.8187985422430861 0.46000000000000002
6.5846415073706135 5.7915536615164118 0
6.5846415073706135 5.7915536615164118 0.46000000000000002
6.6235512294743399 5.8187985422430861 0.39999999999999997
6.6665694622006688 5.7573621389214127 0.46000000000000002
6.6235512294743399 5.818798542243087 0.46000000000000002
6.5846415073706135 5.7915536615164118 0.46000000000000002
6.5846415073706135 5.7915536615164118 0.46000000000000002
6.6276597400969415 5.7301172581947375 0.46000000000000002
6.6665694622006688 5.7573621389214127 0.46000000000000002
6.2118168237424332 6.3240024903042569 0
6.254835056468762 6.2625660869825825 0
6.254835056468762 6.2625660869825825 0.46000000000000002
6.254835056468762 6.2625660869825825 0.46000000000000002
6.2118168237424332 6.3240024903042569 0.46000000000000002
6.2118168237424332 6.3240024903042569 0
6.3162714597904355 6.3055843197089105 0
6.2732532270641075 6.3670207230305849 0.4599999999999998
6.3162714597904355 6.3055843197089105 0.4599999999999998
6.2732532270641075 6.3670207230305849 0.4599999999999998
6.3162714597904355 6.3055843197089105 0
6.2732532270641075 6.3670207230305849 0
6.3162714597904355 6.3055843197089105 0
6.254835056468762 6.2625660869825825 0.46000000000000002
6.254835056468762 6.2625660869825825 0
6.254835056468762 6.2625660869825825 0.46000000000000002
6.3162714597904355 6.3055843197089105 0
6.3162714597904355 6.3055843197089105 0.46000000000000002
6.2118168237424332 6.3240024903042569 0
6.2732532270641075 6.3670207230305849 0.46000000000000002
6.2732532270641075 6.3670207230305849 0
6.2732532270641075 6.3670207230305849 0.46000000000000002
6.2118168237424332 6.3240024903042569 0
6.2118168237424332 6.3240024903042569 0.46000000000000002
6.254835056468762 6.2625660869825825 0.46000000000000002
6.2732532270641075 6.3670207230305849 0.46000000000000002
6.2118168237424332 6.3240024903042569 0.46000000000000002
6.2732532270641075 6.3670207230305849 0.46000000000000002
6.254835056468762 6.2625660869825825 0.46000000000000002
6.3162714597904355 6.3055843197089105 0.46000000000000002
7.2277728380581134 6.0984380531431697 0.745
6.8377408613394017 6.6554614432596848 0.65499999999999992
7.2277728380581134 6.0984380531431697 0.65499999999999992
6.8377408613394017 6.6554614432596848 0.65499999999999992
7.2277728380581134 6.0984380531431697 0.745
6.8377408613394017 6.6554614432596848 0.745
6.9114645453254111 6.7070833225312789 0.745
7.3014965220441219 6.1500599324147638 0.745
7.3014965220441219 6.1500599324147638 0.65499999999999992
7.3014965220441219 6.1500599324147638 0.65499999999999992
6.9114645453254111 6.7070833225312789 0.65499999999999992
6.9114645453254111 6.7070833225312789 0.745
7.3014965220441219 6.1500599324147638 0.65499999999999992
7.2277728380581134 6.0984380531431697 0.745
7.2277728380581134 6.0984380531431697 0.65499999999999992
7.2277728380581134 6.0984380531431697 0.745
7.3014965220441219 6.1500599324147638 0.65499999999999992
7.3014965220441219 6.1500599324147638 0.745
6.8377408613394017 6.6554614432596848 0.65499999999999992
6.9114645453254111 6.7070833225312789 0.745
6.9114645453254111 6.7070833225312789 0.65499999999999992
6.9114645453254111 6.7070833225312789 0.745
6.8377408613394017 6.6554614432596848 0.65499999999999992
6.8377408613394017 6.6554614432596848 0.745
6.8377408613394017 6.6554614432596848 0.65499999999999992
6.9991580154550084 6.4510855582898134 0.65499999999999992
7.0335726016360711 6.4019364356324724 0.65499999999999992
7.0827217242934113 6.4363510218135351 0.65499999999999992
7.2277728380581125 6.0984380531431697 0.65499999999999992
7.0335726016360711 6.4019364356324724 0.65499999999999992
7.0335726016360711 6.4019364356324724 0.65499999999999992
7.2277728380581125 6.0984380531431697 0.65499999999999992
6.8377408613394017 6.6554614432596848 0.65499999999999992
7.0827217242934113 6.4363510218135351 0.65499999999999992
7.3014965220441219 6.1500599324147638 0.65499999999999992
7.2277728380581125 6.0984380531431697 0.65499999999999992
6.9114645453254111 6.7070833225312789 0.65499999999999992
6.9991580154550084 6.4510855582898134 0.65499999999999992
6.8377408613394017 6.6554614432596848 0.65499999999999992
6.9114645453254111 6.7070833225312789 0.65499999999999992
7.3014965220441219 6.1500599324147638 0.65499999999999992
7.0827217242934113 6.4363510218135351 0.65499999999999992
6.9114645453254111 6.7070833225312789 0.65499999999999992
7.0483071381123485 6.4855001444708753 0.65499999999999992
6.9991580154550084 6.4510855582898134 0.65499999999999992
7.0827217242934113 6.4363510218135351 0.65499999999999992
7.0483071381123485 6.4855001444708753 0.65499999999999992
6.9114645453254111 6.7070833225312789 0.65499999999999992
7.3014965220441219 6.1500599324147638 0.745
6.9114645453254111 6.7070833225312789 0.745
6.8377408613394017 6.6554614432596848 0.745
6.8377408613394017 6.6554614432596848 0.745
7.2277728380581134 6.0984380531431697 0.745
7.3014965220441219 6.1500599324147638 0.745
6.9991580154550084 6.4510855582898126 0.65499999999999992
7.0335726016360711 6.4019364356324724 0.54000000000000004
7.0335726016360711 6.4019364356324724 0.65499999999999992
7.0335726016360711 6.4019364356324724 0.54000000000000004
6.9991580154550084 6.4510855582898126 0.65499999999999992
6.9991580154550084 6.4510855582898126 0.54000000000000004
7.0483071381123485 6.4855001444708753 0.48999999999999999
7.0827217242934113 6.4363510218135351 0.65499999999999992
7.0827217242934113 6.4363510218135351 0.48999999999999999
7.0827217242934113 6.4363510218135351 0.65499999999999992
7.0483071381123485 6.4855001444708753 0.48999999999999999
7.0483071381123485 6.4855001444708753 0.65499999999999992
7.0827217242934113 6.4363510218135351 0.48999999999999999
7.0499556425218515 6.4134079643594939 0.54000000000000004
7.0499556425218515 6.4134079643594939 0.48999999999999999
7.0499556425218515 6.4134079643594939 0.54000000000000004
7.0335726016360711 6.4019364356324724 0.65499999999999992
7.0335726016360711 6.4019364356324724 0.54000000000000004
7.0499556425218515 6.4134079643594939 0.54000000000000004
7.0827217242934113 6.4363510218135351 0.48999999999999999
7.0827217242934113 6.4363510218135351 0.65499999999999992
7.0827217242934113 6.4363510218135351 0.65499999999999992
7.0335726016360711 6.4019364356324724 0.65499999999999992
7.0499556425218515 6.4134079643594939 0.54000000000000004
7.0155410563407887 6.4625570870168332 0.54000000000000004
7.0483071381123485 6.4855001444708753 0.48999999999999999
7.0155410563407887 6.4625570870168332 0.48999999999999999
7.0155410563407887 6.4625570870168332 0.54000000000000004
6.9991580154550084 6.4510855582898126 0.65499999999999992
7.0483071381123485 6.4855001444708753 0.65499999999999992
6.9991580154550084 6.4510855582898126 0.65499999999999992
7.0155410563407887 6.4625570870168332 0.54000000000000004
6.9991580154550084 6.4510855582898126 0.54000000000000004
7.0483071381123485 6.4855001444708753 0.65499999999999992
7.0483071381123485 6.4855001444708753 0.48999999999999999
7.0155410563407887 6.4625570870168332 0.54000000000000004
7.0499556425218515 6.4134079643594939 0.48999999999999999
7.0155410563407887 6.4625570870168341 0.48999999999999999
7.0483071381123485 6.4855001444708753 0.48999999999999999
7.0483071381123485 6.4855001444708753 0.48999999999999999
7.0827217242934113 6.4363510218135351 0.48999999999999999
7.0499556425218515 6.4134079643594939 0.48999999999999999
7.1665212471190323 6.1989902416197591 0.39999999999999997
7.1665212471190323 6.1989902416197591 0
7.2095394798453611 6.1375538382980848 0
7.2095394798453611 6.1375538382980848 0
7.2095394798453611 6.1375538382980848 0.39999999999999997
7.1665212471190323 6.1989902416197591 0.39999999999999997
7.2279576504407066 6.242008474346088 0.46000000000000002
7.2709758831670355 6.1805720710244136 0.46000000000000002
7.2709758831670355 6.1805720710244136 0
7.2709758831670355 6.1805720710244136 0
7.2279576504407066 6.242008474346088 0
7.2279576504407066 6.242008474346088 0.46000000000000002
7.2320661610633081 6.1533271902977384 0.39999999999999997
7.2095394798453611 6.1375538382980848 0
7.2709758831670355 6.1805720710244136 0
7.2095394798453611 6.1375538382980848 0
7.2320661610633081 6.1533271902977384 0.39999999999999997
7.2095394798453611 6.1375538382980848 0.39999999999999997
7.2320661610633081 6.1533271902977384 0.39999999999999997
7.2709758831670355 6.1805720710244136 0.46000000000000002
7.2320661610633081 6.1533271902977384 0.46000000000000002
7.2709758831670355 6.1805720710244136 0
7.2709758831670355 6.1805720710244136 0.46000000000000002
7.2320661610633081 6.1533271902977384 0.39999999999999997
7.1890479283369801 6.2147635936194137 0.39999999999999997
7.2279576504407066 6.242008474346088 0.46000000000000002
7.2279576504407066 6.242008474346088 0
7.2279576504407066 6.242008474346088 0.46000000000000002
7.1890479283369801 6.2147635936194137 0.39999999999999997
7.1890479283369801 6.2147635936194137 0.46000000000000002
7.1890479283369801 6.2147635936194137 0.39999999999999997
7.1665212471190323 6.1989902416197591 0
7.1665212471190323 6.1989902416197591 0.39999999999999997
7.2279576504407066 6.242008474346088 0
7.1665212471190323 6.1989902416197591 0
7.1890479283369801 6.2147635936194137 0.39999999999999997
7.2709758831670355 6.1805720710244136 0.46000000000000002
7.2279576504407066 6.242008474346088 0.46000000000000002
7.1890479283369801 6.2147635936194137 0.46000000000000002
7.1890479283369801 6.2147635936194137 0.46000000000000002
7.232066161063309 6.1533271902977384 0.46000000000000002
7.2709758831670355 6.1805720710244136 0.46000000000000002
6.8367147962171808 6.6700026670859298 0.46000000000000002
6.7936965634908528 6.7314390704076041 2.2204460492503131e-16
6.8367147962171808 6.6700026670859298 2.2204460492503131e-16
6.7936965634908528 6.7314390704076041 2.2204460492503131e-16
6.8367147962171808 6.6700026670859298 0.46000000000000002
6.7936965634908528 6.7314390704076041 0.46000000000000002
6.8981511995388551 6.7130208998122578 0
6.8551329668125272 6.7744573031339321 0.4599999999999998
6.8981511995388551 6.7130208998122578 0.4599999999999998
6.8551329668125272 6.7744573031339321 0.4599999999999998
6.8981511995388551 6.7130208998122578 0
6.8551329668125272 6.7744573031339321 0
6.8981511995388551 6.7130208998122578 0
6.8367147962171808 6.6700026670859298 0.46000000000000002
6.8367147962171808 6.6700026670859298 0
6.8367147962171808 6.6700026670859298 0.46000000000000002
6.8981511995388551 6.7130208998122578 0
6.8981511995388551 6.7130208998122578 0.46000000000000002
6.7936965634908528 6.7314390704076041 0
6.8551329668125272 6.7744573031339321 0.46000000000000002
6.8551329668125272 6.7744573031339321 0
6.8551329668125272 6.7744573031339321 0.46000000000000002
6.7936965634908528 6.7314390704076041 0
6.7936965634908528 6.7314390704076041 0.46000000000000002
6.8981511995388551 6.7130208998122578 0.46000000000000002
6.8551329668125272 6.7744573031339321 0.46000000000000002
6.7936965634908528 6.7314390704076041 0.46000000000000002
6.7936965634908528 6.7314390704076041 0.46000000000000002
6.8367147962171808 6.6700026670859298 0.46000000000000002
6.8981511995388551 6.7130208998122578 0.46000000000000002
6.1808840587629703 6.3725376739417516 0.73999999999999999
6.2210344093075438 6.3151970308415217 0.73999999999999999
6.2210344093075438 6.3151970308415217 1.02
6.2210344093075438 6.3151970308415217 1.02
6.1808840587629703 6.3725376739417516 1.02
6.1808840587629703 6.3725376739417516 0.73999999999999999
6.820104441611619 6.8201246045896724 1.02
6.8602547921561925 6.7627839614894425 1.02
6.8602547921561925 6.7627839614894425 0.73999999999999999
6.8602547921561925 6.7627839614894425 0.73999999999999999
6.820104441611619 6.8201246045896724 0.73999999999999999
6.820104441611619 6.8201246045896724 1.02
6.8233929501631883 6.7369730218536459 1.01
6.8233929501631883 6.7369730218536459 0.73999999999999999
6.8602547921561925 6.7627839614894425 0.73999999999999999
6.2578962513005481 6.3410079704773183 1.01
6.2210344093075438 6.3151970308415217 0.73999999999999999
6.2578962513005481 6.3410079704773183 0.73999999999999999
6.8602547921561925 6.7627839614894425 0.73999999999999999
6.8602547921561925 6.7627839614894425 1.02
6.8233929501631883 6.7369730218536459 1.01
6.2578962513005481 6.3410079704773183 1.01
6.2210344093075438 6.3151970308415217 1.02
6.2210344093075438 6.3151970308415217 0.73999999999999999
6.2578962513005481 6.3410079704773183 1.01
6.8233929501631883 6.7369730218536459 1.01
6.8602547921561925 6.7627839614894425 1.02
6.8602547921561925 6.7627839614894425 1.02
6.2210344093075438 6.3151970308415217 1.02
6.2578962513005481 6.3410079704773183 1.01
6.2177459007559754 6.3983486135775491 1.01
6.2177459007559754 6.3983486135775491 0.73999999999999999
6.1808840587629703 6.3725376739417516 0.73999999999999999
6.7832425996186148 6.7943136649538758 1.01
6.820104441611619 6.8201246045896724 0.73999999999999999
6.7832425996186148 6.7943136649538758 0.73999999999999999
6.1808840587629703 6.3725376739417516 0.73999999999999999
6.1808840587629703 6.3725376739417516 1.02
6.2177459007559754 6.3983486135775491 1.01
6.7832425996186148 6.7943136649538758 1.01
6.820104441611619 6.8201246045896724 1.02
6.820104441611619 6.8201246045896724 0.73999999999999999
6.820104441611619 6.8201246045896724 1.02
6.2177459007559754 6.3983486135775491 1.01
6.1808840587629703 6.3725376739417516 1.02
6.2177459007559754 6.3983486135775491 1.01
6.820104441611619 6.8201246045896724 1.02
6.7832425996186148 6.7943136649538758 1.01
6.1808840587629703 6.3725376739417516 0.73999999999999999
6.2578962513005481 6.3410079704773192 0.73999999999999999
6.2210344093075438 6.3151970308415217 0.73999999999999999
6.2578962513005481 6.3410079704773192 0.73999999999999999
6.1808840587629703 6.3725376739417516 0.73999999999999999
6.2177459007559754 6.3983486135775491 0.73999999999999999
6.8233929501631883 6.7369730218536459 0.73999999999999999
6.7832425996186148 6.7943136649538758 0.73999999999999999
6.820104441611619 6.8201246045896724 0.73999999999999999
6.820104441611619 6.8201246045896724 0.73999999999999999
6.8602547921561925 6.7627839614894425 0.73999999999999999
6.8233929501631883 6.7369730218536459 0.73999999999999999
6.8602547921561925 6.7627839614894425 1.02
6.820104441611619 6.8201246045896724 1.02
6.1808840587629703 6.3725376739417516 1.02
6.1808840587629703 6.3725376739417516 1.02
6.2210344093075438 6.3151970308415217 1.02
6.8602547921561925 6.7627839614894425 1.02
8.4179338389366922 6.1533271902977384 0.46000000000000002
8.4179338389366922 6.1533271902977384 0.39999999999999991
8.3763495473012419 6.0939386670867872 0.39999999999999991
8.6344589436592116 6.4625570870168332 0.48999999999999999
8.7893245814739949 6.6837281389748613 0.39999999999999991
8.4609520716630211 6.2147635936194128 0.39999999999999991
8.6344589436592116 6.4625570870168332 0.48999999999999999
8.6344589436592116 6.4625570870168332 0.54000000000000004
8.7893245814739949 6.6837281389748613 0.54000000000000004
8.4609520716630211 6.2147635936194128 0.46000000000000002
8.4179338389366922 6.1533271902977384 0.46000000000000002
8.3763495473012419 6.0939386670867872 0.54000000000000004
8.3763495473012419 6.0939386670867872 0.39999999999999991
8.3763495473012419 6.0939386670867872 0.54000000000000004
8.4179338389366922 6.1533271902977384 0.46000000000000002
8.7893245814739949 6.6837281389748613 0.54000000000000004
8.7893245814739949 6.6837281389748613 0.39999999999999991
8.6344589436592116 6.4625570870168332 0.48999999999999999
8.3763495473012419 6.0939386670867872 0.54000000000000004
8.6000443574781489 6.4134079643594939 0.54000000000000004
8.4609520716630211 6.2147635936194128 0.46000000000000002
8.6000443574781489 6.4134079643594939 0.48999999999999999
8.6344589436592116 6.4625570870168332 0.48999999999999999
8.4609520716630211 6.2147635936194128 0.39999999999999991
8.6000443574781489 6.4134079643594939 0.54000000000000004
8.6000443574781489 6.4134079643594939 0.48999999999999999
8.4609520716630211 6.2147635936194128 0.46000000000000002
8.4609520716630211 6.2147635936194128 0.39999999999999991
8.4609520716630211 6.2147635936194128 0.46000000000000002
8.6000443574781489 6.4134079643594939 0.48999999999999999
9.0264487705256595 5.818798542243087 0.46000000000000002
9.1655410563407891 6.0174429129831672 0.48999999999999999
9.1655410563407891 6.0174429129831672 0.54000000000000004
9.1999556425218518 6.0665920356405074 0.48999999999999999
9.3548212803366333 6.2877630875985346 0.54000000000000004
9.1999556425218518 6.0665920356405074 0.54000000000000004
9.1999556425218518 6.0665920356405074 0.48999999999999999
9.0264487705256595 5.818798542243087 0.39999999999999991
9.3548212803366333 6.2877630875985346 0.39999999999999991
8.9834305377993324 5.7573621389214136 0.46000000000000002
8.9418462461638804 5.6979736157104606 0.39999999999999991
8.9834305377993324 5.7573621389214136 0.39999999999999991
9.3548212803366333 6.2877630875985346 0.39999999999999991
9.3548212803366333 6.2877630875985346 0.54000000000000004
9.1999556425218518 6.0665920356405074 0.48999999999999999
8.9834305377993324 5.7573621389214136 0.46000000000000002
8.9418462461638804 5.6979736157104606 0.54000000000000004
8.9418462461638804 5.6979736157104606 0.39999999999999991
9.1655410563407891 6.0174429129831672 0.48999999999999999
9.0264487705256595 5.818798542243087 0.39999999999999991
9.1999556425218518 6.0665920356405074 0.48999999999999999
9.0264487705256595 5.818798542243087 0.46000000000000002
8.9418462461638804 5.6979736157104606 0.54000000000000004
8.9834305377993324 5.7573621389214136 0.46000000000000002
9.1655410563407891 6.0174429129831672 0.48999999999999999
9.0264487705256595 5.818798542243087 0.46000000000000002
9.0264487705256595 5.818798542243087 0.39999999999999991
9.1655410563407891 6.0174429129831672 0.54000000000000004
8.9418462461638804 5.6979736157104606 0.54000000000000004
9.0264487705256595 5.818798542243087 0.46000000000000002
8.9418462461638804 5.6979736157104606 0.39999999999999991
8.3763495473012419 6.0939386670867872 0.54000000000000004
8.3763495473012419 6.0939386670867872 0.39999999999999991
8.3763495473012419 6.0939386670867872 0.54000000000000004
8.9418462461638804 5.6979736157104606 0.39999999999999991
8.9418462461638804 5.6979736157104606 0.54000000000000004
8.7893245814739949 6.6837281389748613 0.39999999999999991
9.3548212803366333 6.2877630875985346 0.53000000000000003
9.3548212803366333 6.2877630875985346 0.39999999999999991
9.3548212803366333 6.2877630875985346 0.53000000000000003
8.7893245814739949 6.6837281389748613 0.39999999999999991
8.7893245814739949 6.6837281389748613 0.53000000000000003
8.4834787528809681 6.1989902416197591 0.39999999999999991
8.4609520716630193 6.2147635936194128 0.39999999999999991
8.7893245814739949 6.6837281389748613 0.39999999999999991
8.4834787528809681 6.1989902416197591 0.39999999999999991
9.0039220893077125 5.8345718942427407 0.39999999999999991
8.9609038565813837 5.7731354909210664 0.39999999999999991
8.9609038565813837 5.7731354909210664 0.39999999999999991
8.4404605201546392 6.1375538382980839 0.39999999999999991
8.4834787528809681 6.1989902416197591 0.39999999999999991
8.7893245814739949 6.6837281389748613 0.39999999999999991
9.3548212803366333 6.2877630875985346 0.39999999999999991
8.4834787528809681 6.1989902416197591 0.39999999999999991
9.3548212803366333 6.2877630875985346 0.39999999999999991
9.0264487705256595 5.818798542243087 0.39999999999999991
9.0039220893077125 5.8345718942427407 0.39999999999999991
9.0039220893077125 5.8345718942427407 0.39999999999999991
8.4834787528809681 6.1989902416197591 0.39999999999999991
9.3548212803366333 6.2877630875985346 0.39999999999999991
8.4404605201546392 6.1375538382980839 0.39999999999999991
8.3763495473012419 6.0939386670867872 0.39999999999999991
8.4179338389366922 6.1533271902977384 0.39999999999999991
8.9609038565813837 5.7731354909210664 0.39999999999999991
8.3763495473012419 6.0939386670867872 0.39999999999999991
8.4404605201546392 6.1375538382980839 0.39999999999999991
8.9418462461638804 5.6979736157104606 0.39999999999999991
8.3763495473012419 6.0939386670867872 0.39999999999999991
8.9609038565813837 5.7731354909210664 0.39999999999999991
8.9609038565813837 5.7731354909210664 0.39999999999999991
8.9834305377993307 5.7573621389214118 0.39999999999999991
8.9418462461638804 5.6979736157104606 0.39999999999999991
8.6164273983639283 6.4019364356324724 0.54000000000000004
8.6000443574781489 6.413407964359493 0.54000000000000004
8.3763495473012419 6.0939386670867872 0.54000000000000004
8.6164273983639283 6.4019364356324724 0.54000000000000004
9.1491580154550096 6.0289144417101879 0.54000000000000004
9.1835726016360724 6.078063564367528 0.54000000000000004
9.1835726016360724 6.078063564367528 0.54000000000000004
8.6508419845449911 6.4510855582898126 0.54000000000000004
8.6164273983639283 6.4019364356324724 0.54000000000000004
8.6508419845449911 6.4510855582898126 0.54000000000000004
8.7893245814739949 6.6837281389748613 0.54000000000000004
8.6344589436592134 6.4625570870168323 0.54000000000000004
8.3763495473012419 6.0939386670867872 0.54000000000000004
8.9418462461638804 5.6979736157104606 0.54000000000000004
8.6164273983639283 6.4019364356324724 0.54000000000000004
8.9418462461638804 5.6979736157104606 0.54000000000000004
9.1655410563407891 6.0174429129831672 0.54000000000000004
9.1491580154550096 6.0289144417101879 0.54000000000000004
9.1835726016360724 6.078063564367528 0.54000000000000004
8.7893245814739949 6.6837281389748613 0.54000000000000004
8.6508419845449911 6.4510855582898126 0.54000000000000004
9.1491580154550096 6.0289144417101879 0.54000000000000004
8.6164273983639283 6.4019364356324724 0.54000000000000004
8.9418462461638804 5.6979736157104606 0.54000000000000004
9.3548212803366333 6.2877630875985346 0.54000000000000004
8.7893245814739949 6.6837281389748613 0.54000000000000004
9.1835726016360724 6.078063564367528 0.54000000000000004
9.1835726016360724 6.078063564367528 0.54000000000000004
9.1999556425218518 6.0665920356405074 0.54000000000000004
9.3548212803366333 6.2877630875985346 0.54000000000000004
8.8667574003813847 6.7943136649538749 0.73999999999999999
8.8667574003813847 6.7943136649538749 1.01
8.8696252825631401 6.7984094251753202 1.01
8.826607049836813 6.7369730218536459 0.73999999999999999
8.7893245814739949 6.6837281389748613 1.01
8.826607049836813 6.7369730218536459 1.01
8.8696252825631401 6.7984094251753202 1.01
8.8696252825631401 6.7984094251753202 0.53000000000000003
8.8667574003813847 6.7943136649538749 0.73999999999999999
8.826607049836813 6.7369730218536459 0.73999999999999999
8.7893245814739949 6.6837281389748613 0.53000000000000003
8.7893245814739949 6.6837281389748613 1.01
8.826607049836813 6.7369730218536459 0.73999999999999999
8.8667574003813847 6.7943136649538749 0.73999999999999999
8.8696252825631401 6.7984094251753202 0.53000000000000003
8.8696252825631401 6.7984094251753202 0.53000000000000003
8.7893245814739949 6.6837281389748613 0.53000000000000003
8.826607049836813 6.7369730218536459 0.73999999999999999
9.3921037486994514 6.3410079704773192 0.73999999999999999
9.3921037486994514 6.3410079704773192 1.01
9.3548212803366333 6.2877630875985346 1.01
9.4322540992440249 6.3983486135775482 0.73999999999999999
9.4351219814257803 6.4024443737989936 1.01
9.4322540992440249 6.3983486135775482 1.01
9.3548212803366333 6.2877630875985346 1.01
9.3548212803366333 6.2877630875985346 0.53000000000000003
9.3921037486994514 6.3410079704773192 0.73999999999999999
9.4322540992440249 6.3983486135775482 0.73999999999999999
9.4351219814257803 6.4024443737989936 0.53000000000000003
9.4351219814257803 6.4024443737989936 1.01
9.4351219814257803 6.4024443737989936 0.53000000000000003
9.3921037486994514 6.3410079704773192 0.73999999999999999
9.3548212803366333 6.2877630875985346 0.53000000000000003
9.3921037486994514 6.3410079704773192 0.73999999999999999
9.4351219814257803 6.4024443737989936 0.53000000000000003
9.4322540992440249 6.3983486135775482 0.73999999999999999
8.7893245814739949 6.6837281389748613 1.01
9.3548212803366333 6.2877630875985346 0.54000000000000004
9.3548212803366333 6.2877630875985346 1.01
9.3548212803366333 6.2877630875985346 0.54000000000000004
8.7893245814739949 6.6837281389748613 1.01
8.7893245814739949 6.6837281389748613 0.54000000000000004
8.8696252825631401 6.7984094251753202 0.53000000000000003
9.4351219814257803 6.4024443737989936 1.01
9.4351219814257803 6.4024443737989936 0.53000000000000003
9.4351219814257803 6.4024443737989936 1.01
8.8696252825631401 6.7984094251753202 0.53000000000000003
8.8696252825631401 6.7984094251753202 1.01
9.4351219814257803 6.4024443737989936 0.53000000000000003
9.3548212803366333 6.2877630875985346 0.53000000000000003
8.7893245814739949 6.6837281389748613 0.53000000000000003
8.7893245814739949 6.6837281389748613 0.53000000000000003
8.8696252825631401 6.7984094251753202 0.53000000000000003
9.4351219814257803 6.4024443737989936 0.53000000000000003
8.7893245814739949 6.6837281389748613 1.01
9.3548212803366333 6.2877630875985346 1.01
9.3921037486994514 6.3410079704773192 1.01
9.3921037486994514 6.3410079704773192 1.01
8.826607049836813 6.736973021853645 1.01
8.7893245814739949 6.6837281389748613 1.01
8.8696252825631401 6.7984094251753202 1.01
9.4322540992440249 6.3983486135775491 1.01
9.4351219814257803 6.4024443737989936 1.01
9.4322540992440249 6.3983486135775491 1.01
8.8696252825631401 6.7984094251753202 1.01
8.8667574003813847 6.7943136649538758 1.01
8.3485034779558784 6.1500599324147638 0.745
8.7385354546745901 6.7070833225312789 0.65499999999999992
8.3485034779558784 6.1500599324147638 0.65499999999999992
8.7385354546745901 6.7070833225312789 0.65499999999999992
8.3485034779558784 6.1500599324147638 0.745
8.7385354546745901 6.7070833225312789 0.745
8.4222271619418869 6.0984380531431697 0.65499999999999992
8.8122591386605986 6.6554614432596848 0.745
8.4222271619418869 6.0984380531431697 0.745
8.8122591386605986 6.6554614432596848 0.745
8.4222271619418869 6.0984380531431697 0.65499999999999992
8.8122591386605986 6.6554614432596848 0.65499999999999992
8.4222271619418869 6.0984380531431697 0.65499999999999992
8.3485034779558784 6.1500599324147638 0.745
8.3485034779558784 6.1500599324147638 0.65499999999999992
8.3485034779558784 6.1500599324147638 0.745
8.4222271619418869 6.0984380531431697 0.65499999999999992
8.4222271619418869 6.0984380531431697 0.745
8.7385354546745901 6.7070833225312789 0.65499999999999992
8.8122591386605986 6.6554614432596848 0.745
8.8122591386605986 6.6554614432596848 0.65499999999999992
8.8122591386605986 6.6554614432596848 0.745
8.7385354546745901 6.7070833225312789 0.65499999999999992
8.7385354546745901 6.7070833225312789 0.745
8.7385354546745901 6.7070833225312789 0.65499999999999992
8.6016928618876527 6.4855001444708753 0.65499999999999992
8.56727827570659 6.4363510218135351 0.65499999999999992
8.56727827570659 6.4363510218135351 0.65499999999999992
8.3485034779558784 6.1500599324147638 0.65499999999999992
8.7385354546745901 6.7070833225312789 0.65499999999999992
8.6164273983639283 6.4019364356324724 0.65499999999999992
8.3485034779558784 6.1500599324147638 0.65499999999999992
8.56727827570659 6.4363510218135351 0.65499999999999992
8.8122591386605986 6.6554614432596848 0.65499999999999992
8.6016928618876527 6.4855001444708753 0.65499999999999992
8.7385354546745901 6.7070833225312789 0.65499999999999992
8.6164273983639283 6.4019364356324724 0.65499999999999992
8.4222271619418869 6.0984380531431697 0.65499999999999992
8.3485034779558784 6.1500599324147638 0.65499999999999992
8.8122591386605986 6.6554614432596848 0.65499999999999992
8.6508419845449911 6.4510855582898126 0.65499999999999992
8.6016928618876527 6.4855001444708753 0.65499999999999992
8.8122591386605986 6.6554614432596848 0.65499999999999992
8.4222271619418869 6.0984380531431697 0.65499999999999992
8.6164273983639283 6.4019364356324724 0.65499999999999992
8.6164273983639283 6.4019364356324724 0.65499999999999992
8.6508419845449911 6.4510855582898126 0.65499999999999992
8.8122591386605986 6.6554614432596848 0.65499999999999992
8.3485034779558784 6.1500599324147638 0.745
8.8122591386605986 6.6554614432596848 0.745
8.7385354546745901 6.7070833225312789 0.745
8.8122591386605986 6.6554614432596848 0.745
8.3485034779558784 6.1500599324147638 0.745
8.4222271619418869 6.0984380531431697 0.745
8.56727827570659 6.4363510218135351 0.48999999999999999
8.6016928618876527 6.4855001444708753 0.65499999999999992
8.6016928618876527 6.4855001444708753 0.48999999999999999
8.6016928618876527 6.4855001444708753 0.65499999999999992
8.56727827570659 6.4363510218135351 0.48999999999999999
8.56727827570659 6.4363510218135351 0.65499999999999992
8.6508419845449911 6.4510855582898126 0.54000000000000004
8.6164273983639283 6.4019364356324724 0.65499999999999992
8.6164273983639283 6.4019364356324724 0.54000000000000004
8.6164273983639283 6.4019364356324724 0.65499999999999992
8.6508419845449911 6.4510855582898126 0.54000000000000004
8.6508419845449911 6.4510855582898126 0.65499999999999992
8.6000443574781489 6.4134079643594939 0.54000000000000004
8.56727827570659 6.4363510218135351 0.48999999999999999
8.6000443574781489 6.4134079643594939 0.48999999999999999
8.6000443574781489 6.4134079643594939 0.54000000000000004
8.6164273983639283 6.4019364356324724 0.65499999999999992
8.56727827570659 6.4363510218135351 0.65499999999999992
8.6164273983639283 6.4019364356324724 0.65499999999999992
8.6000443574781489 6.4134079643594939 0.54000000000000004
8.6164273983639283 6.4019364356324724 0.54000000000000004
8.56727827570659 6.4363510218135351 0.65499999999999992
8.56727827570659 6.4363510218135351 0.48999999999999999
8.6000443574781489 6.4134079643594939 0.54000000000000004
8.6016928618876527 6.4855001444708753 0.48999999999999999
8.6344589436592116 6.4625570870168332 0.54000000000000004
8.6344589436592116 6.4625570870168332 0.48999999999999999
8.6344589436592116 6.4625570870168332 0.54000000000000004
8.6508419845449911 6.4510855582898126 0.65499999999999992
8.6508419845449911 6.4510855582898126 0.54000000000000004
8.6344589436592116 6.4625570870168332 0.54000000000000004
8.6016928618876527 6.4855001444708753 0.48999999999999999
8.6016928618876527 6.4855001444708753 0.65499999999999992
8.6016928618876527 6.4855001444708753 0.65499999999999992
8.6508419845449911 6.4510855582898126 0.65499999999999992
8.6344589436592116 6.4625570870168332 0.54000000000000004
8.6344589436592116 6.4625570870168332 0.48999999999999999
8.6000443574781507 6.413407964359493 0.48999999999999999
8.56727827570659 6.4363510218135351 0.48999999999999999
8.56727827570659 6.4363510218135351 0.48999999999999999
8.6016928618876527 6.4855001444708753 0.48999999999999999
8.6344589436592116 6.4625570870168332 0.48999999999999999
8.3790241168329658 6.1805720710244136 0.46000000000000002
8.4220423495592929 6.242008474346088 0
8.3790241168329658 6.1805720710244136 0
8.4220423495592929 6.242008474346088 0
8.3790241168329658 6.1805720710244136 0.46000000000000002
8.4220423495592929 6.242008474346088 0.46000000000000002
8.4404605201546392 6.1375538382980848 0.39999999999999997
8.4404605201546392 6.1375538382980848 0
8.4834787528809681 6.1989902416197591 0
8.4834787528809681 6.1989902416197591 0
8.4834787528809681 6.1989902416197591 0.39999999999999997
8.4404605201546392 6.1375538382980848 0.39999999999999997
8.4179338389366922 6.1533271902977384 0.39999999999999997
8.3790241168329658 6.1805720710244136 0.46000000000000002
8.3790241168329658 6.1805720710244136 0
8.3790241168329658 6.1805720710244136 0.46000000000000002
8.4179338389366922 6.1533271902977384 0.39999999999999997
8.4179338389366922 6.1533271902977384 0.46000000000000002
8.4179338389366922 6.1533271902977384 0.39999999999999997
8.4404605201546392 6.1375538382980848 0
8.4404605201546392 6.1375538382980848 0.39999999999999997
8.3790241168329658 6.1805720710244136 0
8.4404605201546392 6.1375538382980848 0
8.4179338389366922 6.1533271902977384 0.39999999999999997
8.4609520716630211 6.2147635936194128 0.39999999999999997
8.4834787528809681 6.1989902416197591 0
8.4220423495592929 6.242008474346088 0
8.4834787528809681 6.1989902416197591 0
8.4609520716630211 6.2147635936194128 0.39999999999999997
8.4834787528809681 6.1989902416197591 0.39999999999999997
8.4609520716630211 6.2147635936194128 0.39999999999999997
8.4220423495592929 6.242008474346088 0.46000000000000002
8.4609520716630211 6.2147635936194128 0.46000000000000002
8.4220423495592929 6.242008474346088 0
8.4220423495592929 6.242008474346088 0.46000000000000002
8.4609520716630211 6.2147635936194128 0.39999999999999997
8.3790241168329658 6.1805720710244136 0.46000000000000002
8.4609520716630211 6.2147635936194128 0.46000000000000002
8.4220423495592929 6.242008474346088 0.46000000000000002
8.4609520716630211 6.2147635936194128 0.46000000000000002
8.3790241168329658 6.1805720710244136 0.46000000000000002
8.4179338389366922 6.1533271902977384 0.46000000000000002
8.7948670331874741 6.7744573031339321 0
8.7518488004611452 6.7130208998122578 0
8.7518488004611452 6.7130208998122578 0.46000000000000002
8.7518488004611452 6.7130208998122578 0.46000000000000002
8.7948670331874741 6.7744573031339321 0.46000000000000002
8.7948670331874741 6.7744573031339321 0
8.8563034365091475 6.7314390704076041 0.46000000000000002
8.8132852037828187 6.6700026670859298 0.46000000000000002
8.8132852037828187 6.6700026670859298 0
8.8132852037828187 6.6700026670859298 0
8.8563034365091475 6.7314390704076041 0
8.8563034365091475 6.7314390704076041 0.46000000000000002
8.8132852037828187 6.6700026670859298 0
8.7518488004611452 6.7130208998122578 0.46000000000000002
8.7518488004611452 6.7130208998122578 0
8.7518488004611452 6.7130208998122578 0.46000000000000002
8.8132852037828187 6.6700026670859298 0
8.8132852037828187 6.6700026670859298 0.46000000000000002
8.7948670331874741 6.7744573031339321 0
8.8563034365091475 6.7314390704076041 0.46000000000000002
8.8563034365091475 6.7314390704076041 0
8.8563034365091475 6.7314390704076041 0.46000000000000002
8.7948670331874741 6.7744573031339321 0
8.7948670331874741 6.7744573031339321 0.46000000000000002
8.8132852037828187 6.6700026670859298 0.46000000000000002
8.8563034365091475 6.7314390704076041 0.46000000000000002
8.7948670331874741 6.7744573031339321 0.46000000000000002
8.7948670331874741 6.7744573031339321 0.46000000000000002
8.7518488004611452 6.7130208998122578 0.46000000000000002
8.8132852037828187 6.6700026670859298 0.46000000000000002
8.9303832177042981 5.7426233523114165 0.745
9.320415194423008 6.2996467424279308 0.65499999999999992
8.9303832177042981 5.7426233523114165 0.65499999999999992
9.320415194423008 6.2996467424279308 0.65499999999999992
8.9303832177042981 5.7426233523114165 0.745
9.320415194423008 6.2996467424279308 0.745
9.0041069016903066 5.6910014730398224 0.65499999999999992
9.3941388784090183 6.2480248631563367 0.745
9.0041069016903066 5.6910014730398224 0.745
9.3941388784090183 6.2480248631563367 0.745
9.0041069016903066 5.6910014730398224 0.65499999999999992
9.3941388784090183 6.2480248631563367 0.65499999999999992
9.0041069016903066 5.6910014730398224 0.65499999999999992
8.9303832177042981 5.7426233523114165 0.745
8.9303832177042981 5.7426233523114165 0.65499999999999992
8.9303832177042981 5.7426233523114165 0.745
9.0041069016903066 5.6910014730398224 0.65499999999999992
9.0041069016903066 5.6910014730398224 0.745
9.320415194423008 6.2996467424279308 0.65499999999999992
9.3941388784090183 6.2480248631563367 0.745
9.3941388784090183 6.2480248631563367 0.65499999999999992
9.3941388784090183 6.2480248631563367 0.745
9.320415194423008 6.2996467424279308 0.65499999999999992
9.320415194423008 6.2996467424279308 0.745
9.3941388784090183 6.2480248631563367 0.65499999999999992
9.1835726016360724 6.078063564367528 0.65499999999999992
9.320415194423008 6.2996467424279308 0.65499999999999992
9.1491580154550096 6.0289144417101879 0.65499999999999992
9.320415194423008 6.2996467424279308 0.65499999999999992
9.1835726016360724 6.078063564367528 0.65499999999999992
9.3941388784090183 6.2480248631563367 0.65499999999999992
9.2327217242934108 6.0436489781864653 0.65499999999999992
9.1835726016360724 6.078063564367528 0.65499999999999992
9.1491580154550096 6.0289144417101879 0.65499999999999992
8.9303832177042981 5.7426233523114165 0.65499999999999992
9.320415194423008 6.2996467424279308 0.65499999999999992
9.198307138112348 5.9944998555291251 0.65499999999999992
9.2327217242934108 6.0436489781864653 0.65499999999999992
9.3941388784090183 6.2480248631563367 0.65499999999999992
9.198307138112348 5.9944998555291251 0.65499999999999992
8.9303832177042981 5.7426233523114165 0.65499999999999992
9.1491580154550096 6.0289144417101879 0.65499999999999992
9.3941388784090183 6.2480248631563367 0.65499999999999992
9.0041069016903066 5.6910014730398224 0.65499999999999992
9.198307138112348 5.9944998555291251 0.65499999999999992
9.198307138112348 5.9944998555291251 0.65499999999999992
9.0041069016903066 5.6910014730398224 0.65499999999999992
8.9303832177042981 5.7426233523114165 0.65499999999999992
9.0041069016903066 5.6910014730398224 0.745
9.3941388784090183 6.2480248631563367 0.745
9.320415194423008 6.2996467424279308 0.745
9.320415194423008 6.2996467424279308 0.745
8.9303832177042981 5.7426233523114165 0.745
9.0041069016903066 5.6910014730398224 0.745
9.1835726016360724 6.078063564367528 0.65499999999999992
9.1491580154550096 6.0289144417101879 0.54000000000000004
9.1491580154550096 6.0289144417101879 0.65499999999999992
9.1491580154550096 6.0289144417101879 0.54000000000000004
9.1835726016360724 6.078063564367528 0.65499999999999992
9.1835726016360724 6.078063564367528 0.54000000000000004
9.2327217242934108 6.0436489781864653 0.48999999999999999
9.198307138112348 5.9944998555291251 0.65499999999999992
9.198307138112348 5.9944998555291251 0.48999999999999999
9.198307138112348 5.9944998555291251 0.65499999999999992
9.2327217242934108 6.0436489781864653 0.48999999999999999
9.2327217242934108 6.0436489781864653 0.65499999999999992
9.198307138112348 5.9944998555291251 0.48999999999999999
9.1655410563407891 6.0174429129831672 0.54000000000000004
9.1655410563407891 6.0174429129831672 0.48999999999999999
9.1655410563407891 6.0174429129831672 0.54000000000000004
9.1491580154550096 6.0289144417101879 0.65499999999999992
9.1491580154550096 6.0289144417101879 0.54000000000000004
9.1655410563407891 6.0174429129831672 0.54000000000000004
9.198307138112348 5.9944998555291251 0.48999999999999999
9.198307138112348 5.9944998555291251 0.65499999999999992
9.198307138112348 5.9944998555291251 0.65499999999999992
9.1491580154550096 6.0289144417101879 0.65499999999999992
9.1655410563407891 6.0174429129831672 0.54000000000000004
9.1999556425218518 6.0665920356405065 0.54000000000000004
9.2327217242934108 6.0436489781864653 0.48999999999999999
9.1999556425218518 6.0665920356405065 0.48999999999999999
9.1999556425218518 6.0665920356405065 0.54000000000000004
9.1835726016360724 6.078063564367528 0.65499999999999992
9.2327217242934108 6.0436489781864653 0.65499999999999992
9.1835726016360724 6.078063564367528 0.65499999999999992
9.1999556425218518 6.0665920356405065 0.54000000000000004
9.1835726016360724 6.078063564367528 0.54000000000000004
9.2327217242934108 6.0436489781864653 0.65499999999999992
9.2327217242934108 6.0436489781864653 0.48999999999999999
9.1999556425218518 6.0665920356405065 0.54000000000000004
9.1655410563407891 6.0174429129831681 0.48999999999999999
9.1999556425218518 6.0665920356405074 0.48999999999999999
9.2327217242934108 6.0436489781864653 0.48999999999999999
9.2327217242934108 6.0436489781864653 0.48999999999999999
9.198307138112348 5.9944998555291251 0.48999999999999999
9.1655410563407891 6.0174429129831681 0.48999999999999999
9.0039220893077125 5.8345718942427407 0.39999999999999997
9.0039220893077125 5.8345718942427407 0
8.9609038565813837 5.7731354909210664 0
8.9609038565813837 5.7731354909210664 0
8.9609038565813837 5.7731354909210664 0.39999999999999997
9.0039220893077125 5.8345718942427407 0.39999999999999997
9.0653584926293878 5.7915536615164118 0.46000000000000002
9.0223402599030589 5.7301172581947375 0.46000000000000002
9.0223402599030589 5.7301172581947375 0
9.0223402599030589 5.7301172581947375 0
9.0653584926293878 5.7915536615164118 0
9.0653584926293878 5.7915536615164118 0.46000000000000002
8.9834305377993324 5.7573621389214118 0.39999999999999997
8.9609038565813837 5.7731354909210664 0
9.0223402599030589 5.7301172581947375 0
8.9609038565813837 5.7731354909210664 0
8.9834305377993324 5.7573621389214118 0.39999999999999997
8.9609038565813837 5.7731354909210664 0.39999999999999997
8.9834305377993324 5.7573621389214118 0.39999999999999997
9.0223402599030589 5.7301172581947375 0.46000000000000002
8.9834305377993324 5.7573621389214118 0.46000000000000002
9.0223402599030589 5.7301172581947375 0
9.0223402599030589 5.7301172581947375 0.46000000000000002
8.9834305377993324 5.7573621389214118 0.39999999999999997
9.0264487705256595 5.818798542243087 0.39999999999999997
9.0653584926293878 5.7915536615164118 0.46000000000000002
9.0653584926293878 5.7915536615164118 0
9.0653584926293878 5.7915536615164118 0.46000000000000002
9.0264487705256595 5.818798542243087 0.39999999999999997
9.0264487705256595 5.818798542243087 0.46000000000000002
9.0264487705256595 5.818798542243087 0.39999999999999997
9.0039220893077125 5.8345718942427407 0
9.0039220893077125 5.8345718942427407 0.39999999999999997
9.0653584926293878 5.7915536615164118 0
9.0039220893077125 5.8345718942427407 0
9.0264487705256595 5.818798542243087 0.39999999999999997
9.0223402599030589 5.7301172581947375 0.46000000000000002
9.0653584926293878 5.7915536615164118 0.46000000000000002
9.0264487705256595 5.818798542243087 0.46000000000000002
9.0264487705256595 5.818798542243087 0.46000000000000002
8.9834305377993307 5.7573621389214127 0.46000000000000002
9.0223402599030589 5.7301172581947375 0.46000000000000002
9.3337285402095649 6.3055843197089105 0.46000000000000002
9.376746772935892 6.3670207230305849 0
9.3337285402095649 6.3055843197089105 0
9.376746772935892 6.3670207230305849 0
9.3337285402095649 6.3055843197089105 0.46000000000000002
9.376746772935892 6.3670207230305849 0.46000000000000002
9.4381831762575672 6.3240024903042569 0.46000000000000002
9.3951649435312383 6.2625660869825825 0.46000000000000002
9.3951649435312383 6.2625660869825825 0
9.3951649435312383 6.2625660869825825 0
9.4381831762575672 6.3240024903042569 0
9.4381831762575672 6.3240024903042569 0.46000000000000002
9.3951649435312383 6.2625660869825825 0
9.3337285402095649 6.3055843197089105 0.46000000000000002
9.3337285402095649 6.3055843197089105 0
9.3337285402095649 6.3055843197089105 0.46000000000000002
9.3951649435312383 6.2625660869825825 0
9.3951649435312383 6.2625660869825825 0.46000000000000002
9.376746772935892 6.3670207230305849 0
9.4381831762575672 6.3240024903042569 0.46000000000000002
9.4381831762575672 6.3240024903042569 0
9.4381831762575672 6.3240024903042569 0.46000000000000002
9.376746772935892 6.3670207230305849 0
9.376746772935892 6.3670207230305849 0.46000000000000002
9.3337285402095649 6.3055843197089105 0.46000000000000002
9.4381831762575672 6.3240024903042569 0.46000000000000002
9.376746772935892 6.3670207230305849 0.46000000000000002
9.4381831762575672 6.3240024903042569 0.46000000000000002
9.3337285402095649 6.3055843197089105 0.46000000000000002
9.3951649435312383 6.2625660869825825 0.46000000000000002
8.8298955583883814 6.8201246045896724 0.73999999999999999
8.7897452078438079 6.7627839614894425 0.73999999999999999
8.7897452078438079 6.7627839614894425 1.02
8.7897452078438079 6.7627839614894425 1.02
8.8298955583883814 6.8201246045896724 1.02
8.8298955583883814 6.8201246045896724 0.73999999999999999
9.46911594123703 6.3725376739417516 1.02
9.4289655906924565 6.3151970308415217 1.02
9.4289655906924565 6.3151970308415217 0.73999999999999999
9.4289655906924565 6.3151970308415217 0.73999999999999999
9.46911594123703 6.3725376739417516 0.73999999999999999
9.46911594123703 6.3725376739417516 1.02
9.3921037486994514 6.3410079704773192 1.01
9.3921037486994514 6.3410079704773192 0.73999999999999999
9.4289655906924565 6.3151970308415217 0.73999999999999999
8.826607049836813 6.736973021853645 1.01
8.7897452078438079 6.7627839614894425 0.73999999999999999
8.826607049836813 6.736973021853645 0.73999999999999999
9.4289655906924565 6.3151970308415217 0.73999999999999999
9.4289655906924565 6.3151970308415217 1.02
9.3921037486994514 6.3410079704773192 1.01
8.826607049836813 6.736973021853645 1.01
8.7897452078438079 6.7627839614894425 1.02
8.7897452078438079 6.7627839614894425 0.73999999999999999
8.7897452078438079 6.7627839614894425 1.02
9.3921037486994514 6.3410079704773192 1.01
9.4289655906924565 6.3151970308415217 1.02
9.3921037486994514 6.3410079704773192 1.01
8.7897452078438079 6.7627839614894425 1.02
8.826607049836813 6.736973021853645 1.01
8.8667574003813847 6.7943136649538758 1.01
8.8667574003813847 6.7943136649538758 0.73999999999999999
8.8298955583883814 6.8201246045896724 0.73999999999999999
9.4322540992440249 6.3983486135775491 1.01
9.46911594123703 6.3725376739417516 0.73999999999999999
9.4322540992440249 6.3983486135775491 0.73999999999999999
8.8298955583883814 6.8201246045896724 0.73999999999999999
8.8298955583883814 6.8201246045896724 1.02
8.8667574003813847 6.7943136649538758 1.01
9.4322540992440249 6.3983486135775491 1.01
9.46911594123703 6.3725376739417516 1.02
9.46911594123703 6.3725376739417516 0.73999999999999999
9.4322540992440249 6.3983486135775491 1.01
8.8667574003813847 6.7943136649538758 1.01
8.8298955583883814 6.8201246045896724 1.02
8.8298955583883814 6.8201246045896724 1.02
9.46911594123703 6.3725376739417516 1.02
9.4322540992440249 6.3983486135775491 1.01
8.8667574003813847 6.7943136649538758 0.73999999999999999
8.826607049836813 6.7369730218536459 0.73999999999999999
8.7897452078438079 6.7627839614894425 0.73999999999999999
8.7897452078438079 6.7627839614894425 0.73999999999999999
8.8298955583883814 6.8201246045896724 0.73999999999999999
8.8667574003813847 6.7943136649538758 0.73999999999999999
9.4289655906924565 6.3151970308415217 0.73999999999999999
9.4322540992440249 6.3983486135775491 0.73999999999999999
9.46911594123703 6.3725376739417516 0.73999999999999999
9.4322540992440249 6.3983486135775491 0.73999999999999999
9.4289655906924565 6.3151970308415217 0.73999999999999999
9.3921037486994514 6.3410079704773192 0.73999999999999999
8.7897452078438079 6.7627839614894425 1.02
9.46911594123703 6.3725376739417516 1.02
8.8298955583883814 6.8201246045896724 1.02
9.46911594123703 6.3725376739417516 1.02
8.7897452078438079 6.7627839614894425 1.02
9.4289655906924565 6.3151970308415217 1.02
3 0 1 2
3 3 4 5
3 6 7 8
3 9 10 11
3 12 13 14
3 15 16 17
3 18 19 20
3 21 22 23
3 24 25 26
3 27 28 29
3 30 31 32
3 33 34 35
3 36 37 38
3 39 40 41
3 42 43 44
3 45 46 47
3 48 49 50
3 51 52 53
3 54 55 56
3 57 58 59
3 60 61 62
3 63 64 65
3 66 67 68
3 69 70 71
3 72 73 74
3 75 76 77
3 78 79 80
3 81 82 83
3 84 85 86
3 87 88 89
3 90 91 92
3 93 94 95
3 96 97 98
3 99 100 101
3 102 103 104
3 105 106 107
3 108 109 110
3 111 112 113
3 114 115 116
3 117 118 119
3 120 121 122
3 123 124 125
3 126 127 128
3 129 130 131
3 132 133 134
3 135 136 137
3 138 139 140
3 141 142 143
3 144 145 146
3 147 148 149
3 150 151 152
3 153 154 155
3 156 157 158
3 159 160 161
3 162 163 164
3 165 166 167
3 168 169 170
3 171 172 173
3 174 175 176
3 177 178 179
3 180 181 182
3 183 184 185
3 186 187 188
3 189 190 191
3 192 193 194
3 195 196 197
3 198 199 200
3 201 202 203
3 204 205 206
3 207 208 209
3 210 211 212
3 213 214 215
3 216 217 218
3 219 220 221
3 222 223 224
3 225 226 227
3 228 229 230
3 231 232 233
3 234 235 236
3 237 238 239
3 240 241 242
3 243 244 245
3 246 247 248
3 249 250 251
3 252 253 254
3 255 256 257
3 258 259 260
3 261 262 263
3 264 265 266
3 267 268 269
3 270 271 272
3 273 274 275
3 276 277 278
3 279 280 281
3 282 283 284
3 285 286 287
3 288 289 290
3 291 292 293
3 294 295 296
3 297 298 299
3 300 301 302
3 303 304 305
3 306 307 308
3 309 310 311
3 312 313 314
3 315 316 317
3 318 319 320
3 321 322 323
3 324 325 326
3 327 328 329
3 330 331 332
3 333 334 335
3 336 337 338
3 339 340 341
3 342 343 344
3 345 346 347
3 348 349 350
3 351 352 353
3 354 355 356
3 357 358 359
3 360 361 362
3 363 364 365
3 366 367 368
3 369 370 371
3 372 373 374
3 375 376 377
3 378 379 380
3 381 382 383
3 384 385 386
3 387 388 389
3 390 391 392
3 393 394 395
3 396 397 398
3 399 400 401
3 402 403 404
3 405 406 407
3 408 409 410
3 411 412 413
3 414 415 416
3 417 418 419
3 420 421 422
3 423 424 425
3 426 427 428
3 429 430 431
3 432 433 434
3 435 436 437
3 438 439 440
3 441 442 443
3 444 445 446
3 447 448 449
3 450 451 452
3 453 454 455
3 456 457 458
3 459 460 461
3 462 463 464
3 465 466 467
3 468 469 470
3 471 472 473
3 474 475 476
3 477 478 479
3 480 481 482
3 483 484 485
3 486 487 488
3 489 490 491
3 492 493 494
3 495 496 497
3 498 499 500
3 501 502 503
3 504 505 506
3 507 508 509
3 510 511 512
3 513 514 515
3 516 517 518
3 519 520 521
3 522 523 524
3 525 526 527
3 528 529 530
3 531 532 533
3 534 535 536
3 537 538 539
3 540 541 542
3 543 544 545
3 546 547 548
3 549 550 551
3 552 553 554
3 555 556 557
3 558 559 560
3 561 562 563
3 564 565 566
3 567 568 569
3 570 571 572
3 573 574 575
3 576 577 578
3 579 580 581
3 582 583 584
3 585 586 587
3 588 589 590
3 591 592 593
3 594 595 596
3 597 598 599
3 600 601 602
3 603 604 605
3 606 607 608
3 609 610 611
3 612 613 614
3 615 616 617
3 618 619 620
3 621 622 623
3 624 625 626
3 627 628 629
3 630 631 632
3 633 634 635
3 636 637 638
3 639 640 641
3 642 643 644
3 645 646 647
3 648 649 650
3 651 652 653
3 654 655 656
3 657 658 659
3 660 661 662
3 663 664 665
3 666 667 668
3 669 670 671
3 672 673 674
3 675 676 677
3 678 679 680
3 681 682 683
3 684 685 686
3 687 688 689
3 690 691 692
3 693 694 695
3 696 697 698
3 699 700 701
3 702 703 704
3 705 706 707
3 708 709 710
3 711 712 713
3 714 715 716
3 717 718 719
3 720 721 722
3 723 724 725
3 726 727 728
3 729 730 731
3 732 733 734
3 735 736 737
3 738 739 740
3 741 742 743
3 744 745 746
3 747 748 749
3 750 751 752
3 753 754 755
3 756 757 758
3 759 760 761
3 762 763 764
3 765 766 767
3 768 769 770
3 771 772 773
3 774 775 776
3 777 778 779
3 780 781 782
3 783 784 785
3 786 787 788
3 789 790 791
3 792 793 794
3 795 796 797
3 798 799 800
3 801 802 803
3 804 805 806
3 807 808 809
3 810 811 812
3 813 814 815
3 816 817 818
3 819 820 821
3 822 823 824
3 825 826 827
3 828 829 830
3 831 832 833
3 834 835 836
3 837 838 839
3 840 841 842
3 843 844 845
3 846 847 848
3 849 850 851
3 852 853 854
3 855 856 857
3 858 859 860
3 861 862 863
3 864 865 866
3 867 868 869
3 870 871 872
3 873 874 875
3 876 877 878
3 879 880 881
3 882 883 884
3 885 886 887
3 888 889 890
3 891 892 893
3 894 895 896
3 897 898 899
3 900 901 902
3 903 904 905
3 906 907 908
3 909 910 911
3 912 913 914
3 915 916 917
3 918 919 920
3 921 922 923
3 924 925 926
3 927 928 929
3 930 931 932
3 933 934 935
3 936 937 938
3 939 940 941
3 942 943 944
3 945 946 947
3 948 949 950
3 951 952 953
3 954 955 956
3 957 958 959
3 960 961 962
3 963 964 965
3 966 967 968
3 969 970 971
3 972 973 974
3 975 976 977
3 978 979 980
3 981 982 983
3 984 985 986
3 987 988 989
3 990 991 992
3 993 994 995
3 996 997 998
3 999 1000 1001
3 1002 1003 1004
3 1005 1006 1007
3 1008 1009 1010
3 1011 1012 1013
3 1014 1015 1016
3 1017 1018 1019
3 1020 1021 1022
3 1023 1024 1025
3 1026 1027 1028
3 1029 1030 1031
3 1032 1033 1034
3 1035 1036 1037
3 1038 1039 1040
3 1041 1042 1043
3 1044 1045 1046
3 1047 1048 1049
3 1050 1051 1052
3 1053 1054 1055
3 1056 1057 1058
3 1059 1060 1061
3 1062 1063 1064
3 1065 1066 1067
3 1068 1069 1070
3 1071 1072 1073
3 1074 1075 1076
3 1077 1078 1079
3 1080 1081 1082
3 1083 1084 1085
3 1086 1087 1088
3 1089 1090 1091
3 1092 1093 1094
3 1095 1096 1097
3 1098 1099 1100
3 1101 1102 1103
3 1104 1105 1106
3 1107 1108 1109
3 1110 1111 1112
3 1113 1114 1115
3 1116 1117 1118
3 1119 1120 1121
3 1122 1123 1124
3 1125 1126 1127
3 1128 1129 1130
3 1131 1132 1133
3 1134 1135 1136
3 1137 1138 1139
3 1140 1141 1142
3 1143 1144 1145
3 1146 1147 1148
3 1149 1150 1151
3 1152 1153 1154
3 1155 1156 1157
3 1158 1159 1160
3 1161 1162 1163
3 1164 1165 1166
3 1167 1168 1169
3 1170 1171 1172
3 1173 1174 1175
3 1176 1177 1178
3 1179 1180 1181
3 1182 1183 1184
3 1185 1186 1187
3 1188 1189 1190
3 1191 1192 1193
3 1194 1195 1196
3 1197 1198 1199
