ply
format ascii 1.0
element vertex 12
property float x
property float y
property float z
element face 4
property list uchar int vertex_indices
end_header
13.050000000000001 0 2.1000000000000001
13.949999999999999 0 0
13.050000000000001 0 0
13.949999999999999 0 0
13.050000000000001 0 2.1000000000000001
13.949999999999999 0 2.1000000000000001
31.049999999999997 0 2.1000000000000001
31.949999999999996 0 0
31.049999999999997 0 0
31.949999999999996 0 0
31.049999999999997 0 2.1000000000000001
31.949999999999996 0 2.1000000000000001
3 0 1 2
3 3 4 5
3 6 7 8
3 9 10 11
