ply
format ascii 1.0
element vertex 24
property float x
property float y
property float z
element face 8
property list uchar int vertex_indices
end_header
5.6999999999999993 7 1.8
8.6999999999999993 7 0
5.6999999999999993 7 0
8.6999999999999993 7 0
5.6999999999999993 7 1.8
8.6999999999999993 7 1.8
13.200000000000001 10.5 0
13.200000000000001 13.5 1.8
13.200000000000001 10.5 1.8
13.200000000000001 13.5 1.8
13.200000000000001 10.5 0
13.200000000000001 13.5 0
15.299999999999997 6 1.8
18.299999999999997 6 0
15.299999999999997 6 0
18.299999999999997 6 0
15.299999999999997 6 1.8
18.299999999999997 6 1.8
9.6000000000000014 12.5 0
9.6000000000000014 15.5 1.8
9.6000000000000014 12.5 1.8
9.6000000000000014 15.5 1.8
9.6000000000000014 12.5 0
9.6000000000000014 15.5 0
3 0 1 2
3 3 4 5
3 6 7 8
3 9 10 11
3 12 13 14
3 15 16 17
3 18 19 20
3 21 22 23
