ply
format ascii 1.0
element vertex 6
property float x
property float y
property float z
element face 2
property list uchar int vertex_indices
end_header
6.7728058661094517 1.8916502567037072 2.6966201635957505
6.7728058661094517 3.2916502567037069 1.6966201635957505
6.7728058661094517 1.8916502567037072 1.6966201635957505
6.7728058661094517 3.2916502567037069 1.6966201635957505
6.7728058661094517 1.8916502567037072 2.6966201635957505
6.7728058661094517 3.2916502567037069 2.6966201635957505
3 0 1 2
3 3 4 5
