ply
format ascii 1.0
element vertex 48
property float x
property float y
property float z
element face 16
property list uchar int vertex_indices
end_header
0 4.7120913758249214 3.3794156363011547
6.7728058661094517 0 3.3794156363011547
0 0 3.3794156363011547
6.7728058661094517 0 3.3794156363011547
0 4.7120913758249214 3.3794156363011547
6.7728058661094517 4.7120913758249214 3.3794156363011547
0 0 0
0 4.7120913758249214 3.3794156363011547
0 0 3.3794156363011547
0 4.7120913758249214 3.3794156363011547
0 0 0
0 4.7120913758249214 0
6.7728058661094517 0 0
0 0 0
0 0 3.3794156363011547
0 0 3.3794156363011547
6.7728058661094517 0 3.3794156363011547
6.7728058661094517 0 0
6.7728058661094517 4.7120913758249214 3.3794156363011547
0 4.7120913758249214 3.3794156363011547
0 4.7120913758249214 0
0 4.7120913758249214 0
6.7728058661094517 4.7120913758249214 0
6.7728058661094517 4.7120913758249214 3.3794156363011547
6.7728058661094517 1.8916502567037072 0
6.7728058661094517 0 0
6.7728058661094517 0 3.3794156363011547
6.7728058661094517 0 3.3794156363011547
6.7728058661094517 1.8916502567037072 3.3794156363011547
6.7728058661094517 1.8916502567037072 0
6.7728058661094517 3.2916502567037069 3.3794156363011547
6.7728058661094517 4.7120913758249214 0
6.7728058661094517 3.2916502567037069 0
6.7728058661094517 4.7120913758249214 0
6.7728058661094517 3.2916502567037069 3.3794156363011547
6.7728058661094517 4.7120913758249214 3.3794156363011547
6.7728058661094517 1.8916502567037072 1.6966201635957505
6.7728058661094517 3.2916502567037069 0
6.7728058661094517 1.8916502567037072 0
6.7728058661094517 3.2916502567037069 0
6.7728058661094517 1.8916502567037072 1.6966201635957505
6.7728058661094517 3.2916502567037069 1.6966201635957505
6.7728058661094517 1.8916502567037072 3.3794156363011547
6.7728058661094517 3.2916502567037069 2.6966201635957505
6.7728058661094517 1.8916502567037072 2.6966201635957505
6.7728058661094517 3.2916502567037069 2.6966201635957505
6.7728058661094517 1.8916502567037072 3.3794156363011547
6.7728058661094517 3.2916502567037069 3.3794156363011547
3 0 1 2
3 3 4 5
3 6 7 8
3 9 10 11
3 12 13 14
3 15 16 17
3 18 19 20
3 21 22 23
3 24 25 26
3 27 28 29
3 30 31 32
3 33 34 35
3 36 37 38
3 39 40 41
3 42 43 44
3 45 46 47
