ply
format ascii 1.0
element vertex 6
property float x
property float y
property float z
element face 2
property list uchar int vertex_indices
end_header
6.2651840547570092 1.6025184247103577 2.5105170236693417
6.2651840547570092 3.0025184247103578 1.5105170236693417
6.2651840547570092 1.6025184247103577 1.5105170236693417
6.2651840547570092 3.0025184247103578 1.5105170236693417
6.2651840547570092 1.6025184247103577 2.5105170236693417
6.2651840547570092 3.0025184247103578 2.5105170236693417
3 0 1 2
3 3 4 5
