ply
format ascii 1.0
element vertex 48
property float x
property float y
property float z
element face 16
property list uchar int vertex_indices
end_header
0 4.1863971358370131 3.0931031133374485
6.2651840547570092 0 3.0931031133374485
0 0 3.0931031133374485
6.2651840547570092 0 3.0931031133374485
0 4.1863971358370131 3.0931031133374485
6.2651840547570092 4.1863971358370131 3.0931031133374485
0 0 0
0 4.1863971358370131 3.0931031133374485
0 0 3.0931031133374485
0 4.1863971358370131 3.0931031133374485
0 0 0
0 4.1863971358370131 0
6.2651840547570092 0 0
0 0 0
0 0 3.0931031133374485
0 0 3.0931031133374485
6.2651840547570092 0 3.0931031133374485
6.2651840547570092 0 0
6.2651840547570092 4.1863971358370131 3.0931031133374485
0 4.1863971358370131 3.0931031133374485
0 4.1863971358370131 0
0 4.1863971358370131 0
6.2651840547570092 4.1863971358370131 0
6.2651840547570092 4.1863971358370131 3.0931031133374485
6.2651840547570092 0 3.0931031133374485
6.2651840547570092 1.6025184247103577 0
6.2651840547570092 0 0
6.2651840547570092 1.6025184247103577 0
6.2651840547570092 0 3.0931031133374485
6.2651840547570092 1.6025184247103577 3.0931031133374485
6.2651840547570092 3.0025184247103578 3.0931031133374485
6.2651840547570092 4.1863971358370131 0
6.2651840547570092 3.0025184247103578 0
6.2651840547570092 4.1863971358370131 0
6.2651840547570092 3.0025184247103578 3.0931031133374485
6.2651840547570092 4.1863971358370131 3.0931031133374485
6.2651840547570092 1.6025184247103577 1.5105170236693417
6.2651840547570092 3.0025184247103578 0
6.2651840547570092 1.6025184247103577 0
6.2651840547570092 3.0025184247103578 0
6.2651840547570092 1.6025184247103577 1.5105170236693417
6.2651840547570092 3.0025184247103578 1.5105170236693417
6.2651840547570092 1.6025184247103577 3.0931031133374485
6.2651840547570092 3.0025184247103578 2.5105170236693417
6.2651840547570092 1.6025184247103577 2.5105170236693417
6.2651840547570092 3.0025184247103578 2.5105170236693417
6.2651840547570092 1.6025184247103577 3.0931031133374485
6.2651840547570092 3.0025184247103578 3.0931031133374485
3 0 1 2
3 3 4 5
3 6 7 8
3 9 10 11
3 12 13 14
3 15 16 17
3 18 19 20
3 21 22 23
3 24 25 26
3 27 28 29
3 30 31 32
3 33 34 35
3 36 37 38
3 39 40 41
3 42 43 44
3 45 46 47
