ply
format ascii 1.0
element vertex 12
property float x
property float y
property float z
element face 4
property list uchar int vertex_indices
end_header
8.5500000000000007 0 2.1000000000000001
9.4499999999999993 0 0
8.5500000000000007 0 0
9.4499999999999993 0 0
8.5500000000000007 0 2.1000000000000001
9.4499999999999993 0 2.1000000000000001
20.550000000000001 0 2.1000000000000001
21.449999999999999 0 0
20.550000000000001 0 0
21.449999999999999 0 0
20.550000000000001 0 2.1000000000000001
21.449999999999999 0 2.1000000000000001
3 0 1 2
3 3 4 5
3 6 7 8
3 9 10 11
