ply
format ascii 1.0
element vertex 6
property float x
property float y
property float z
element face 2
property list uchar int vertex_indices
end_header
6.4291876767918108 1.772906404171102 2.5739379047621167
6.4291876767918108 3.1729064041711021 1.5739379047621167
6.4291876767918108 1.772906404171102 1.5739379047621167
6.4291876767918108 3.1729064041711021 1.5739379047621167
6.4291876767918108 1.772906404171102 2.5739379047621167
6.4291876767918108 3.1729064041711021 2.5739379047621167
3 0 1 2
3 3 4 5
