ply
format ascii 1.0
element vertex 48
property float x
property float y
property float z
element face 16
property list uchar int vertex_indices
end_header
0 4.4961934621292761 3.1906736996340257
6.4291876767918108 0 3.1906736996340257
0 0 3.1906736996340257
6.4291876767918108 0 3.1906736996340257
0 4.4961934621292761 3.1906736996340257
6.4291876767918108 4.4961934621292761 3.1906736996340257
0 0 0
0 4.4961934621292761 3.1906736996340257
0 0 3.1906736996340257
0 4.4961934621292761 3.1906736996340257
0 0 0
0 4.4961934621292761 0
0 0 3.1906736996340257
6.4291876767918108 0 0
0 0 0
6.4291876767918108 0 0
0 0 3.1906736996340257
6.4291876767918108 0 3.1906736996340257
0 4.4961934621292761 0
6.4291876767918108 4.4961934621292761 3.1906736996340257
0 4.4961934621292761 3.1906736996340257
6.4291876767918108 4.4961934621292761 3.1906736996340257
0 4.4961934621292761 0
6.4291876767918108 4.4961934621292761 0
6.4291876767918108 0 3.1906736996340257
6.4291876767918108 1.772906404171102 0
6.4291876767918108 0 0
6.4291876767918108 1.772906404171102 0
6.4291876767918108 0 3.1906736996340257
6.4291876767918108 1.772906404171102 3.1906736996340257
6.4291876767918108 4.4961934621292761 0
6.4291876767918108 3.1729064041711021 0
6.4291876767918108 3.1729064041711021 3.1906736996340257
6.4291876767918108 3.1729064041711021 3.1906736996340257
6.4291876767918108 4.4961934621292761 3.1906736996340257
6.4291876767918108 4.4961934621292761 0
6.4291876767918108 1.772906404171102 1.5739379047621167
6.4291876767918108 3.1729064041711021 0
6.4291876767918108 1.772906404171102 0
6.4291876767918108 3.1729064041711021 0
6.4291876767918108 1.772906404171102 1.5739379047621167
6.4291876767918108 3.1729064041711021 1.5739379047621167
6.4291876767918108 3.1729064041711021 2.5739379047621167
6.4291876767918108 1.772906404171102 2.5739379047621167
6.4291876767918108 1.772906404171102 3.1906736996340257
6.4291876767918108 1.772906404171102 3.1906736996340257
6.4291876767918108 3.1729064041711021 3.1906736996340257
6.4291876767918108 3.1729064041711021 2.5739379047621167
3 0 1 2
3 3 4 5
3 6 7 8
3 9 10 11
3 12 13 14
3 15 16 17
3 18 19 20
3 21 22 23
3 24 25 26
3 27 28 29
3 30 31 32
3 33 34 35
3 36 37 38
3 39 40 41
3 42 43 44
3 45 46 47
