ply
format ascii 1.0
element vertex 24
property float x
property float y
property float z
element face 8
property list uchar int vertex_indices
end_header
3.8999999999999995 5.5999999999999996 1.8
6.8999999999999995 5.5999999999999996 0
3.8999999999999995 5.5999999999999996 0
6.8999999999999995 5.5999999999999996 0
3.8999999999999995 5.5999999999999996 1.8
6.8999999999999995 5.5999999999999996 1.8
9.9000000000000004 8.0999999999999996 0
9.9000000000000004 11.1 1.8
9.9000000000000004 8.0999999999999996 1.8
9.9000000000000004 11.1 1.8
9.9000000000000004 8.0999999999999996 0
9.9000000000000004 11.1 0
11.1 4.7999999999999998 1.8
14.1 4.7999999999999998 0
11.1 4.7999999999999998 0
14.1 4.7999999999999998 0
11.1 4.7999999999999998 1.8
14.1 4.7999999999999998 1.8
7.2000000000000002 9.6999999999999993 0
7.2000000000000002 12.699999999999999 1.8
7.2000000000000002 9.6999999999999993 1.8
7.2000000000000002 12.699999999999999 1.8
7.2000000000000002 9.6999999999999993 0
7.2000000000000002 12.699999999999999 0
3 0 1 2
3 3 4 5
3 6 7 8
3 9 10 11
3 12 13 14
3 15 16 17
3 18 19 20
3 21 22 23
