ply
format ascii 1.0
element vertex 1200
property float x
property float y
property float z
element face 400
property list uchar int vertex_indices
end_header
8.0165694622006676 7.1973621389214131 0.46000000000000002
8.0165694622006676 7.1973621389214131 0.39999999999999991
8.0581537538361196 7.1379736157104601 0.39999999999999991
7.8000443574781482 7.506592035640506 0.48999999999999999
7.6451787196633658 7.7277630875985341 0.39999999999999991
7.9735512294743396 7.2587985422430865 0.39999999999999991
7.8000443574781482 7.506592035640506 0.48999999999999999
7.8000443574781482 7.506592035640506 0.54000000000000004
7.6451787196633658 7.7277630875985341 0.54000000000000004
7.9735512294743396 7.2587985422430865 0.46000000000000002
8.0165694622006676 7.1973621389214131 0.46000000000000002
8.0581537538361196 7.1379736157104601 0.54000000000000004
8.0581537538361196 7.1379736157104601 0.39999999999999991
8.0581537538361196 7.1379736157104601 0.54000000000000004
8.0165694622006676 7.1973621389214131 0.46000000000000002
7.6451787196633658 7.7277630875985341 0.54000000000000004
7.6451787196633658 7.7277630875985341 0.39999999999999991
7.8000443574781482 7.506592035640506 0.48999999999999999
8.0581537538361196 7.1379736157104601 0.54000000000000004
7.8344589436592109 7.4574429129831667 0.54000000000000004
7.9735512294743396 7.2587985422430865 0.46000000000000002
7.8344589436592109 7.4574429129831667 0.48999999999999999
7.8000443574781482 7.506592035640506 0.48999999999999999
7.9735512294743396 7.2587985422430865 0.39999999999999991
7.8344589436592109 7.4574429129831667 0.54000000000000004
7.8344589436592109 7.4574429129831667 0.48999999999999999
7.9735512294743396 7.2587985422430865 0.46000000000000002
7.9735512294743396 7.2587985422430865 0.39999999999999991
7.9735512294743396 7.2587985422430865 0.46000000000000002
7.8344589436592109 7.4574429129831667 0.48999999999999999
8.5390479283369789 7.6547635936194123 0.46000000000000002
8.3999556425218511 7.8534079643594925 0.48999999999999999
8.3999556425218511 7.8534079643594925 0.54000000000000004
8.3655410563407884 7.9025570870168327 0.48999999999999999
8.2106754185260051 8.1237281389748599 0.54000000000000004
8.3655410563407884 7.9025570870168327 0.54000000000000004
8.3655410563407884 7.9025570870168327 0.48999999999999999
8.5390479283369789 7.6547635936194123 0.39999999999999991
8.2106754185260051 8.1237281389748599 0.39999999999999991
8.5820661610633078 7.5933271902977379 0.46000000000000002
8.6236504526987581 7.5339386670867867 0.39999999999999991
8.5820661610633078 7.5933271902977379 0.39999999999999991
8.2106754185260051 8.1237281389748599 0.39999999999999991
8.2106754185260051 8.1237281389748599 0.54000000000000004
8.3655410563407884 7.9025570870168327 0.48999999999999999
8.5820661610633078 7.5933271902977379 0.46000000000000002
8.6236504526987581 7.5339386670867867 0.54000000000000004
8.6236504526987581 7.5339386670867867 0.39999999999999991
8.3999556425218511 7.8534079643594925 0.48999999999999999
8.5390479283369789 7.6547635936194123 0.39999999999999991
8.3655410563407884 7.9025570870168327 0.48999999999999999
8.5390479283369789 7.6547635936194123 0.46000000000000002
8.6236504526987581 7.5339386670867867 0.54000000000000004
8.5820661610633078 7.5933271902977379 0.46000000000000002
8.3999556425218511 7.8534079643594925 0.48999999999999999
8.5390479283369789 7.6547635936194123 0.46000000000000002
8.5390479283369789 7.6547635936194123 0.39999999999999991
8.3999556425218511 7.8534079643594925 0.54000000000000004
8.6236504526987581 7.5339386670867867 0.54000000000000004
8.5390479283369789 7.6547635936194123 0.46000000000000002
8.6236504526987581 7.5339386670867867 0.39999999999999991
8.0581537538361196 7.1379736157104601 0.54000000000000004
8.0581537538361196 7.1379736157104601 0.39999999999999991
8.0581537538361196 7.1379736157104601 0.54000000000000004
8.6236504526987581 7.5339386670867867 0.39999999999999991
8.6236504526987581 7.5339386670867867 0.54000000000000004
7.6451787196633658 7.7277630875985341 0.39999999999999991
8.2106754185260051 8.1237281389748599 0.53000000000000003
8.2106754185260051 8.1237281389748599 0.39999999999999991
8.2106754185260051 8.1237281389748599 0.53000000000000003
7.6451787196633658 7.7277630875985341 0.39999999999999991
7.6451787196633658 7.7277630875985341 0.53000000000000003
8.0390961434186163 7.2131354909210659 0.39999999999999991
8.0581537538361196 7.1379736157104601 0.39999999999999991
8.0165694622006693 7.1973621389214122 0.39999999999999991
8.5165212471190319 7.6389902416197586 0.39999999999999991
8.2106754185260051 8.1237281389748599 0.39999999999999991
8.5390479283369789 7.6547635936194123 0.39999999999999991
7.9960779106922875 7.2745718942427402 0.39999999999999991
7.9735512294743405 7.2587985422430856 0.39999999999999991
7.6451787196633658 7.7277630875985341 0.39999999999999991
8.0390961434186163 7.2131354909210659 0.39999999999999991
8.6236504526987581 7.5339386670867867 0.39999999999999991
8.0581537538361196 7.1379736157104601 0.39999999999999991
8.6236504526987581 7.5339386670867867 0.39999999999999991
8.5595394798453608 7.5775538382980834 0.39999999999999991
8.5820661610633078 7.5933271902977379 0.39999999999999991
7.6451787196633658 7.7277630875985341 0.39999999999999991
8.2106754185260051 8.1237281389748599 0.39999999999999991
7.9960779106922875 7.2745718942427402 0.39999999999999991
8.5595394798453608 7.5775538382980834 0.39999999999999991
8.6236504526987581 7.5339386670867867 0.39999999999999991
8.0390961434186163 7.2131354909210659 0.39999999999999991
8.5165212471190319 7.6389902416197586 0.39999999999999991
7.9960779106922875 7.2745718942427402 0.39999999999999991
8.2106754185260051 8.1237281389748599 0.39999999999999991
8.5165212471190319 7.6389902416197586 0.39999999999999991
8.5595394798453608 7.5775538382980834 0.39999999999999991
8.0390961434186163 7.2131354909210659 0.39999999999999991
8.0390961434186163 7.2131354909210659 0.39999999999999991
7.9960779106922875 7.2745718942427402 0.39999999999999991
8.5165212471190319 7.6389902416197586 0.39999999999999991
7.8508419845449913 7.4689144417101874 0.54000000000000004
7.8344589436592109 7.4574429129831667 0.54000000000000004
8.0581537538361196 7.1379736157104601 0.54000000000000004
7.8164273983639276 7.5180635643675275 0.54000000000000004
7.6451787196633658 7.7277630875985341 0.54000000000000004
7.8000443574781482 7.5065920356405069 0.54000000000000004
8.3491580154550089 7.8910855582898121 0.54000000000000004
8.3655410563407866 7.9025570870168327 0.54000000000000004
8.2106754185260051 8.1237281389748599 0.54000000000000004
8.3835726016360717 7.8419364356324719 0.54000000000000004
8.6236504526987581 7.5339386670867867 0.54000000000000004
8.3999556425218511 7.8534079643594925 0.54000000000000004
8.0581537538361196 7.1379736157104601 0.54000000000000004
8.6236504526987581 7.5339386670867867 0.54000000000000004
7.8508419845449913 7.4689144417101874 0.54000000000000004
8.2106754185260051 8.1237281389748599 0.54000000000000004
7.6451787196633658 7.7277630875985341 0.54000000000000004
7.8164273983639276 7.5180635643675275 0.54000000000000004
8.3835726016360717 7.8419364356324719 0.54000000000000004
7.8508419845449913 7.4689144417101874 0.54000000000000004
8.6236504526987581 7.5339386670867867 0.54000000000000004
8.2106754185260051 8.1237281389748599 0.54000000000000004
7.8164273983639276 7.5180635643675275 0.54000000000000004
8.3491580154550089 7.8910855582898121 0.54000000000000004
7.8164273983639276 7.5180635643675275 0.54000000000000004
7.8508419845449913 7.4689144417101874 0.54000000000000004
8.3835726016360717 7.8419364356324719 0.54000000000000004
8.3835726016360717 7.8419364356324719 0.54000000000000004
8.3491580154550089 7.8910855582898121 0.54000000000000004
7.8164273983639276 7.5180635643675275 0.54000000000000004
7.5677459007559751 7.8383486135775478 0.7400000000000001
7.5677459007559751 7.8383486135775478 1.01
7.5648780185742197 7.8424443737989931 1.01
7.6078962513005477 7.7810079704773187 0.7400000000000001
7.6451787196633658 7.7277630875985341 1.01
7.6078962513005477 7.7810079704773187 1.01
7.5648780185742197 7.8424443737989931 1.01
7.5648780185742197 7.8424443737989931 0.53000000000000014
7.5677459007559751 7.8383486135775478 0.7400000000000001
7.6078962513005477 7.7810079704773187 0.7400000000000001
7.6451787196633658 7.7277630875985341 0.53000000000000014
7.6451787196633658 7.7277630875985341 1.01
7.6078962513005477 7.7810079704773187 0.7400000000000001
7.5677459007559751 7.8383486135775478 0.7400000000000001
7.5648780185742197 7.8424443737989931 0.53000000000000014
7.5648780185742197 7.8424443737989931 0.53000000000000014
7.6451787196633658 7.7277630875985341 0.53000000000000014
7.6078962513005477 7.7810079704773187 0.7400000000000001
8.173392950163187 8.1769730218536445 0.73999999999999999
8.173392950163187 8.1769730218536445 1.01
8.2106754185260051 8.1237281389748599 1.01
8.1332425996186153 8.2343136649538735 0.73999999999999999
8.1303747174368599 8.2384094251753197 1.01
8.1332425996186153 8.2343136649538735 1.01
8.2106754185260051 8.1237281389748599 1.01
8.2106754185260051 8.1237281389748599 0.53000000000000003
8.173392950163187 8.1769730218536445 0.73999999999999999
8.1332425996186153 8.2343136649538735 0.73999999999999999
8.1303747174368599 8.2384094251753197 0.53000000000000003
8.1303747174368599 8.2384094251753197 1.01
8.1303747174368599 8.2384094251753197 0.53000000000000003
8.173392950163187 8.1769730218536445 0.73999999999999999
8.2106754185260051 8.1237281389748599 0.53000000000000003
8.173392950163187 8.1769730218536445 0.73999999999999999
8.1303747174368599 8.2384094251753197 0.53000000000000003
8.1332425996186153 8.2343136649538735 0.73999999999999999
7.6451787196633658 7.7277630875985341 1.01
8.2106754185260051 8.1237281389748599 0.54000000000000004
8.2106754185260051 8.1237281389748599 1.01
8.2106754185260051 8.1237281389748599 0.54000000000000004
7.6451787196633658 7.7277630875985341 1.01
7.6451787196633658 7.7277630875985341 0.54000000000000004
7.5648780185742197 7.8424443737989931 0.53000000000000003
8.1303747174368599 8.2384094251753197 1.01
8.1303747174368599 8.2384094251753197 0.53000000000000003
8.1303747174368599 8.2384094251753197 1.01
7.5648780185742197 7.8424443737989931 0.53000000000000003
7.5648780185742197 7.8424443737989931 1.01
7.5648780185742197 7.8424443737989931 0.53000000000000003
8.2106754185260051 8.1237281389748599 0.53000000000000003
7.6451787196633658 7.7277630875985341 0.53000000000000003
8.2106754185260051 8.1237281389748599 0.53000000000000003
7.5648780185742197 7.8424443737989931 0.53000000000000003
8.1303747174368599 8.2384094251753197 0.53000000000000003
8.2106754185260051 8.1237281389748599 1.01
7.6078962513005477 7.7810079704773178 1.01
7.6451787196633658 7.7277630875985341 1.01
7.6078962513005477 7.7810079704773178 1.01
8.2106754185260051 8.1237281389748599 1.01
8.173392950163187 8.1769730218536445 1.01
7.5648780185742197 7.8424443737989931 1.01
8.1332425996186153 8.2343136649538753 1.01
8.1303747174368599 8.2384094251753197 1.01
8.1332425996186153 8.2343136649538753 1.01
7.5648780185742197 7.8424443737989931 1.01
7.5677459007559742 7.8383486135775478 1.01
7.9958930983096934 7.1310014730398219 0.745
7.6058611215909817 7.6880248631563362 0.65499999999999992
7.9958930983096934 7.1310014730398219 0.65499999999999992
7.6058611215909817 7.6880248631563362 0.65499999999999992
7.9958930983096934 7.1310014730398219 0.745
7.6058611215909817 7.6880248631563362 0.745
7.6795848055769911 7.7396467424279303 0.745
8.0696167822957019 7.182623352311416 0.745
8.0696167822957019 7.182623352311416 0.65499999999999992
8.0696167822957019 7.182623352311416 0.65499999999999992
7.6795848055769911 7.7396467424279303 0.65499999999999992
7.6795848055769911 7.7396467424279303 0.745
8.0696167822957019 7.182623352311416 0.65499999999999992
7.9958930983096934 7.1310014730398219 0.745
7.9958930983096934 7.1310014730398219 0.65499999999999992
7.9958930983096934 7.1310014730398219 0.745
8.0696167822957019 7.182623352311416 0.65499999999999992
8.0696167822957019 7.182623352311416 0.745
7.6058611215909817 7.6880248631563362 0.65499999999999992
7.6795848055769911 7.7396467424279303 0.745
7.6795848055769911 7.7396467424279303 0.65499999999999992
7.6795848055769911 7.7396467424279303 0.745
7.6058611215909817 7.6880248631563362 0.65499999999999992
7.6058611215909817 7.6880248631563362 0.745
7.6058611215909817 7.6880248631563362 0.65499999999999992
7.7672782757065884 7.4836489781864648 0.65499999999999992
7.8016928618876511 7.4344998555291246 0.65499999999999992
7.8508419845449913 7.4689144417101874 0.65499999999999992
7.9958930983096934 7.1310014730398219 0.65499999999999992
7.8016928618876511 7.4344998555291246 0.65499999999999992
7.8016928618876511 7.4344998555291246 0.65499999999999992
7.9958930983096934 7.1310014730398219 0.65499999999999992
7.6058611215909817 7.6880248631563362 0.65499999999999992
7.8508419845449913 7.4689144417101874 0.65499999999999992
8.0696167822957019 7.182623352311416 0.65499999999999992
7.9958930983096934 7.1310014730398219 0.65499999999999992
7.6795848055769911 7.7396467424279303 0.65499999999999992
7.7672782757065884 7.4836489781864648 0.65499999999999992
7.6058611215909817 7.6880248631563362 0.65499999999999992
7.6795848055769911 7.7396467424279303 0.65499999999999992
8.0696167822957019 7.182623352311416 0.65499999999999992
7.8508419845449913 7.4689144417101874 0.65499999999999992
7.6795848055769911 7.7396467424279303 0.65499999999999992
7.8164273983639285 7.5180635643675275 0.65499999999999992
7.7672782757065884 7.4836489781864648 0.65499999999999992
7.8508419845449913 7.4689144417101874 0.65499999999999992
7.8164273983639285 7.5180635643675275 0.65499999999999992
7.6795848055769911 7.7396467424279303 0.65499999999999992
8.0696167822957019 7.182623352311416 0.745
7.679584805576992 7.7396467424279303 0.745
7.6058611215909817 7.6880248631563362 0.745
7.6058611215909817 7.6880248631563362 0.745
7.9958930983096934 7.1310014730398219 0.745
8.0696167822957019 7.182623352311416 0.745
7.8016928618876511 7.4344998555291246 0.48999999999999999
7.7672782757065884 7.4836489781864648 0.65499999999999992
7.7672782757065884 7.4836489781864648 0.48999999999999999
7.7672782757065884 7.4836489781864648 0.65499999999999992
7.8016928618876511 7.4344998555291246 0.48999999999999999
7.8016928618876511 7.4344998555291246 0.65499999999999992
7.8164273983639285 7.5180635643675275 0.54000000000000004
7.8508419845449913 7.4689144417101874 0.65499999999999992
7.8508419845449913 7.4689144417101874 0.54000000000000004
7.8508419845449913 7.4689144417101874 0.65499999999999992
7.8164273983639285 7.5180635643675275 0.54000000000000004
7.8164273983639285 7.5180635643675275 0.65499999999999992
7.8344589436592109 7.4574429129831667 0.54000000000000004
7.8016928618876511 7.4344998555291246 0.48999999999999999
7.8344589436592109 7.4574429129831667 0.48999999999999999
7.8344589436592109 7.4574429129831667 0.54000000000000004
7.8508419845449913 7.4689144417101874 0.65499999999999992
7.8016928618876511 7.4344998555291246 0.65499999999999992
7.8508419845449913 7.4689144417101874 0.65499999999999992
7.8344589436592109 7.4574429129831667 0.54000000000000004
7.8508419845449913 7.4689144417101874 0.54000000000000004
7.8016928618876511 7.4344998555291246 0.65499999999999992
7.8016928618876511 7.4344998555291246 0.48999999999999999
7.8344589436592109 7.4574429129831667 0.54000000000000004
7.7672782757065884 7.4836489781864648 0.48999999999999999
7.8000443574781482 7.506592035640506 0.54000000000000004
7.8000443574781482 7.506592035640506 0.48999999999999999
7.8000443574781482 7.506592035640506 0.54000000000000004
7.8164273983639285 7.5180635643675275 0.65499999999999992
7.8164273983639285 7.5180635643675275 0.54000000000000004
7.8000443574781482 7.506592035640506 0.54000000000000004
7.7672782757065884 7.4836489781864648 0.48999999999999999
7.7672782757065884 7.4836489781864648 0.65499999999999992
7.7672782757065884 7.4836489781864648 0.65499999999999992
7.8164273983639285 7.5180635643675275 0.65499999999999992
7.8000443574781482 7.506592035640506 0.54000000000000004
7.8000443574781482 7.5065920356405069 0.48999999999999999
7.8344589436592118 7.4574429129831667 0.48999999999999999
7.8016928618876511 7.4344998555291246 0.48999999999999999
7.8016928618876511 7.4344998555291246 0.48999999999999999
7.7672782757065884 7.4836489781864648 0.48999999999999999
7.8000443574781482 7.5065920356405069 0.48999999999999999
7.9776597400969411 7.170117258194737 0.46000000000000002
7.9346415073706131 7.2315536615164113 2.2204460492503131e-16
7.9776597400969411 7.170117258194737 2.2204460492503131e-16
7.9346415073706131 7.2315536615164113 2.2204460492503131e-16
7.9776597400969411 7.170117258194737 0.46000000000000002
7.9346415073706131 7.2315536615164113 0.46000000000000002
8.0390961434186163 7.2131354909210659 0.39999999999999997
8.0390961434186163 7.2131354909210659 0
7.9960779106922875 7.2745718942427402 0
7.9960779106922875 7.2745718942427402 0
7.9960779106922875 7.2745718942427402 0.39999999999999997
8.0390961434186163 7.2131354909210659 0.39999999999999997
8.0165694622006676 7.1973621389214113 0.39999999999999997
7.9776597400969411 7.170117258194737 0.46000000000000002
7.9776597400969411 7.170117258194737 0
7.9776597400969411 7.170117258194737 0.46000000000000002
8.0165694622006676 7.1973621389214113 0.39999999999999997
8.0165694622006676 7.1973621389214113 0.46000000000000002
8.0165694622006676 7.1973621389214113 0.39999999999999997
8.0390961434186163 7.2131354909210659 0
8.0390961434186163 7.2131354909210659 0.39999999999999997
7.9776597400969411 7.170117258194737 0
8.0390961434186163 7.2131354909210659 0
8.0165694622006676 7.1973621389214113 0.39999999999999997
7.9735512294743396 7.2587985422430856 0.39999999999999997
7.9960779106922875 7.2745718942427402 0
7.9346415073706131 7.2315536615164113 0
7.9960779106922875 7.2745718942427402 0
7.9735512294743396 7.2587985422430856 0.39999999999999997
7.9960779106922875 7.2745718942427402 0.39999999999999997
7.9735512294743396 7.2587985422430856 0.39999999999999997
7.9346415073706131 7.2315536615164113 0.46000000000000002
7.9735512294743396 7.2587985422430856 0.46000000000000002
7.9346415073706131 7.2315536615164113 0
7.9346415073706131 7.2315536615164113 0.46000000000000002
7.9735512294743396 7.2587985422430856 0.39999999999999997
7.9346415073706131 7.2315536615164113 0.46000000000000002
7.9776597400969411 7.170117258194737 0.46000000000000002
8.0165694622006693 7.1973621389214122 0.46000000000000002
8.0165694622006693 7.1973621389214122 0.46000000000000002
7.9735512294743414 7.2587985422430865 0.46000000000000002
7.9346415073706131 7.2315536615164113 0.46000000000000002
7.5618168237424328 7.7640024903042564 0
7.6048350564687617 7.702566086982582 0
7.6048350564687617 7.702566086982582 0.46000000000000002
7.6048350564687617 7.702566086982582 0.46000000000000002
7.5618168237424328 7.7640024903042564 0.46000000000000002
7.5618168237424328 7.7640024903042564 0
7.6662714597904351 7.74558431970891 0
7.6232532270641071 7.8070207230305844 0.4599999999999998
7.6662714597904351 7.74558431970891 0.4599999999999998
7.6232532270641071 7.8070207230305844 0.4599999999999998
7.6662714597904351 7.74558431970891 0
7.6232532270641071 7.8070207230305844 0
7.6662714597904351 7.74558431970891 0
7.6048350564687617 7.702566086982582 0.46000000000000002
7.6048350564687617 7.702566086982582 0
7.6048350564687617 7.702566086982582 0.46000000000000002
7.6662714597904351 7.74558431970891 0
7.6662714597904351 7.74558431970891 0.46000000000000002
7.5618168237424328 7.7640024903042564 0
7.6232532270641071 7.8070207230305844 0.46000000000000002
7.6232532270641071 7.8070207230305844 0
7.6232532270641071 7.8070207230305844 0.46000000000000002
7.5618168237424328 7.7640024903042564 0
7.5618168237424328 7.7640024903042564 0.46000000000000002
7.6048350564687617 7.702566086982582 0.46000000000000002
7.6232532270641071 7.8070207230305844 0.46000000000000002
7.5618168237424328 7.7640024903042564 0.46000000000000002
7.6232532270641071 7.8070207230305844 0.46000000000000002
7.6048350564687617 7.702566086982582 0.46000000000000002
7.6662714597904351 7.74558431970891 0.46000000000000002
8.5777728380581131 7.5384380531431692 0.745
8.1877408613394014 8.0954614432596834 0.65499999999999992
8.5777728380581131 7.5384380531431692 0.65499999999999992
8.1877408613394014 8.0954614432596834 0.65499999999999992
8.5777728380581131 7.5384380531431692 0.745
8.1877408613394014 8.0954614432596834 0.745
8.6514965220441216 7.5900599324147633 0.65499999999999992
8.2614645453254099 8.1470833225312784 0.745
8.6514965220441216 7.5900599324147633 0.745
8.2614645453254099 8.1470833225312784 0.745
8.6514965220441216 7.5900599324147633 0.65499999999999992
8.2614645453254099 8.1470833225312784 0.65499999999999992
8.6514965220441216 7.5900599324147633 0.65499999999999992
8.5777728380581131 7.5384380531431692 0.745
8.5777728380581131 7.5384380531431692 0.65499999999999992
8.5777728380581131 7.5384380531431692 0.745
8.6514965220441216 7.5900599324147633 0.65499999999999992
8.6514965220441216 7.5900599324147633 0.745
8.1877408613394014 8.0954614432596834 0.65499999999999992
8.2614645453254099 8.1470833225312784 0.745
8.2614645453254099 8.1470833225312784 0.65499999999999992
8.2614645453254099 8.1470833225312784 0.745
8.1877408613394014 8.0954614432596834 0.65499999999999992
8.1877408613394014 8.0954614432596834 0.745
8.1877408613394014 8.0954614432596834 0.65499999999999992
8.3491580154550089 7.8910855582898121 0.65499999999999992
8.3835726016360717 7.8419364356324728 0.65499999999999992
8.3835726016360717 7.8419364356324728 0.65499999999999992
8.5777728380581131 7.5384380531431683 0.65499999999999992
8.1877408613394014 8.0954614432596834 0.65499999999999992
8.3983071381123473 7.9255001444708748 0.65499999999999992
8.3491580154550089 7.8910855582898121 0.65499999999999992
8.1877408613394014 8.0954614432596834 0.65499999999999992
8.6514965220441216 7.5900599324147633 0.65499999999999992
8.5777728380581131 7.5384380531431683 0.65499999999999992
8.3835726016360717 7.8419364356324728 0.65499999999999992
8.1877408613394014 8.0954614432596834 0.65499999999999992
8.2614645453254099 8.1470833225312784 0.65499999999999992
8.3983071381123473 7.9255001444708748 0.65499999999999992
8.3835726016360717 7.8419364356324728 0.65499999999999992
8.43272172429341 7.8763510218135346 0.65499999999999992
8.6514965220441216 7.5900599324147633 0.65499999999999992
8.43272172429341 7.8763510218135346 0.65499999999999992
8.3983071381123473 7.9255001444708748 0.65499999999999992
8.2614645453254099 8.1470833225312784 0.65499999999999992
8.2614645453254099 8.1470833225312784 0.65499999999999992
8.6514965220441216 7.5900599324147633 0.65499999999999992
8.43272172429341 7.8763510218135346 0.65499999999999992
8.6514965220441216 7.5900599324147633 0.745
8.2614645453254099 8.1470833225312784 0.745
8.1877408613394014 8.0954614432596834 0.745
8.1877408613394014 8.0954614432596834 0.745
8.5777728380581131 7.5384380531431692 0.745
8.6514965220441216 7.5900599324147633 0.745
8.3491580154550089 7.8910855582898121 0.65499999999999992
8.3835726016360717 7.8419364356324719 0.54000000000000004
8.3835726016360717 7.8419364356324719 0.65499999999999992
8.3835726016360717 7.8419364356324719 0.54000000000000004
8.3491580154550089 7.8910855582898121 0.65499999999999992
8.3491580154550089 7.8910855582898121 0.54000000000000004
8.3983071381123473 7.9255001444708748 0.48999999999999999
8.43272172429341 7.8763510218135346 0.65499999999999992
8.43272172429341 7.8763510218135346 0.48999999999999999
8.43272172429341 7.8763510218135346 0.65499999999999992
8.3983071381123473 7.9255001444708748 0.48999999999999999
8.3983071381123473 7.9255001444708748 0.65499999999999992
8.43272172429341 7.8763510218135346 0.48999999999999999
8.3999556425218511 7.8534079643594934 0.54000000000000004
8.3999556425218511 7.8534079643594934 0.48999999999999999
8.3999556425218511 7.8534079643594934 0.54000000000000004
8.3835726016360717 7.8419364356324719 0.65499999999999992
8.3835726016360717 7.8419364356324719 0.54000000000000004
8.3999556425218511 7.8534079643594934 0.54000000000000004
8.43272172429341 7.8763510218135346 0.48999999999999999
8.43272172429341 7.8763510218135346 0.65499999999999992
8.43272172429341 7.8763510218135346 0.65499999999999992
8.3835726016360717 7.8419364356324719 0.65499999999999992
8.3999556425218511 7.8534079643594934 0.54000000000000004
8.3655410563407884 7.9025570870168327 0.54000000000000004
8.3983071381123473 7.9255001444708748 0.48999999999999999
8.3655410563407884 7.9025570870168327 0.48999999999999999
8.3655410563407884 7.9025570870168327 0.54000000000000004
8.3491580154550089 7.8910855582898121 0.65499999999999992
8.3983071381123473 7.9255001444708748 0.65499999999999992
8.3491580154550089 7.8910855582898121 0.65499999999999992
8.3655410563407884 7.9025570870168327 0.54000000000000004
8.3491580154550089 7.8910855582898121 0.54000000000000004
8.3983071381123473 7.9255001444708748 0.65499999999999992
8.3983071381123473 7.9255001444708748 0.48999999999999999
8.3655410563407884 7.9025570870168327 0.54000000000000004
8.43272172429341 7.8763510218135346 0.48999999999999999
8.3655410563407884 7.9025570870168327 0.48999999999999999
8.3983071381123473 7.9255001444708748 0.48999999999999999
8.3655410563407884 7.9025570870168327 0.48999999999999999
8.43272172429341 7.8763510218135346 0.48999999999999999
8.3999556425218493 7.8534079643594925 0.48999999999999999
8.5165212471190319 7.6389902416197586 0.39999999999999997
8.5165212471190319 7.6389902416197586 0
8.5595394798453608 7.5775538382980843 0
8.5595394798453608 7.5775538382980843 0
8.5595394798453608 7.5775538382980843 0.39999999999999997
8.5165212471190319 7.6389902416197586 0.39999999999999997
8.6209758831670342 7.6205720710244131 0
8.5779576504407071 7.6820084743460875 0.46000000000000002
8.6209758831670342 7.6205720710244131 0.46000000000000002
8.5779576504407071 7.6820084743460875 0.46000000000000002
8.6209758831670342 7.6205720710244131 0
8.5779576504407071 7.6820084743460875 0
8.5820661610633078 7.5933271902977379 0.39999999999999997
8.5595394798453608 7.5775538382980843 0
8.6209758831670342 7.6205720710244131 0
8.5595394798453608 7.5775538382980843 0
8.5820661610633078 7.5933271902977379 0.39999999999999997
8.5595394798453608 7.5775538382980843 0.39999999999999997
8.5820661610633078 7.5933271902977379 0.39999999999999997
8.6209758831670342 7.6205720710244131 0.46000000000000002
8.5820661610633078 7.5933271902977379 0.46000000000000002
8.6209758831670342 7.6205720710244131 0
8.6209758831670342 7.6205720710244131 0.46000000000000002
8.5820661610633078 7.5933271902977379 0.39999999999999997
8.5390479283369789 7.6547635936194123 0.39999999999999997
8.5779576504407071 7.6820084743460875 0.46000000000000002
8.5779576504407071 7.6820084743460875 0
8.5779576504407071 7.6820084743460875 0.46000000000000002
8.5390479283369789 7.6547635936194123 0.39999999999999997
8.5390479283369789 7.6547635936194123 0.46000000000000002
8.5390479283369789 7.6547635936194123 0.39999999999999997
8.5165212471190319 7.6389902416197586 0
8.5165212471190319 7.6389902416197586 0.39999999999999997
8.5779576504407071 7.6820084743460875 0
8.5165212471190319 7.6389902416197586 0
8.5390479283369789 7.6547635936194123 0.39999999999999997
8.5390479283369789 7.6547635936194123 0.46000000000000002
8.5820661610633078 7.5933271902977379 0.46000000000000002
8.6209758831670342 7.6205720710244131 0.46000000000000002
8.6209758831670342 7.6205720710244131 0.46000000000000002
8.5779576504407071 7.6820084743460875 0.46000000000000002
8.5390479283369789 7.6547635936194123 0.46000000000000002
8.1436965634908525 8.1714390704076045 0
8.1867147962171813 8.1100026670859293 0
8.1867147962171813 8.1100026670859293 0.46000000000000002
8.1867147962171813 8.1100026670859293 0.46000000000000002
8.1436965634908525 8.1714390704076045 0.46000000000000002
8.1436965634908525 8.1714390704076045 0
8.2051329668125259 8.2144573031339316 0.45999999999999991
8.2481511995388548 8.1530208998122582 0.45999999999999991
8.2481511995388548 8.1530208998122582 0
8.2481511995388548 8.1530208998122582 0
8.2051329668125259 8.2144573031339316 0
8.2051329668125259 8.2144573031339316 0.45999999999999991
8.2481511995388548 8.1530208998122582 0
8.1867147962171813 8.1100026670859293 0.46000000000000002
8.1867147962171813 8.1100026670859293 0
8.1867147962171813 8.1100026670859293 0.46000000000000002
8.2481511995388548 8.1530208998122582 0
8.2481511995388548 8.1530208998122582 0.46000000000000002
8.1436965634908525 8.1714390704076045 0
8.2051329668125259 8.2144573031339316 0.46000000000000002
8.2051329668125259 8.2144573031339316 0
8.2051329668125259 8.2144573031339316 0.46000000000000002
8.1436965634908525 8.1714390704076045 0
8.1436965634908525 8.1714390704076045 0.46000000000000002
8.1867147962171813 8.1100026670859293 0.46000000000000002
8.2051329668125259 8.2144573031339316 0.46000000000000002
8.1436965634908525 8.1714390704076045 0.46000000000000002
8.2051329668125259 8.2144573031339316 0.46000000000000002
8.1867147962171813 8.1100026670859293 0.46000000000000002
8.2481511995388548 8.1530208998122582 0.46000000000000002
7.53088405876297 7.8125376739417511 0.73999999999999999
7.5710344093075435 7.7551970308415212 0.73999999999999999
7.5710344093075435 7.7551970308415212 1.02
7.5710344093075435 7.7551970308415212 1.02
7.53088405876297 7.8125376739417511 1.02
7.53088405876297 7.8125376739417511 0.73999999999999999
8.2102547921561921 8.2027839614894411 0.73999999999999999
8.1701044416116186 8.2601246045896719 1.02
8.2102547921561921 8.2027839614894411 1.02
8.1701044416116186 8.2601246045896719 1.02
8.2102547921561921 8.2027839614894411 0.73999999999999999
8.1701044416116186 8.2601246045896719 0.73999999999999999
8.173392950163187 8.1769730218536445 1.01
8.173392950163187 8.1769730218536445 0.73999999999999999
8.2102547921561921 8.2027839614894411 0.73999999999999999
7.6078962513005477 7.7810079704773178 1.01
7.5710344093075435 7.7551970308415212 0.73999999999999999
7.6078962513005477 7.7810079704773178 0.73999999999999999
8.2102547921561921 8.2027839614894411 0.73999999999999999
8.2102547921561921 8.2027839614894411 1.02
8.173392950163187 8.1769730218536445 1.01
7.6078962513005477 7.7810079704773178 1.01
7.5710344093075435 7.7551970308415212 1.02
7.5710344093075435 7.7551970308415212 0.73999999999999999
7.5710344093075435 7.7551970308415212 1.02
8.173392950163187 8.1769730218536445 1.01
8.2102547921561921 8.2027839614894411 1.02
8.173392950163187 8.1769730218536445 1.01
7.5710344093075435 7.7551970308415212 1.02
7.6078962513005477 7.7810079704773178 1.01
7.5677459007559751 7.8383486135775486 1.01
7.5677459007559751 7.8383486135775486 0.73999999999999999
7.53088405876297 7.8125376739417511 0.73999999999999999
8.1332425996186153 8.2343136649538753 1.01
8.1701044416116186 8.2601246045896719 0.73999999999999999
8.1332425996186153 8.2343136649538753 0.73999999999999999
7.53088405876297 7.8125376739417511 0.73999999999999999
7.53088405876297 7.8125376739417511 1.02
7.5677459007559751 7.8383486135775486 1.01
8.1332425996186153 8.2343136649538753 1.01
8.1701044416116186 8.2601246045896719 1.02
8.1701044416116186 8.2601246045896719 0.73999999999999999
8.1701044416116186 8.2601246045896719 1.02
7.5677459007559751 7.8383486135775486 1.01
7.53088405876297 7.8125376739417511 1.02
7.5677459007559751 7.8383486135775486 1.01
8.1701044416116186 8.2601246045896719 1.02
8.1332425996186153 8.2343136649538753 1.01
7.53088405876297 7.8125376739417511 0.73999999999999999
7.6078962513005477 7.7810079704773187 0.73999999999999999
7.5710344093075435 7.7551970308415212 0.73999999999999999
7.6078962513005477 7.7810079704773187 0.73999999999999999
7.53088405876297 7.8125376739417511 0.73999999999999999
7.5677459007559751 7.8383486135775486 0.73999999999999999
8.2102547921561921 8.2027839614894411 0.73999999999999999
8.1332425996186153 8.2343136649538753 0.73999999999999999
8.1701044416116186 8.2601246045896719 0.73999999999999999
8.1332425996186153 8.2343136649538753 0.73999999999999999
8.2102547921561921 8.2027839614894411 0.73999999999999999
8.173392950163187 8.1769730218536445 0.73999999999999999
8.2102547921561921 8.2027839614894411 1.02
8.1701044416116186 8.2601246045896719 1.02
7.53088405876297 7.8125376739417511 1.02
7.53088405876297 7.8125376739417511 1.02
7.5710344093075435 7.7551970308415212 1.02
8.2102547921561921 8.2027839614894411 1.02
10.067933838936693 7.5933271902977379 0.46000000000000002
10.067933838936693 7.5933271902977379 0.39999999999999991
10.026349547301242 7.5339386670867867 0.39999999999999991
10.284458943659212 7.9025570870168327 0.48999999999999999
10.439324581473995 8.1237281389748599 0.39999999999999991
10.110952071663021 7.6547635936194123 0.39999999999999991
10.284458943659212 7.9025570870168327 0.48999999999999999
10.284458943659212 7.9025570870168327 0.54000000000000004
10.439324581473995 8.1237281389748599 0.54000000000000004
10.110952071663021 7.6547635936194123 0.46000000000000002
10.067933838936693 7.5933271902977379 0.46000000000000002
10.026349547301242 7.5339386670867867 0.54000000000000004
10.026349547301242 7.5339386670867867 0.39999999999999991
10.026349547301242 7.5339386670867867 0.54000000000000004
10.067933838936693 7.5933271902977379 0.46000000000000002
10.439324581473995 8.1237281389748599 0.54000000000000004
10.439324581473995 8.1237281389748599 0.39999999999999991
10.284458943659212 7.9025570870168327 0.48999999999999999
10.026349547301242 7.5339386670867867 0.54000000000000004
10.250044357478149 7.8534079643594925 0.54000000000000004
10.110952071663021 7.6547635936194123 0.46000000000000002
10.250044357478149 7.8534079643594925 0.48999999999999999
10.284458943659212 7.9025570870168327 0.48999999999999999
10.110952071663021 7.6547635936194123 0.39999999999999991
10.250044357478149 7.8534079643594925 0.54000000000000004
10.250044357478149 7.8534079643594925 0.48999999999999999
10.110952071663021 7.6547635936194123 0.46000000000000002
10.110952071663021 7.6547635936194123 0.39999999999999991
10.110952071663021 7.6547635936194123 0.46000000000000002
10.250044357478149 7.8534079643594925 0.48999999999999999
10.67644877052566 7.2587985422430865 0.46000000000000002
10.815541056340789 7.4574429129831667 0.48999999999999999
10.815541056340789 7.4574429129831667 0.54000000000000004
10.849955642521852 7.5065920356405069 0.48999999999999999
11.004821280336634 7.7277630875985341 0.54000000000000004
10.849955642521852 7.5065920356405069 0.54000000000000004
10.849955642521852 7.5065920356405069 0.48999999999999999
10.67644877052566 7.2587985422430865 0.39999999999999991
11.004821280336634 7.7277630875985341 0.39999999999999991
10.633430537799333 7.1973621389214131 0.46000000000000002
10.591846246163881 7.1379736157104601 0.39999999999999991
10.633430537799333 7.1973621389214131 0.39999999999999991
11.004821280336634 7.7277630875985341 0.39999999999999991
11.004821280336634 7.7277630875985341 0.54000000000000004
10.849955642521852 7.5065920356405069 0.48999999999999999
10.633430537799333 7.1973621389214131 0.46000000000000002
10.591846246163881 7.1379736157104601 0.54000000000000004
10.591846246163881 7.1379736157104601 0.39999999999999991
10.815541056340789 7.4574429129831667 0.48999999999999999
10.67644877052566 7.2587985422430865 0.39999999999999991
10.849955642521852 7.5065920356405069 0.48999999999999999
10.67644877052566 7.2587985422430865 0.46000000000000002
10.591846246163881 7.1379736157104601 0.54000000000000004
10.633430537799333 7.1973621389214131 0.46000000000000002
10.815541056340789 7.4574429129831667 0.48999999999999999
10.67644877052566 7.2587985422430865 0.46000000000000002
10.67644877052566 7.2587985422430865 0.39999999999999991
10.815541056340789 7.4574429129831667 0.54000000000000004
10.591846246163881 7.1379736157104601 0.54000000000000004
10.67644877052566 7.2587985422430865 0.46000000000000002
10.591846246163881 7.1379736157104601 0.39999999999999991
10.026349547301242 7.5339386670867867 0.54000000000000004
10.026349547301242 7.5339386670867867 0.39999999999999991
10.026349547301242 7.5339386670867867 0.54000000000000004
10.591846246163881 7.1379736157104601 0.39999999999999991
10.591846246163881 7.1379736157104601 0.54000000000000004
10.439324581473995 8.1237281389748599 0.39999999999999991
11.004821280336634 7.7277630875985341 0.53000000000000003
11.004821280336634 7.7277630875985341 0.39999999999999991
11.004821280336634 7.7277630875985341 0.53000000000000003
10.439324581473995 8.1237281389748599 0.39999999999999991
10.439324581473995 8.1237281389748599 0.53000000000000003
10.133478752880968 7.6389902416197586 0.39999999999999991
10.110952071663021 7.6547635936194123 0.39999999999999991
10.439324581473995 8.1237281389748599 0.39999999999999991
10.09046052015464 7.5775538382980843 0.39999999999999991
10.026349547301242 7.5339386670867867 0.39999999999999991
10.067933838936693 7.5933271902977379 0.39999999999999991
10.610903856581384 7.2131354909210659 0.39999999999999991
10.633430537799331 7.1973621389214122 0.39999999999999991
10.591846246163881 7.1379736157104601 0.39999999999999991
10.439324581473995 8.1237281389748599 0.39999999999999991
11.004821280336634 7.7277630875985341 0.39999999999999991
10.653922089307713 7.2745718942427402 0.39999999999999991
10.610903856581384 7.2131354909210659 0.39999999999999991
10.591846246163881 7.1379736157104601 0.39999999999999991
10.026349547301242 7.5339386670867867 0.39999999999999991
10.653922089307713 7.2745718942427402 0.39999999999999991
11.004821280336634 7.7277630875985341 0.39999999999999991
10.67644877052566 7.2587985422430865 0.39999999999999991
10.610903856581384 7.2131354909210659 0.39999999999999991
10.09046052015464 7.5775538382980843 0.39999999999999991
10.133478752880968 7.6389902416197586 0.39999999999999991
10.026349547301242 7.5339386670867867 0.39999999999999991
10.09046052015464 7.5775538382980843 0.39999999999999991
10.610903856581384 7.2131354909210659 0.39999999999999991
10.653922089307713 7.2745718942427402 0.39999999999999991
10.133478752880968 7.6389902416197586 0.39999999999999991
10.439324581473995 8.1237281389748599 0.39999999999999991
10.133478752880968 7.6389902416197586 0.39999999999999991
10.653922089307713 7.2745718942427402 0.39999999999999991
10.610903856581384 7.2131354909210659 0.39999999999999991
10.266427398363929 7.8419364356324719 0.54000000000000004
10.79915801545501 7.4689144417101874 0.54000000000000004
10.833572601636073 7.5180635643675275 0.54000000000000004
10.833572601636073 7.5180635643675275 0.54000000000000004
10.300841984544991 7.8910855582898121 0.54000000000000004
10.266427398363929 7.8419364356324719 0.54000000000000004
10.300841984544991 7.8910855582898121 0.54000000000000004
10.439324581473995 8.1237281389748599 0.54000000000000004
10.284458943659214 7.9025570870168318 0.54000000000000004
10.266427398363929 7.8419364356324719 0.54000000000000004
10.250044357478149 7.8534079643594925 0.54000000000000004
10.026349547301242 7.5339386670867867 0.54000000000000004
10.591846246163881 7.1379736157104601 0.54000000000000004
10.815541056340789 7.4574429129831667 0.54000000000000004
10.79915801545501 7.4689144417101874 0.54000000000000004
10.833572601636073 7.5180635643675275 0.54000000000000004
10.439324581473995 8.1237281389748599 0.54000000000000004
10.300841984544991 7.8910855582898121 0.54000000000000004
10.026349547301242 7.5339386670867867 0.54000000000000004
10.591846246163881 7.1379736157104601 0.54000000000000004
10.266427398363929 7.8419364356324719 0.54000000000000004
11.004821280336634 7.7277630875985341 0.54000000000000004
10.439324581473995 8.1237281389748599 0.54000000000000004
10.833572601636073 7.5180635643675275 0.54000000000000004
10.79915801545501 7.4689144417101874 0.54000000000000004
10.266427398363929 7.8419364356324719 0.54000000000000004
10.591846246163881 7.1379736157104601 0.54000000000000004
10.833572601636073 7.5180635643675275 0.54000000000000004
10.849955642521852 7.5065920356405069 0.54000000000000004
11.004821280336634 7.7277630875985341 0.54000000000000004
10.516757400381385 8.2343136649538735 0.73999999999999999
10.516757400381385 8.2343136649538735 1.01
10.51962528256314 8.2384094251753197 1.01
10.476607049836813 8.1769730218536445 0.73999999999999999
10.439324581473995 8.1237281389748599 1.01
10.476607049836813 8.1769730218536445 1.01
10.51962528256314 8.2384094251753197 1.01
10.51962528256314 8.2384094251753197 0.53000000000000003
10.516757400381385 8.2343136649538735 0.73999999999999999
10.476607049836813 8.1769730218536445 0.73999999999999999
10.439324581473995 8.1237281389748599 0.53000000000000003
10.439324581473995 8.1237281389748599 1.01
10.476607049836813 8.1769730218536445 0.73999999999999999
10.516757400381385 8.2343136649538735 0.73999999999999999
10.51962528256314 8.2384094251753197 0.53000000000000003
10.51962528256314 8.2384094251753197 0.53000000000000003
10.439324581473995 8.1237281389748599 0.53000000000000003
10.476607049836813 8.1769730218536445 0.73999999999999999
11.042103748699452 7.7810079704773187 0.73999999999999999
11.042103748699452 7.7810079704773187 1.01
11.004821280336634 7.7277630875985341 1.01
11.082254099244025 7.8383486135775478 0.73999999999999999
11.085121981425781 7.8424443737989931 1.01
11.082254099244025 7.8383486135775478 1.01
11.004821280336634 7.7277630875985341 1.01
11.004821280336634 7.7277630875985341 0.53000000000000003
11.042103748699452 7.7810079704773187 0.73999999999999999
11.082254099244025 7.8383486135775478 0.73999999999999999
11.085121981425781 7.8424443737989931 0.53000000000000003
11.085121981425781 7.8424443737989931 1.01
11.085121981425781 7.8424443737989931 0.53000000000000003
11.042103748699452 7.7810079704773187 0.73999999999999999
11.004821280336634 7.7277630875985341 0.53000000000000003
11.042103748699452 7.7810079704773187 0.73999999999999999
11.085121981425781 7.8424443737989931 0.53000000000000003
11.082254099244025 7.8383486135775478 0.73999999999999999
11.004821280336634 7.7277630875985341 0.54000000000000004
11.004821280336634 7.7277630875985341 1.01
10.439324581473995 8.1237281389748599 1.01
10.439324581473995 8.1237281389748599 1.01
10.439324581473995 8.1237281389748599 0.54000000000000004
11.004821280336634 7.7277630875985341 0.54000000000000004
10.51962528256314 8.2384094251753197 0.53000000000000003
11.085121981425781 7.8424443737989931 1.01
11.085121981425781 7.8424443737989931 0.53000000000000003
11.085121981425781 7.8424443737989931 1.01
10.51962528256314 8.2384094251753197 0.53000000000000003
10.51962528256314 8.2384094251753197 1.01
11.085121981425781 7.8424443737989931 0.53000000000000003
11.004821280336634 7.7277630875985341 0.53000000000000003
10.439324581473995 8.1237281389748599 0.53000000000000003
10.439324581473995 8.1237281389748599 0.53000000000000003
10.51962528256314 8.2384094251753197 0.53000000000000003
11.085121981425781 7.8424443737989931 0.53000000000000003
11.042103748699452 7.7810079704773187 1.01
10.476607049836813 8.1769730218536445 1.01
10.439324581473995 8.1237281389748599 1.01
10.439324581473995 8.1237281389748599 1.01
11.004821280336634 7.7277630875985341 1.01
11.042103748699452 7.7810079704773187 1.01
10.516757400381385 8.2343136649538753 1.01
11.082254099244025 7.8383486135775486 1.01
11.085121981425781 7.8424443737989931 1.01
11.085121981425781 7.8424443737989931 1.01
10.51962528256314 8.2384094251753197 1.01
10.516757400381385 8.2343136649538753 1.01
9.9985034779558788 7.5900599324147633 0.745
10.38853545467459 8.1470833225312784 0.65499999999999992
9.9985034779558788 7.5900599324147633 0.65499999999999992
10.38853545467459 8.1470833225312784 0.65499999999999992
9.9985034779558788 7.5900599324147633 0.745
10.38853545467459 8.1470833225312784 0.745
10.072227161941887 7.5384380531431692 0.65499999999999992
10.462259138660599 8.0954614432596834 0.745
10.072227161941887 7.5384380531431692 0.745
10.462259138660599 8.0954614432596834 0.745
10.072227161941887 7.5384380531431692 0.65499999999999992
10.462259138660599 8.0954614432596834 0.65499999999999992
10.072227161941887 7.5384380531431692 0.65499999999999992
9.9985034779558788 7.5900599324147633 0.745
9.9985034779558788 7.5900599324147633 0.65499999999999992
9.9985034779558788 7.5900599324147633 0.745
10.072227161941887 7.5384380531431692 0.65499999999999992
10.072227161941887 7.5384380531431692 0.745
10.38853545467459 8.1470833225312784 0.65499999999999992
10.462259138660599 8.0954614432596834 0.745
10.462259138660599 8.0954614432596834 0.65499999999999992
10.462259138660599 8.0954614432596834 0.745
10.38853545467459 8.1470833225312784 0.65499999999999992
10.38853545467459 8.1470833225312784 0.745
10.38853545467459 8.1470833225312784 0.65499999999999992
10.251692861887653 7.9255001444708748 0.65499999999999992
10.21727827570659 7.8763510218135346 0.65499999999999992
10.21727827570659 7.8763510218135346 0.65499999999999992
9.9985034779558788 7.5900599324147633 0.65499999999999992
10.38853545467459 8.1470833225312784 0.65499999999999992
10.266427398363929 7.8419364356324728 0.65499999999999992
9.9985034779558788 7.5900599324147633 0.65499999999999992
10.21727827570659 7.8763510218135346 0.65499999999999992
10.462259138660599 8.0954614432596834 0.65499999999999992
10.251692861887653 7.9255001444708748 0.65499999999999992
10.38853545467459 8.1470833225312784 0.65499999999999992
10.266427398363929 7.8419364356324728 0.65499999999999992
10.072227161941887 7.5384380531431683 0.65499999999999992
9.9985034779558788 7.5900599324147633 0.65499999999999992
10.462259138660599 8.0954614432596834 0.65499999999999992
10.300841984544991 7.8910855582898121 0.65499999999999992
10.251692861887653 7.9255001444708748 0.65499999999999992
10.462259138660599 8.0954614432596834 0.65499999999999992
10.072227161941887 7.5384380531431683 0.65499999999999992
10.266427398363929 7.8419364356324728 0.65499999999999992
10.266427398363929 7.8419364356324728 0.65499999999999992
10.300841984544991 7.8910855582898121 0.65499999999999992
10.462259138660599 8.0954614432596834 0.65499999999999992
9.9985034779558788 7.5900599324147633 0.745
10.462259138660599 8.0954614432596834 0.745
10.38853545467459 8.1470833225312784 0.745
10.462259138660599 8.0954614432596834 0.745
9.9985034779558788 7.5900599324147633 0.745
10.072227161941887 7.5384380531431692 0.745
10.21727827570659 7.8763510218135346 0.48999999999999999
10.251692861887653 7.9255001444708748 0.65499999999999992
10.251692861887653 7.9255001444708748 0.48999999999999999
10.251692861887653 7.9255001444708748 0.65499999999999992
10.21727827570659 7.8763510218135346 0.48999999999999999
10.21727827570659 7.8763510218135346 0.65499999999999992
10.300841984544991 7.8910855582898121 0.54000000000000004
10.266427398363929 7.8419364356324719 0.65499999999999992
10.266427398363929 7.8419364356324719 0.54000000000000004
10.266427398363929 7.8419364356324719 0.65499999999999992
10.300841984544991 7.8910855582898121 0.54000000000000004
10.300841984544991 7.8910855582898121 0.65499999999999992
10.250044357478149 7.8534079643594934 0.54000000000000004
10.21727827570659 7.8763510218135346 0.48999999999999999
10.250044357478149 7.8534079643594934 0.48999999999999999
10.250044357478149 7.8534079643594934 0.54000000000000004
10.266427398363929 7.8419364356324719 0.65499999999999992
10.21727827570659 7.8763510218135346 0.65499999999999992
10.266427398363929 7.8419364356324719 0.65499999999999992
10.250044357478149 7.8534079643594934 0.54000000000000004
10.266427398363929 7.8419364356324719 0.54000000000000004
10.21727827570659 7.8763510218135346 0.65499999999999992
10.21727827570659 7.8763510218135346 0.48999999999999999
10.250044357478149 7.8534079643594934 0.54000000000000004
10.251692861887653 7.9255001444708748 0.48999999999999999
10.284458943659212 7.9025570870168327 0.54000000000000004
10.284458943659212 7.9025570870168327 0.48999999999999999
10.284458943659212 7.9025570870168327 0.54000000000000004
10.300841984544991 7.8910855582898121 0.65499999999999992
10.300841984544991 7.8910855582898121 0.54000000000000004
10.284458943659212 7.9025570870168327 0.54000000000000004
10.251692861887653 7.9255001444708748 0.48999999999999999
10.251692861887653 7.9255001444708748 0.65499999999999992
10.251692861887653 7.9255001444708748 0.65499999999999992
10.300841984544991 7.8910855582898121 0.65499999999999992
10.284458943659212 7.9025570870168327 0.54000000000000004
10.284458943659212 7.9025570870168327 0.48999999999999999
10.250044357478151 7.8534079643594925 0.48999999999999999
10.21727827570659 7.8763510218135346 0.48999999999999999
10.21727827570659 7.8763510218135346 0.48999999999999999
10.251692861887653 7.9255001444708748 0.48999999999999999
10.284458943659212 7.9025570870168327 0.48999999999999999
10.072042349559293 7.6820084743460875 0
10.029024116832964 7.6205720710244131 0
10.029024116832964 7.6205720710244131 0.46000000000000002
10.029024116832964 7.6205720710244131 0.46000000000000002
10.072042349559293 7.6820084743460875 0.46000000000000002
10.072042349559293 7.6820084743460875 0
10.09046052015464 7.5775538382980843 0.39999999999999997
10.09046052015464 7.5775538382980843 0
10.133478752880968 7.6389902416197586 0
10.133478752880968 7.6389902416197586 0
10.133478752880968 7.6389902416197586 0.39999999999999997
10.09046052015464 7.5775538382980843 0.39999999999999997
10.067933838936693 7.5933271902977379 0.39999999999999997
10.029024116832964 7.6205720710244131 0.46000000000000002
10.029024116832964 7.6205720710244131 0
10.029024116832964 7.6205720710244131 0.46000000000000002
10.067933838936693 7.5933271902977379 0.39999999999999997
10.067933838936693 7.5933271902977379 0.46000000000000002
10.067933838936693 7.5933271902977379 0.39999999999999997
10.09046052015464 7.5775538382980843 0
10.09046052015464 7.5775538382980843 0.39999999999999997
10.029024116832964 7.6205720710244131 0
10.09046052015464 7.5775538382980843 0
10.067933838936693 7.5933271902977379 0.39999999999999997
10.110952071663021 7.6547635936194123 0.39999999999999997
10.133478752880968 7.6389902416197586 0
10.072042349559293 7.6820084743460875 0
10.133478752880968 7.6389902416197586 0
10.110952071663021 7.6547635936194123 0.39999999999999997
10.133478752880968 7.6389902416197586 0.39999999999999997
10.110952071663021 7.6547635936194123 0.39999999999999997
10.072042349559293 7.6820084743460875 0.46000000000000002
10.110952071663021 7.6547635936194123 0.46000000000000002
10.072042349559293 7.6820084743460875 0
10.072042349559293 7.6820084743460875 0.46000000000000002
10.110952071663021 7.6547635936194123 0.39999999999999997
10.067933838936693 7.5933271902977379 0.46000000000000002
10.110952071663021 7.6547635936194123 0.46000000000000002
10.072042349559293 7.6820084743460875 0.46000000000000002
10.072042349559293 7.6820084743460875 0.46000000000000002
10.029024116832964 7.6205720710244131 0.46000000000000002
10.067933838936693 7.5933271902977379 0.46000000000000002
10.444867033187474 8.2144573031339316 1.1102230246251565e-16
10.401848800461146 8.1530208998122582 1.1102230246251565e-16
10.401848800461146 8.1530208998122582 0.46000000000000002
10.401848800461146 8.1530208998122582 0.46000000000000002
10.444867033187474 8.2144573031339316 0.46000000000000002
10.444867033187474 8.2144573031339316 1.1102230246251565e-16
10.506303436509148 8.1714390704076045 0.46000000000000002
10.463285203782819 8.1100026670859293 0.46000000000000002
10.463285203782819 8.1100026670859293 0
10.463285203782819 8.1100026670859293 0
10.506303436509148 8.1714390704076045 0
10.506303436509148 8.1714390704076045 0.46000000000000002
10.463285203782819 8.1100026670859293 0
10.401848800461146 8.1530208998122582 0.46000000000000002
10.401848800461146 8.1530208998122582 0
10.401848800461146 8.1530208998122582 0.46000000000000002
10.463285203782819 8.1100026670859293 0
10.463285203782819 8.1100026670859293 0.46000000000000002
10.444867033187474 8.2144573031339316 0
10.506303436509148 8.1714390704076045 0.46000000000000002
10.506303436509148 8.1714390704076045 0
10.506303436509148 8.1714390704076045 0.46000000000000002
10.444867033187474 8.2144573031339316 0
10.444867033187474 8.2144573031339316 0.46000000000000002
10.463285203782819 8.1100026670859293 0.46000000000000002
10.506303436509148 8.1714390704076045 0.46000000000000002
10.444867033187474 8.2144573031339316 0.46000000000000002
10.444867033187474 8.2144573031339316 0.46000000000000002
10.401848800461146 8.1530208998122582 0.46000000000000002
10.463285203782819 8.1100026670859293 0.46000000000000002
10.580383217704298 7.182623352311416 0.745
10.970415194423008 7.7396467424279303 0.65499999999999992
10.580383217704298 7.182623352311416 0.65499999999999992
10.970415194423008 7.7396467424279303 0.65499999999999992
10.580383217704298 7.182623352311416 0.745
10.970415194423008 7.7396467424279303 0.745
10.654106901690307 7.1310014730398219 0.65499999999999992
11.044138878409019 7.6880248631563362 0.745
10.654106901690307 7.1310014730398219 0.745
11.044138878409019 7.6880248631563362 0.745
10.654106901690307 7.1310014730398219 0.65499999999999992
11.044138878409019 7.6880248631563362 0.65499999999999992
10.654106901690307 7.1310014730398219 0.65499999999999992
10.580383217704298 7.182623352311416 0.745
10.580383217704298 7.182623352311416 0.65499999999999992
10.580383217704298 7.182623352311416 0.745
10.654106901690307 7.1310014730398219 0.65499999999999992
10.654106901690307 7.1310014730398219 0.745
10.970415194423008 7.7396467424279303 0.65499999999999992
11.044138878409019 7.6880248631563362 0.745
11.044138878409019 7.6880248631563362 0.65499999999999992
11.044138878409019 7.6880248631563362 0.745
10.970415194423008 7.7396467424279303 0.65499999999999992
10.970415194423008 7.7396467424279303 0.745
11.044138878409019 7.6880248631563362 0.65499999999999992
10.833572601636073 7.5180635643675275 0.65499999999999992
10.970415194423008 7.7396467424279303 0.65499999999999992
10.79915801545501 7.4689144417101874 0.65499999999999992
10.970415194423008 7.7396467424279303 0.65499999999999992
10.833572601636073 7.5180635643675275 0.65499999999999992
11.044138878409019 7.6880248631563362 0.65499999999999992
10.882721724293411 7.4836489781864648 0.65499999999999992
10.833572601636073 7.5180635643675275 0.65499999999999992
10.79915801545501 7.4689144417101874 0.65499999999999992
10.580383217704298 7.182623352311416 0.65499999999999992
10.970415194423008 7.7396467424279303 0.65499999999999992
10.848307138112348 7.4344998555291246 0.65499999999999992
10.882721724293411 7.4836489781864648 0.65499999999999992
11.044138878409019 7.6880248631563362 0.65499999999999992
10.848307138112348 7.4344998555291246 0.65499999999999992
10.580383217704298 7.182623352311416 0.65499999999999992
10.79915801545501 7.4689144417101874 0.65499999999999992
11.044138878409019 7.6880248631563362 0.65499999999999992
10.654106901690307 7.1310014730398219 0.65499999999999992
10.848307138112348 7.4344998555291246 0.65499999999999992
10.848307138112348 7.4344998555291246 0.65499999999999992
10.654106901690307 7.1310014730398219 0.65499999999999992
10.580383217704298 7.182623352311416 0.65499999999999992
10.654106901690307 7.1310014730398219 0.745
11.044138878409019 7.6880248631563362 0.745
10.970415194423008 7.7396467424279303 0.745
10.970415194423008 7.7396467424279303 0.745
10.580383217704298 7.182623352311416 0.745
10.654106901690307 7.1310014730398219 0.745
10.833572601636073 7.5180635643675275 0.65499999999999992
10.79915801545501 7.4689144417101874 0.54000000000000004
10.79915801545501 7.4689144417101874 0.65499999999999992
10.79915801545501 7.4689144417101874 0.54000000000000004
10.833572601636073 7.5180635643675275 0.65499999999999992
10.833572601636073 7.5180635643675275 0.54000000000000004
10.882721724293411 7.4836489781864648 0.48999999999999999
10.848307138112348 7.4344998555291246 0.65499999999999992
10.848307138112348 7.4344998555291246 0.48999999999999999
10.848307138112348 7.4344998555291246 0.65499999999999992
10.882721724293411 7.4836489781864648 0.48999999999999999
10.882721724293411 7.4836489781864648 0.65499999999999992
10.848307138112348 7.4344998555291246 0.48999999999999999
10.815541056340789 7.4574429129831667 0.54000000000000004
10.815541056340789 7.4574429129831667 0.48999999999999999
10.815541056340789 7.4574429129831667 0.54000000000000004
10.79915801545501 7.4689144417101874 0.65499999999999992
10.79915801545501 7.4689144417101874 0.54000000000000004
10.815541056340789 7.4574429129831667 0.54000000000000004
10.848307138112348 7.4344998555291246 0.48999999999999999
10.848307138112348 7.4344998555291246 0.65499999999999992
10.848307138112348 7.4344998555291246 0.65499999999999992
10.79915801545501 7.4689144417101874 0.65499999999999992
10.815541056340789 7.4574429129831667 0.54000000000000004
10.849955642521852 7.506592035640506 0.54000000000000004
10.882721724293411 7.4836489781864648 0.48999999999999999
10.849955642521852 7.506592035640506 0.48999999999999999
10.849955642521852 7.506592035640506 0.54000000000000004
10.833572601636073 7.5180635643675275 0.65499999999999992
10.882721724293411 7.4836489781864648 0.65499999999999992
10.833572601636073 7.5180635643675275 0.65499999999999992
10.849955642521852 7.506592035640506 0.54000000000000004
10.833572601636073 7.5180635643675275 0.54000000000000004
10.882721724293411 7.4836489781864648 0.65499999999999992
10.882721724293411 7.4836489781864648 0.48999999999999999
10.849955642521852 7.506592035640506 0.54000000000000004
10.815541056340789 7.4574429129831676 0.48999999999999999
10.849955642521852 7.5065920356405069 0.48999999999999999
10.882721724293411 7.4836489781864648 0.48999999999999999
10.882721724293411 7.4836489781864648 0.48999999999999999
10.848307138112348 7.4344998555291246 0.48999999999999999
10.815541056340789 7.4574429129831676 0.48999999999999999
10.653922089307713 7.2745718942427402 0.39999999999999997
10.653922089307713 7.2745718942427402 0
10.610903856581384 7.2131354909210659 0
10.610903856581384 7.2131354909210659 0
10.610903856581384 7.2131354909210659 0.39999999999999997
10.653922089307713 7.2745718942427402 0.39999999999999997
10.715358492629388 7.2315536615164113 0.46000000000000002
10.672340259903059 7.170117258194737 0.46000000000000002
10.672340259903059 7.170117258194737 0
10.672340259903059 7.170117258194737 0
10.715358492629388 7.2315536615164113 0
10.715358492629388 7.2315536615164113 0.46000000000000002
10.633430537799333 7.1973621389214113 0.39999999999999997
10.610903856581384 7.2131354909210659 0
10.672340259903059 7.170117258194737 0
10.610903856581384 7.2131354909210659 0
10.633430537799333 7.1973621389214113 0.39999999999999997
10.610903856581384 7.2131354909210659 0.39999999999999997
10.633430537799333 7.1973621389214113 0.39999999999999997
10.672340259903059 7.170117258194737 0.46000000000000002
10.633430537799333 7.1973621389214113 0.46000000000000002
10.672340259903059 7.170117258194737 0
10.672340259903059 7.170117258194737 0.46000000000000002
10.633430537799333 7.1973621389214113 0.39999999999999997
10.67644877052566 7.2587985422430865 0.39999999999999997
10.715358492629388 7.2315536615164113 0.46000000000000002
10.715358492629388 7.2315536615164113 0
10.715358492629388 7.2315536615164113 0.46000000000000002
10.67644877052566 7.2587985422430865 0.39999999999999997
10.67644877052566 7.2587985422430865 0.46000000000000002
10.67644877052566 7.2587985422430865 0.39999999999999997
10.653922089307713 7.2745718942427402 0
10.653922089307713 7.2745718942427402 0.39999999999999997
10.715358492629388 7.2315536615164113 0
10.653922089307713 7.2745718942427402 0
10.67644877052566 7.2587985422430865 0.39999999999999997
10.672340259903059 7.170117258194737 0.46000000000000002
10.715358492629388 7.2315536615164113 0.46000000000000002
10.67644877052566 7.2587985422430865 0.46000000000000002
10.67644877052566 7.2587985422430865 0.46000000000000002
10.633430537799331 7.1973621389214122 0.46000000000000002
10.672340259903059 7.170117258194737 0.46000000000000002
11.026746772935894 7.8070207230305844 0
10.983728540209565 7.74558431970891 0
10.983728540209565 7.74558431970891 0.46000000000000002
10.983728540209565 7.74558431970891 0.46000000000000002
11.026746772935894 7.8070207230305844 0.46000000000000002
11.026746772935894 7.8070207230305844 0
11.088183176257568 7.7640024903042564 0.46000000000000002
11.045164943531239 7.702566086982582 0.46000000000000002
11.045164943531239 7.702566086982582 0
11.045164943531239 7.702566086982582 0
11.088183176257568 7.7640024903042564 0
11.088183176257568 7.7640024903042564 0.46000000000000002
11.045164943531239 7.702566086982582 0
10.983728540209565 7.74558431970891 0.46000000000000002
10.983728540209565 7.74558431970891 0
10.983728540209565 7.74558431970891 0.46000000000000002
11.045164943531239 7.702566086982582 0
11.045164943531239 7.702566086982582 0.46000000000000002
11.026746772935894 7.8070207230305844 0
11.088183176257568 7.7640024903042564 0.46000000000000002
11.088183176257568 7.7640024903042564 0
11.088183176257568 7.7640024903042564 0.46000000000000002
11.026746772935894 7.8070207230305844 0
11.026746772935894 7.8070207230305844 0.46000000000000002
11.045164943531239 7.702566086982582 0.46000000000000002
11.088183176257568 7.7640024903042564 0.46000000000000002
11.026746772935894 7.8070207230305844 0.46000000000000002
11.026746772935894 7.8070207230305844 0.46000000000000002
10.983728540209565 7.74558431970891 0.46000000000000002
11.045164943531239 7.702566086982582 0.46000000000000002
10.439745207843808 8.2027839614894411 1.02
10.479895558388382 8.2601246045896719 0.73999999999999999
10.439745207843808 8.2027839614894411 0.73999999999999999
10.479895558388382 8.2601246045896719 0.73999999999999999
10.439745207843808 8.2027839614894411 1.02
10.479895558388382 8.2601246045896719 1.02
11.11911594123703 7.8125376739417511 1.02
11.078965590692457 7.7551970308415212 1.02
11.078965590692457 7.7551970308415212 0.73999999999999999
11.078965590692457 7.7551970308415212 0.73999999999999999
11.11911594123703 7.8125376739417511 0.73999999999999999
11.11911594123703 7.8125376739417511 1.02
11.042103748699452 7.7810079704773187 1.01
11.042103748699452 7.7810079704773187 0.73999999999999999
11.078965590692457 7.7551970308415212 0.73999999999999999
10.476607049836813 8.1769730218536445 1.01
10.439745207843808 8.2027839614894411 0.73999999999999999
10.476607049836813 8.1769730218536445 0.73999999999999999
11.078965590692457 7.7551970308415212 0.73999999999999999
11.078965590692457 7.7551970308415212 1.02
11.042103748699452 7.7810079704773187 1.01
10.476607049836813 8.1769730218536445 1.01
10.439745207843808 8.2027839614894411 1.02
10.439745207843808 8.2027839614894411 0.73999999999999999
10.439745207843808 8.2027839614894411 1.02
11.042103748699452 7.7810079704773187 1.01
11.078965590692457 7.7551970308415212 1.02
11.042103748699452 7.7810079704773187 1.01
10.439745207843808 8.2027839614894411 1.02
10.476607049836813 8.1769730218536445 1.01
10.516757400381387 8.2343136649538753 1.01
10.516757400381387 8.2343136649538753 0.73999999999999999
10.479895558388382 8.2601246045896719 0.73999999999999999
11.082254099244025 7.8383486135775486 1.01
11.11911594123703 7.8125376739417511 0.73999999999999999
11.082254099244025 7.8383486135775486 0.73999999999999999
10.479895558388382 8.2601246045896719 0.73999999999999999
10.479895558388382 8.2601246045896719 1.02
10.516757400381387 8.2343136649538753 1.01
11.082254099244025 7.8383486135775486 1.01
11.11911594123703 7.8125376739417511 1.02
11.11911594123703 7.8125376739417511 0.73999999999999999
11.082254099244025 7.8383486135775486 1.01
10.516757400381387 8.2343136649538753 1.01
10.479895558388382 8.2601246045896719 1.02
10.479895558388382 8.2601246045896719 1.02
11.11911594123703 7.8125376739417511 1.02
11.082254099244025 7.8383486135775486 1.01
10.516757400381385 8.2343136649538753 0.73999999999999999
10.476607049836813 8.1769730218536445 0.73999999999999999
10.439745207843808 8.2027839614894411 0.73999999999999999
10.439745207843808 8.2027839614894411 0.73999999999999999
10.479895558388382 8.2601246045896719 0.73999999999999999
10.516757400381385 8.2343136649538753 0.73999999999999999
11.078965590692457 7.7551970308415212 0.73999999999999999
11.082254099244025 7.8383486135775486 0.73999999999999999
11.11911594123703 7.8125376739417511 0.73999999999999999
11.082254099244025 7.8383486135775486 0.73999999999999999
11.078965590692457 7.7551970308415212 0.73999999999999999
11.042103748699452 7.7810079704773187 0.73999999999999999
10.439745207843808 8.2027839614894411 1.02
11.11911594123703 7.8125376739417511 1.02
10.479895558388382 8.2601246045896719 1.02
11.11911594123703 7.8125376739417511 1.02
10.439745207843808 8.2027839614894411 1.02
11.078965590692457 7.7551970308415212 1.02
3 0 1 2
3 3 4 5
3 6 7 8
3 9 10 11
3 12 13 14
3 15 16 17
3 18 19 20
3 21 22 23
3 24 25 26
3 27 28 29
3 30 31 32
3 33 34 35
3 36 37 38
3 39 40 41
3 42 43 44
3 45 46 47
3 48 49 50
3 51 52 53
3 54 55 56
3 57 58 59
3 60 61 62
3 63 64 65
3 66 67 68
3 69 70 71
3 72 73 74
3 75 76 77
3 78 79 80
3 81 82 83
3 84 85 86
3 87 88 89
3 90 91 92
3 93 94 95
3 96 97 98
3 99 100 101
3 102 103 104
3 105 106 107
3 108 109 110
3 111 112 113
3 114 115 116
3 117 118 119
3 120 121 122
3 123 124 125
3 126 127 128
3 129 130 131
3 132 133 134
3 135 136 137
3 138 139 140
3 141 142 143
3 144 145 146
3 147 148 149
3 150 151 152
3 153 154 155
3 156 157 158
3 159 160 161
3 162 163 164
3 165 166 167
3 168 169 170
3 171 172 173
3 174 175 176
3 177 178 179
3 180 181 182
3 183 184 185
3 186 187 188
3 189 190 191
3 192 193 194
3 195 196 197
3 198 199 200
3 201 202 203
3 204 205 206
3 207 208 209
3 210 211 212
3 213 214 215
3 216 217 218
3 219 220 221
3 222 223 224
3 225 226 227
3 228 229 230
3 231 232 233
3 234 235 236
3 237 238 239
3 240 241 242
3 243 244 245
3 246 247 248
3 249 250 251
3 252 253 254
3 255 256 257
3 258 259 260
3 261 262 263
3 264 265 266
3 267 268 269
3 270 271 272
3 273 274 275
3 276 277 278
3 279 280 281
3 282 283 284
3 285 286 287
3 288 289 290
3 291 292 293
3 294 295 296
3 297 298 299
3 300 301 302
3 303 304 305
3 306 307 308
3 309 310 311
3 312 313 314
3 315 316 317
3 318 319 320
3 321 322 323
3 324 325 326
3 327 328 329
3 330 331 332
3 333 334 335
3 336 337 338
3 339 340 341
3 342 343 344
3 345 346 347
3 348 349 350
3 351 352 353
3 354 355 356
3 357 358 359
3 360 361 362
3 363 364 365
3 366 367 368
3 369 370 371
3 372 373 374
3 375 376 377
3 378 379 380
3 381 382 383
3 384 385 386
3 387 388 389
3 390 391 392
3 393 394 395
3 396 397 398
3 399 400 401
3 402 403 404
3 405 406 407
3 408 409 410
3 411 412 413
3 414 415 416
3 417 418 419
3 420 421 422
3 423 424 425
3 426 427 428
3 429 430 431
3 432 433 434
3 435 436 437
3 438 439 440
3 441 442 443
3 444 445 446
3 447 448 449
3 450 451 452
3 453 454 455
3 456 457 458
3 459 460 461
3 462 463 464
3 465 466 467
3 468 469 470
3 471 472 473
3 474 475 476
3 477 478 479
3 480 481 482
3 483 484 485
3 486 487 488
3 489 490 491
3 492 493 494
3 495 496 497
3 498 499 500
3 501 502 503
3 504 505 506
3 507 508 509
3 510 511 512
3 513 514 515
3 516 517 518
3 519 520 521
3 522 523 524
3 525 526 527
3 528 529 530
3 531 532 533
3 534 535 536
3 537 538 539
3 540 541 542
3 543 544 545
3 546 547 548
3 549 550 551
3 552 553 554
3 555 556 557
3 558 559 560
3 561 562 563
3 564 565 566
3 567 568 569
3 570 571 572
3 573 574 575
3 576 577 578
3 579 580 581
3 582 583 584
3 585 586 587
3 588 589 590
3 591 592 593
3 594 595 596
3 597 598 599
3 600 601 602
3 603 604 605
3 606 607 608
3 609 610 611
3 612 613 614
3 615 616 617
3 618 619 620
3 621 622 623
3 624 625 626
3 627 628 629
3 630 631 632
3 633 634 635
3 636 637 638
3 639 640 641
3 642 643 644
3 645 646 647
3 648 649 650
3 651 652 653
3 654 655 656
3 657 658 659
3 660 661 662
3 663 664 665
3 666 667 668
3 669 670 671
3 672 673 674
3 675 676 677
3 678 679 680
3 681 682 683
3 684 685 686
3 687 688 689
3 690 691 692
3 693 694 695
3 696 697 698
3 699 700 701
3 702 703 704
3 705 706 707
3 708 709 710
3 711 712 713
3 714 715 716
3 717 718 719
3 720 721 722
3 723 724 725
3 726 727 728
3 729 730 731
3 732 733 734
3 735 736 737
3 738 739 740
3 741 742 743
3 744 745 746
3 747 748 749
3 750 751 752
3 753 754 755
3 756 757 758
3 759 760 761
3 762 763 764
3 765 766 767
3 768 769 770
3 771 772 773
3 774 775 776
3 777 778 779
3 780 781 782
3 783 784 785
3 786 787 788
3 789 790 791
3 792 793 794
3 795 796 797
3 798 799 800
3 801 802 803
3 804 805 806
3 807 808 809
3 810 811 812
3 813 814 815
3 816 817 818
3 819 820 821
3 822 823 824
3 825 826 827
3 828 829 830
3 831 832 833
3 834 835 836
3 837 838 839
3 840 841 842
3 843 844 845
3 846 847 848
3 849 850 851
3 852 853 854
3 855 856 857
3 858 859 860
3 861 862 863
3 864 865 866
3 867 868 869
3 870 871 872
3 873 874 875
3 876 877 878
3 879 880 881
3 882 883 884
3 885 886 887
3 888 889 890
3 891 892 893
3 894 895 896
3 897 898 899
3 900 901 902
3 903 904 905
3 906 907 908
3 909 910 911
3 912 913 914
3 915 916 917
3 918 919 920
3 921 922 923
3 924 925 926
3 927 928 929
3 930 931 932
3 933 934 935
3 936 937 938
3 939 940 941
3 942 943 944
3 945 946 947
3 948 949 950
3 951 952 953
3 954 955 956
3 957 958 959
3 960 961 962
3 963 964 965
3 966 967 968
3 969 970 971
3 972 973 974
3 975 976 977
3 978 979 980
3 981 982 983
3 984 985 986
3 987 988 989
3 990 991 992
3 993 994 995
3 996 997 998
3 999 1000 1001
3 1002 1003 1004
3 1005 1006 1007
3 1008 1009 1010
3 1011 1012 1013
3 1014 1015 1016
3 1017 1018 1019
3 1020 1021 1022
3 1023 1024 1025
3 1026 1027 1028
3 1029 1030 1031
3 1032 1033 1034
3 1035 1036 1037
3 1038 1039 1040
3 1041 1042 1043
3 1044 1045 1046
3 1047 1048 1049
3 1050 1051 1052
3 1053 1054 1055
3 1056 1057 1058
3 1059 1060 1061
3 1062 1063 1064
3 1065 1066 1067
3 1068 1069 1070
3 1071 1072 1073
3 1074 1075 1076
3 1077 1078 1079
3 1080 1081 1082
3 1083 1084 1085
3 1086 1087 1088
3 1089 1090 1091
3 1092 1093 1094
3 1095 1096 1097
3 1098 1099 1100
3 1101 1102 1103
3 1104 1105 1106
3 1107 1108 1109
3 1110 1111 1112
3 1113 1114 1115
3 1116 1117 1118
3 1119 1120 1121
3 1122 1123 1124
3 1125 1126 1127
3 1128 1129 1130
3 1131 1132 1133
3 1134 1135 1136
3 1137 1138 1139
3 1140 1141 1142
3 1143 1144 1145
3 1146 1147 1148
3 1149 1150 1151
3 1152 1153 1154
3 1155 1156 1157
3 1158 1159 1160
3 1161 1162 1163
3 1164 1165 1166
3 1167 1168 1169
3 1170 1171 1172
3 1173 1174 1175
3 1176 1177 1178
3 1179 1180 1181
3 1182 1183 1184
3 1185 1186 1187
3 1188 1189 1190
3 1191 1192 1193
3 1194 1195 1196
3 1197 1198 1199
