ply
format ascii 1.0
element vertex 48
property float x
property float y
property float z
element face 16
property list uchar int vertex_indices
end_header
0 8.5 3.5
9 0 3.5
0 0 3.5
9 0 3.5
0 8.5 3.5
9 8.5 3.5
0 0 0
0 8.5 3.5
0 0 3.5
0 8.5 3.5
0 0 0
0 8.5 0
0 0 3.5
9 0 0
0 0 0
9 0 0
0 0 3.5
9 0 3.5
0 8.5 0
9 8.5 3.5
0 8.5 3.5
9 8.5 3.5
0 8.5 0
9 8.5 0
9 0 3.5
9 3.9750000000000005 0
9 0 0
9 3.9750000000000005 0
9 0 3.5
9 3.9750000000000005 3.5
9 5.3750000000000009 3.5
9 8.5 0
9 5.3750000000000009 0
9 8.5 0
9 5.3750000000000009 3.5
9 8.5 3.5
9 3.9750000000000005 1.7749999999999999
9 5.3750000000000009 0
9 3.9750000000000005 0
9 5.3750000000000009 0
9 3.9750000000000005 1.7749999999999999
9 5.3750000000000009 1.7749999999999999
9 3.9750000000000005 3.5
9 5.3750000000000009 2.7749999999999999
9 3.9750000000000005 2.7749999999999999
9 5.3750000000000009 2.7749999999999999
9 3.9750000000000005 3.5
9 5.3750000000000009 3.5
3 0 1 2
3 3 4 5
3 6 7 8
3 9 10 11
3 12 13 14
3 15 16 17
3 18 19 20
3 21 22 23
3 24 25 26
3 27 28 29
3 30 31 32
3 33 34 35
3 36 37 38
3 39 40 41
3 42 43 44
3 45 46 47
