ply
format ascii 1.0
element vertex 24
property float x
property float y
property float z
element face 8
property list uchar int vertex_indices
end_header
3.2999999999999998 4.8999999999999995 1.8
6.2999999999999998 4.8999999999999995 0
3.2999999999999998 4.8999999999999995 0
6.2999999999999998 4.8999999999999995 0
3.2999999999999998 4.8999999999999995 1.8
6.2999999999999998 4.8999999999999995 1.8
8.8000000000000007 6.9000000000000004 0
8.8000000000000007 9.9000000000000004 1.8
8.8000000000000007 6.9000000000000004 1.8
8.8000000000000007 9.9000000000000004 1.8
8.8000000000000007 6.9000000000000004 0
8.8000000000000007 9.9000000000000004 0
9.6999999999999993 4.2000000000000002 1.8
12.699999999999999 4.2000000000000002 0
9.6999999999999993 4.2000000000000002 0
12.699999999999999 4.2000000000000002 0
9.6999999999999993 4.2000000000000002 1.8
12.699999999999999 4.2000000000000002 1.8
6.4000000000000004 8.2999999999999989 0
6.4000000000000004 11.299999999999999 1.8
6.4000000000000004 8.2999999999999989 1.8
6.4000000000000004 11.299999999999999 1.8
6.4000000000000004 8.2999999999999989 0
6.4000000000000004 11.299999999999999 0
3 0 1 2
3 3 4 5
3 6 7 8
3 9 10 11
3 12 13 14
3 15 16 17
3 18 19 20
3 21 22 23
