ply
format ascii 1.0
element vertex 6
property float x
property float y
property float z
element face 2
property list uchar int vertex_indices
end_header
7.5026264065483357 2.0323824519034588 2.7065365787283411
7.5026264065483357 3.4323824519034591 1.7065365787283411
7.5026264065483357 2.0323824519034588 1.7065365787283411
7.5026264065483357 3.4323824519034591 1.7065365787283411
7.5026264065483357 2.0323824519034588 2.7065365787283411
7.5026264065483357 3.4323824519034591 2.7065365787283411
3 0 1 2
3 3 4 5
