ply
format ascii 1.0
element vertex 6
property float x
property float y
property float z
element face 2
property list uchar int vertex_indices
end_header
6.8847787426529106 2.1649921814785609 2.8209432589460888
6.8847787426529106 3.5649921814785612 1.8209432589460888
6.8847787426529106 2.1649921814785609 1.8209432589460888
6.8847787426529106 3.5649921814785612 1.8209432589460888
6.8847787426529106 2.1649921814785609 2.8209432589460888
6.8847787426529106 3.5649921814785612 2.8209432589460888
3 0 1 2
3 3 4 5
