ply
format ascii 1.0
element vertex 48
property float x
property float y
property float z
element face 16
property list uchar int vertex_indices
end_header
0 5.2090766935973836 3.5706819368401361
6.8847787426529106 0 3.5706819368401361
0 0 3.5706819368401361
6.8847787426529106 0 3.5706819368401361
0 5.2090766935973836 3.5706819368401361
6.8847787426529106 5.2090766935973836 3.5706819368401361
0 0 0
0 5.2090766935973836 3.5706819368401361
0 0 3.5706819368401361
0 5.2090766935973836 3.5706819368401361
0 0 0
0 5.2090766935973836 0
0 0 3.5706819368401361
6.8847787426529106 0 0
0 0 0
6.8847787426529106 0 0
0 0 3.5706819368401361
6.8847787426529106 0 3.5706819368401361
0 5.2090766935973836 0
6.8847787426529106 5.2090766935973836 3.5706819368401361
0 5.2090766935973836 3.5706819368401361
6.8847787426529106 5.2090766935973836 3.5706819368401361
0 5.2090766935973836 0
6.8847787426529106 5.2090766935973836 0
6.8847787426529106 2.1649921814785609 0
6.8847787426529106 0 0
6.8847787426529106 0 3.5706819368401361
6.8847787426529106 0 3.5706819368401361
6.8847787426529106 2.1649921814785609 3.5706819368401361
6.8847787426529106 2.1649921814785609 0
6.8847787426529106 3.5649921814785612 3.5706819368401361
6.8847787426529106 5.2090766935973836 0
6.8847787426529106 3.5649921814785612 0
6.8847787426529106 5.2090766935973836 0
6.8847787426529106 3.5649921814785612 3.5706819368401361
6.8847787426529106 5.2090766935973836 3.5706819368401361
6.8847787426529106 2.1649921814785609 1.8209432589460888
6.8847787426529106 3.5649921814785612 0
6.8847787426529106 2.1649921814785609 0
6.8847787426529106 3.5649921814785612 0
6.8847787426529106 2.1649921814785609 1.8209432589460888
6.8847787426529106 3.5649921814785612 1.8209432589460888
6.8847787426529106 2.1649921814785609 3.5706819368401361
6.8847787426529106 3.5649921814785612 2.8209432589460888
6.8847787426529106 2.1649921814785609 2.8209432589460888
6.8847787426529106 3.5649921814785612 2.8209432589460888
6.8847787426529106 2.1649921814785609 3.5706819368401361
6.8847787426529106 3.5649921814785612 3.5706819368401361
3 0 1 2
3 3 4 5
3 6 7 8
3 9 10 11
3 12 13 14
3 15 16 17
3 18 19 20
3 21 22 23
3 24 25 26
3 27 28 29
3 30 31 32
3 33 34 35
3 36 37 38
3 39 40 41
3 42 43 44
3 45 46 47
