ply
format ascii 1.0
element vertex 6
property float x
property float y
property float z
element face 2
property list uchar int vertex_indices
end_header
7.2553533007406816 3.580151965809697 1.7306490798545489
7.2553533007406816 2.1801519658096975 1.7306490798545489
7.2553533007406816 2.1801519658096975 2.7306490798545489
7.2553533007406816 2.1801519658096975 2.7306490798545489
7.2553533007406816 3.580151965809697 2.7306490798545489
7.2553533007406816 3.580151965809697 1.7306490798545489
3 0 1 2
3 3 4 5
