ply
format ascii 1.0
element vertex 48
property float x
property float y
property float z
element face 16
property list uchar int vertex_indices
end_header
0 5.2366399378358128 3.4317678151608439
7.2553533007406816 0 3.4317678151608439
0 0 3.4317678151608439
7.2553533007406816 0 3.4317678151608439
0 5.2366399378358128 3.4317678151608439
7.2553533007406816 5.2366399378358128 3.4317678151608439
0 0 0
0 5.2366399378358128 3.4317678151608439
0 0 3.4317678151608439
0 5.2366399378358128 3.4317678151608439
0 0 0
0 5.2366399378358128 0
7.2553533007406816 0 0
0 0 0
0 0 3.4317678151608439
0 0 3.4317678151608439
7.2553533007406816 0 3.4317678151608439
7.2553533007406816 0 0
7.2553533007406816 5.2366399378358128 3.4317678151608439
0 5.2366399378358128 3.4317678151608439
0 5.2366399378358128 0
0 5.2366399378358128 0
7.2553533007406816 5.2366399378358128 0
7.2553533007406816 5.2366399378358128 3.4317678151608439
7.2553533007406816 0 3.4317678151608439
7.2553533007406816 2.1801519658096975 0
7.2553533007406816 0 0
7.2553533007406816 2.1801519658096975 0
7.2553533007406816 0 3.4317678151608439
7.2553533007406816 2.1801519658096975 3.4317678151608439
7.2553533007406816 3.580151965809697 3.4317678151608439
7.2553533007406816 5.2366399378358128 0
7.2553533007406816 3.580151965809697 0
7.2553533007406816 5.2366399378358128 0
7.2553533007406816 3.580151965809697 3.4317678151608439
7.2553533007406816 5.2366399378358128 3.4317678151608439
7.2553533007406816 2.1801519658096975 1.7306490798545489
7.2553533007406816 3.580151965809697 0
7.2553533007406816 2.1801519658096975 0
7.2553533007406816 3.580151965809697 0
7.2553533007406816 2.1801519658096975 1.7306490798545489
7.2553533007406816 3.580151965809697 1.7306490798545489
7.2553533007406816 2.1801519658096975 3.4317678151608439
7.2553533007406816 3.580151965809697 2.7306490798545489
7.2553533007406816 2.1801519658096975 2.7306490798545489
7.2553533007406816 3.580151965809697 2.7306490798545489
7.2553533007406816 2.1801519658096975 3.4317678151608439
7.2553533007406816 3.580151965809697 3.4317678151608439
3 0 1 2
3 3 4 5
3 6 7 8
3 9 10 11
3 12 13 14
3 15 16 17
3 18 19 20
3 21 22 23
3 24 25 26
3 27 28 29
3 30 31 32
3 33 34 35
3 36 37 38
3 39 40 41
3 42 43 44
3 45 46 47
