ply
format ascii 1.0
element vertex 6
property float x
property float y
property float z
element face 2
property list uchar int vertex_indices
end_header
6.3766978450277367 1.8774456371914001 2.5027711195699851
6.3766978450277367 3.2774456371914003 1.5027711195699851
6.3766978450277367 1.8774456371914001 1.5027711195699851
6.3766978450277367 3.2774456371914003 1.5027711195699851
6.3766978450277367 1.8774456371914001 2.5027711195699851
6.3766978450277367 3.2774456371914003 2.5027711195699851
3 0 1 2
3 3 4 5
