ply
format ascii 1.0
element vertex 48
property float x
property float y
property float z
element face 16
property list uchar int vertex_indices
end_header
0 4.6862647948934546 3.0811863377999771
6.3766978450277367 0 3.0811863377999771
0 0 3.0811863377999771
6.3766978450277367 0 3.0811863377999771
0 4.6862647948934546 3.0811863377999771
6.3766978450277367 4.6862647948934546 3.0811863377999771
0 0 0
0 4.6862647948934546 3.0811863377999771
0 0 3.0811863377999771
0 4.6862647948934546 3.0811863377999771
0 0 0
0 4.6862647948934546 0
6.3766978450277367 0 0
0 0 0
0 0 3.0811863377999771
0 0 3.0811863377999771
6.3766978450277367 0 3.0811863377999771
6.3766978450277367 0 0
6.3766978450277367 4.6862647948934546 3.0811863377999771
0 4.6862647948934546 3.0811863377999771
0 4.6862647948934546 0
0 4.6862647948934546 0
6.3766978450277367 4.6862647948934546 0
6.3766978450277367 4.6862647948934546 3.0811863377999771
6.3766978450277367 0 3.0811863377999771
6.3766978450277367 1.8774456371914001 0
6.3766978450277367 0 0
6.3766978450277367 1.8774456371914001 0
6.3766978450277367 0 3.0811863377999771
6.3766978450277367 1.8774456371914001 3.0811863377999771
6.3766978450277367 3.2774456371914003 3.0811863377999771
6.3766978450277367 4.6862647948934546 0
6.3766978450277367 3.2774456371914003 0
6.3766978450277367 4.6862647948934546 0
6.3766978450277367 3.2774456371914003 3.0811863377999771
6.3766978450277367 4.6862647948934546 3.0811863377999771
6.3766978450277367 1.8774456371914001 1.5027711195699851
6.3766978450277367 3.2774456371914003 0
6.3766978450277367 1.8774456371914001 0
6.3766978450277367 3.2774456371914003 0
6.3766978450277367 1.8774456371914001 1.5027711195699851
6.3766978450277367 3.2774456371914003 1.5027711195699851
6.3766978450277367 3.2774456371914003 2.5027711195699851
6.3766978450277367 1.8774456371914001 2.5027711195699851
6.3766978450277367 1.8774456371914001 3.0811863377999771
6.3766978450277367 1.8774456371914001 3.0811863377999771
6.3766978450277367 3.2774456371914003 3.0811863377999771
6.3766978450277367 3.2774456371914003 2.5027711195699851
3 0 1 2
3 3 4 5
3 6 7 8
3 9 10 11
3 12 13 14
3 15 16 17
3 18 19 20
3 21 22 23
3 24 25 26
3 27 28 29
3 30 31 32
3 33 34 35
3 36 37 38
3 39 40 41
3 42 43 44
3 45 46 47
