ply
format ascii 1.0
element vertex 6
property float x
property float y
property float z
element face 2
property list uchar int vertex_indices
end_header
7.4257660114590944 2.2447486349967081 2.7718982106666048
7.4257660114590944 3.6447486349967084 1.7718982106666048
7.4257660114590944 2.2447486349967081 1.7718982106666048
7.4257660114590944 3.6447486349967084 1.7718982106666048
7.4257660114590944 2.2447486349967081 2.7718982106666048
7.4257660114590944 3.6447486349967084 2.7718982106666048
3 0 1 2
3 3 4 5
