ply
format ascii 1.0
element vertex 48
property float x
property float y
property float z
element face 16
property list uchar int vertex_indices
end_header
0 5.3540884272667419 3.4952280164101608
7.4257660114590944 0 3.4952280164101608
0 0 3.4952280164101608
7.4257660114590944 0 3.4952280164101608
0 5.3540884272667419 3.4952280164101608
7.4257660114590944 5.3540884272667419 3.4952280164101608
0 0 0
0 5.3540884272667419 3.4952280164101608
0 0 3.4952280164101608
0 5.3540884272667419 3.4952280164101608
0 0 0
0 5.3540884272667419 0
0 0 3.4952280164101608
7.4257660114590944 0 0
0 0 0
7.4257660114590944 0 0
0 0 3.4952280164101608
7.4257660114590944 0 3.4952280164101608
0 5.3540884272667419 0
7.4257660114590944 5.3540884272667419 3.4952280164101608
0 5.3540884272667419 3.4952280164101608
7.4257660114590944 5.3540884272667419 3.4952280164101608
0 5.3540884272667419 0
7.4257660114590944 5.3540884272667419 0
7.4257660114590944 0 3.4952280164101608
7.4257660114590944 2.2447486349967081 0
7.4257660114590944 0 0
7.4257660114590944 2.2447486349967081 0
7.4257660114590944 0 3.4952280164101608
7.4257660114590944 2.2447486349967081 3.4952280164101608
7.4257660114590944 5.3540884272667419 0
7.4257660114590944 3.6447486349967084 0
7.4257660114590944 3.6447486349967084 3.4952280164101608
7.4257660114590944 3.6447486349967084 3.4952280164101608
7.4257660114590944 5.3540884272667419 3.4952280164101608
7.4257660114590944 5.3540884272667419 0
7.4257660114590944 2.2447486349967081 1.7718982106666048
7.4257660114590944 3.6447486349967084 0
7.4257660114590944 2.2447486349967081 0
7.4257660114590944 3.6447486349967084 0
7.4257660114590944 2.2447486349967081 1.7718982106666048
7.4257660114590944 3.6447486349967084 1.7718982106666048
7.4257660114590944 2.2447486349967081 3.4952280164101608
7.4257660114590944 3.6447486349967084 2.7718982106666048
7.4257660114590944 2.2447486349967081 2.7718982106666048
7.4257660114590944 3.6447486349967084 2.7718982106666048
7.4257660114590944 2.2447486349967081 3.4952280164101608
7.4257660114590944 3.6447486349967084 3.4952280164101608
3 0 1 2
3 3 4 5
3 6 7 8
3 9 10 11
3 12 13 14
3 15 16 17
3 18 19 20
3 21 22 23
3 24 25 26
3 27 28 29
3 30 31 32
3 33 34 35
3 36 37 38
3 39 40 41
3 42 43 44
3 45 46 47
