ply
format ascii 1.0
element vertex 24
property float x
property float y
property float z
element face 8
property list uchar int vertex_indices
end_header
4.5 6.2999999999999998 1.8
7.5 6.2999999999999998 0
4.5 6.2999999999999998 0
7.5 6.2999999999999998 0
4.5 6.2999999999999998 1.8
7.5 6.2999999999999998 1.8
11 9.2999999999999989 0
11 12.299999999999999 1.8
11 9.2999999999999989 1.8
11 12.299999999999999 1.8
11 9.2999999999999989 0
11 12.299999999999999 0
12.5 5.3999999999999995 1.8
15.5 5.3999999999999995 0
12.5 5.3999999999999995 0
15.5 5.3999999999999995 0
12.5 5.3999999999999995 1.8
15.5 5.3999999999999995 1.8
8 11.1 0
8 14.1 1.8
8 11.1 1.8
8 14.1 1.8
8 11.1 0
8 14.1 0
3 0 1 2
3 3 4 5
3 6 7 8
3 9 10 11
3 12 13 14
3 15 16 17
3 18 19 20
3 21 22 23
