ply
format ascii 1.0
element vertex 6
property float x
property float y
property float z
element face 2
property list uchar int vertex_indices
end_header
5.9274902879968874 1.8707312891187475 2.5215523941553402
5.9274902879968874 3.2707312891187472 1.5215523941553402
5.9274902879968874 1.8707312891187475 1.5215523941553402
5.9274902879968874 3.2707312891187472 1.5215523941553402
5.9274902879968874 1.8707312891187475 2.5215523941553402
5.9274902879968874 3.2707312891187472 2.5215523941553402
3 0 1 2
3 3 4 5
