ply
format ascii 1.0
element vertex 30
property float x
property float y
property float z
element face 10
property list uchar int vertex_indices
end_header
7.5111656249683403 0 3.9386406725968177
0 0 3.9386406725968177
0 8.484717712838977 3.9386406725968177
0 8.484717712838977 3.9386406725968177
7.5111656249683403 8.484717712838977 3.9386406725968177
7.5111656249683403 0 3.9386406725968177
0 0 0
0 8.484717712838977 3.9386406725968177
0 0 3.9386406725968177
0 8.484717712838977 3.9386406725968177
0 0 0
0 8.484717712838977 0
7.5111656249683403 0 3.9386406725968177
7.5111656249683403 8.484717712838977 0
7.5111656249683403 0 0
7.5111656249683403 8.484717712838977 0
7.5111656249683403 0 3.9386406725968177
7.5111656249683403 8.484717712838977 3.9386406725968177
0 0 3.9386406725968177
7.5111656249683403 0 0
0 0 0
7.5111656249683403 0 0
0 0 3.9386406725968177
7.5111656249683403 0 3.9386406725968177
0 8.484717712838977 0
7.5111656249683403 8.484717712838977 3.9386406725968177
0 8.484717712838977 3.9386406725968177
7.5111656249683403 8.484717712838977 3.9386406725968177
0 8.484717712838977 0
7.5111656249683403 8.484717712838977 0
3 0 1 2
3 3 4 5
3 6 7 8
3 9 10 11
3 12 13 14
3 15 16 17
3 18 19 20
3 21 22 23
3 24 25 26
3 27 28 29
