ply
format ascii 1.0
element vertex 6
property float x
property float y
property float z
element face 2
property list uchar int vertex_indices
end_header
5.9962717127404526 1.8938797529941296 2.6361973522778546
5.9962717127404526 3.2938797529941297 1.6361973522778546
5.9962717127404526 1.8938797529941296 1.6361973522778546
5.9962717127404526 3.2938797529941297 1.6361973522778546
5.9962717127404526 1.8938797529941296 2.6361973522778546
5.9962717127404526 3.2938797529941297 2.6361973522778546
3 0 1 2
3 3 4 5
