ply
format ascii 1.0
element vertex 48
property float x
property float y
property float z
element face 16
property list uchar int vertex_indices
end_header
0 4.7161450054438712 3.2864574650428531
5.9962717127404526 0 3.2864574650428531
0 0 3.2864574650428531
5.9962717127404526 0 3.2864574650428531
0 4.7161450054438712 3.2864574650428531
5.9962717127404526 4.7161450054438712 3.2864574650428531
0 0 0
0 4.7161450054438712 3.2864574650428531
0 0 3.2864574650428531
0 4.7161450054438712 3.2864574650428531
0 0 0
0 4.7161450054438712 0
0 0 3.2864574650428531
5.9962717127404526 0 0
0 0 0
5.9962717127404526 0 0
0 0 3.2864574650428531
5.9962717127404526 0 3.2864574650428531
0 4.7161450054438712 0
5.9962717127404526 4.7161450054438712 3.2864574650428531
0 4.7161450054438712 3.2864574650428531
5.9962717127404526 4.7161450054438712 3.2864574650428531
0 4.7161450054438712 0
5.9962717127404526 4.7161450054438712 0
5.9962717127404526 1.8938797529941296 0
5.9962717127404526 0 0
5.9962717127404526 0 3.2864574650428531
5.9962717127404526 0 3.2864574650428531
5.9962717127404526 1.8938797529941296 3.2864574650428531
5.9962717127404526 1.8938797529941296 0
5.9962717127404526 3.2938797529941297 3.2864574650428531
5.9962717127404526 4.7161450054438712 0
5.9962717127404526 3.2938797529941297 0
5.9962717127404526 4.7161450054438712 0
5.9962717127404526 3.2938797529941297 3.2864574650428531
5.9962717127404526 4.7161450054438712 3.2864574650428531
5.9962717127404526 1.8938797529941296 1.6361973522778546
5.9962717127404526 3.2938797529941297 0
5.9962717127404526 1.8938797529941296 0
5.9962717127404526 3.2938797529941297 0
5.9962717127404526 1.8938797529941296 1.6361973522778546
5.9962717127404526 3.2938797529941297 1.6361973522778546
5.9962717127404526 1.8938797529941296 3.2864574650428531
5.9962717127404526 3.2938797529941297 2.6361973522778546
5.9962717127404526 1.8938797529941296 2.6361973522778546
5.9962717127404526 3.2938797529941297 2.6361973522778546
5.9962717127404526 1.8938797529941296 3.2864574650428531
5.9962717127404526 3.2938797529941297 3.2864574650428531
3 0 1 2
3 3 4 5
3 6 7 8
3 9 10 11
3 12 13 14
3 15 16 17
3 18 19 20
3 21 22 23
3 24 25 26
3 27 28 29
3 30 31 32
3 33 34 35
3 36 37 38
3 39 40 41
3 42 43 44
3 45 46 47
