ply
format ascii 1.0
element vertex 54
property float x
property float y
property float z
element face 18
property list uchar int vertex_indices
end_header
0 2.5 3.2000000000000002
28 0 3.2000000000000002
0 0 3.2000000000000002
28 0 3.2000000000000002
0 2.5 3.2000000000000002
28 2.5 3.2000000000000002
0 0 0
0 2.5 3.2000000000000002
0 0 3.2000000000000002
0 2.5 3.2000000000000002
0 0 0
0 2.5 0
28 0 3.2000000000000002
28 2.5 0
28 0 0
28 2.5 0
28 0 3.2000000000000002
28 2.5 3.2000000000000002
0 2.5 0
28 2.5 3.2000000000000002
0 2.5 3.2000000000000002
28 2.5 3.2000000000000002
0 2.5 0
28 2.5 0
7.9500000000000002 0 0
0 0 0
0 0 3.2000000000000002
0 0 3.2000000000000002
7.9500000000000002 0 3.2000000000000002
7.9500000000000002 0 0
8.8499999999999996 0 3.2000000000000002
19.149999999999999 0 0
8.8499999999999996 0 0
19.149999999999999 0 0
8.8499999999999996 0 3.2000000000000002
19.149999999999999 0 3.2000000000000002
20.049999999999997 0 3.2000000000000002
28 0 0
20.049999999999997 0 0
28 0 0
20.049999999999997 0 3.2000000000000002
28 0 3.2000000000000002
19.149999999999999 0 3.2000000000000002
20.049999999999997 0 2.1000000000000001
19.149999999999999 0 2.1000000000000001
20.049999999999997 0 2.1000000000000001
19.149999999999999 0 3.2000000000000002
20.049999999999997 0 3.2000000000000002
8.8499999999999996 0 2.1000000000000001
7.9500000000000002 0 2.1000000000000001
7.9500000000000002 0 3.2000000000000002
7.9500000000000002 0 3.2000000000000002
8.8499999999999996 0 3.2000000000000002
8.8499999999999996 0 2.1000000000000001
3 0 1 2
3 3 4 5
3 6 7 8
3 9 10 11
3 12 13 14
3 15 16 17
3 18 19 20
3 21 22 23
3 24 25 26
3 27 28 29
3 30 31 32
3 33 34 35
3 36 37 38
3 39 40 41
3 42 43 44
3 45 46 47
3 48 49 50
3 51 52 53
