ply
format ascii 1.0
element vertex 30
property float x
property float y
property float z
element face 10
property list uchar int vertex_indices
end_header
2.7999999999999989 0.94999999999999996 3.1000000000000001
2.7999999999999989 1.55 2.6999999999999997
2.7999999999999989 0.94999999999999996 2.6999999999999997
2.7999999999999989 1.55 2.6999999999999997
2.7999999999999989 0.94999999999999996 3.1000000000000001
2.7999999999999989 1.55 3.1000000000000001
25.200000000000003 0.94999999999999996 2.6999999999999997
25.200000000000003 1.55 3.1000000000000001
25.200000000000003 0.94999999999999996 3.1000000000000001
25.200000000000003 1.55 3.1000000000000001
25.200000000000003 0.94999999999999996 2.6999999999999997
25.200000000000003 1.55 2.6999999999999997
2.7999999999999989 0.94999999999999996 2.6999999999999997
25.200000000000003 0.94999999999999996 3.1000000000000001
2.7999999999999989 0.94999999999999996 3.1000000000000001
25.200000000000003 0.94999999999999996 3.1000000000000001
2.7999999999999989 0.94999999999999996 2.6999999999999997
25.200000000000003 0.94999999999999996 2.6999999999999997
2.7999999999999989 1.55 3.1000000000000001
25.200000000000003 1.55 2.6999999999999997
2.7999999999999989 1.55 2.6999999999999997
25.200000000000003 1.55 2.6999999999999997
2.7999999999999989 1.55 3.1000000000000001
25.200000000000003 1.55 3.1000000000000001
2.7999999999999989 0.94999999999999996 3.1000000000000001
25.200000000000003 1.55 3.1000000000000001
2.7999999999999989 1.55 3.1000000000000001
25.200000000000003 1.55 3.1000000000000001
2.7999999999999989 0.94999999999999996 3.1000000000000001
25.200000000000003 0.94999999999999996 3.1000000000000001
3 0 1 2
3 3 4 5
3 6 7 8
3 9 10 11
3 12 13 14
3 15 16 17
3 18 19 20
3 21 22 23
3 24 25 26
3 27 28 29
