ply
format ascii 1.0
element vertex 96
property float x
property float y
property float z
element face 32
property list uchar int vertex_indices
end_header
1.075 1.1680231715035001 3.9001903398113877
1.075 1.4180231715035001 0
1.075 1.1680231715035001 0
1.075 1.4180231715035001 0
1.075 1.1680231715035001 3.9001903398113877
1.075 1.4180231715035001 3.9001903398113877
1.325 1.1680231715035001 0
1.325 1.4180231715035001 3.9001903398113877
1.325 1.1680231715035001 3.9001903398113877
1.325 1.4180231715035001 3.9001903398113877
1.325 1.1680231715035001 0
1.325 1.4180231715035001 0
1.075 1.1680231715035001 0
1.325 1.1680231715035001 3.9001903398113877
1.075 1.1680231715035001 3.9001903398113877
1.325 1.1680231715035001 3.9001903398113877
1.075 1.1680231715035001 0
1.325 1.1680231715035001 0
1.075 1.4180231715035001 3.9001903398113877
1.325 1.4180231715035001 0
1.075 1.4180231715035001 0
1.325 1.4180231715035001 0
1.075 1.4180231715035001 3.9001903398113877
1.325 1.4180231715035001 3.9001903398113877
1.075 7.2021313051865006 3.9001903398113877
1.075 7.4521313051865006 0
1.075 7.2021313051865006 0
1.075 7.4521313051865006 0
1.075 7.2021313051865006 3.9001903398113877
1.075 7.4521313051865006 3.9001903398113877
1.325 7.2021313051865006 0
1.325 7.4521313051865006 3.9001903398113877
1.325 7.2021313051865006 3.9001903398113877
1.325 7.4521313051865006 3.9001903398113877
1.325 7.2021313051865006 0
1.325 7.4521313051865006 0
1.075 7.2021313051865006 0
1.325 7.2021313051865006 3.9001903398113877
1.075 7.2021313051865006 3.9001903398113877
1.325 7.2021313051865006 3.9001903398113877
1.075 7.2021313051865006 0
1.325 7.2021313051865006 0
1.075 7.4521313051865006 3.9001903398113877
1.325 7.4521313051865006 0
1.075 7.4521313051865006 0
1.325 7.4521313051865006 0
1.075 7.4521313051865006 3.9001903398113877
1.325 7.4521313051865006 3.9001903398113877
6.6247369742389601 1.1680231715035001 3.9001903398113877
6.6247369742389601 1.4180231715035001 0
6.6247369742389601 1.1680231715035001 0
6.6247369742389601 1.4180231715035001 0
6.6247369742389601 1.1680231715035001 3.9001903398113877
6.6247369742389601 1.4180231715035001 3.9001903398113877
6.8747369742389601 1.1680231715035001 0
6.8747369742389601 1.4180231715035001 3.9001903398113877
6.8747369742389601 1.1680231715035001 3.9001903398113877
6.8747369742389601 1.4180231715035001 3.9001903398113877
6.8747369742389601 1.1680231715035001 0
6.8747369742389601 1.4180231715035001 0
6.6247369742389601 1.1680231715035001 0
6.8747369742389601 1.1680231715035001 3.9001903398113877
6.6247369742389601 1.1680231715035001 3.9001903398113877
6.8747369742389601 1.1680231715035001 3.9001903398113877
6.6247369742389601 1.1680231715035001 0
6.8747369742389601 1.1680231715035001 0
6.6247369742389601 1.4180231715035001 3.9001903398113877
6.8747369742389601 1.4180231715035001 0
6.6247369742389601 1.4180231715035001 0
6.8747369742389601 1.4180231715035001 0
6.6247369742389601 1.4180231715035001 3.9001903398113877
6.8747369742389601 1.4180231715035001 3.9001903398113877
6.6247369742389601 7.2021313051865006 3.9001903398113877
6.6247369742389601 7.4521313051865006 0
6.6247369742389601 7.2021313051865006 0
6.6247369742389601 7.4521313051865006 0
6.6247369742389601 7.2021313051865006 3.9001903398113877
6.6247369742389601 7.4521313051865006 3.9001903398113877
6.8747369742389601 7.2021313051865006 0
6.8747369742389601 7.4521313051865006 3.9001903398113877
6.8747369742389601 7.2021313051865006 3.9001903398113877
6.8747369742389601 7.4521313051865006 3.9001903398113877
6.8747369742389601 7.2021313051865006 0
6.8747369742389601 7.4521313051865006 0
6.6247369742389601 7.2021313051865006 0
6.8747369742389601 7.2021313051865006 3.9001903398113877
6.6247369742389601 7.2021313051865006 3.9001903398113877
6.8747369742389601 7.2021313051865006 3.9001903398113877
6.6247369742389601 7.2021313051865006 0
6.8747369742389601 7.2021313051865006 0
6.6247369742389601 7.4521313051865006 3.9001903398113877
6.8747369742389601 7.4521313051865006 0
6.6247369742389601 7.4521313051865006 0
6.8747369742389601 7.4521313051865006 0
6.6247369742389601 7.4521313051865006 3.9001903398113877
6.8747369742389601 7.4521313051865006 3.9001903398113877
3 0 1 2
3 3 4 5
3 6 7 8
3 9 10 11
3 12 13 14
3 15 16 17
3 18 19 20
3 21 22 23
3 24 25 26
3 27 28 29
3 30 31 32
3 33 34 35
3 36 37 38
3 39 40 41
3 42 43 44
3 45 46 47
3 48 49 50
3 51 52 53
3 54 55 56
3 57 58 59
3 60 61 62
3 63 64 65
3 66 67 68
3 69 70 71
3 72 73 74
3 75 76 77
3 78 79 80
3 81 82 83
3 84 85 86
3 87 88 89
3 90 91 92
3 93 94 95
