ply
format ascii 1.0
element vertex 6
property float x
property float y
property float z
element face 2
property list uchar int vertex_indices
end_header
6.7484965221721929 3.5546668958967347 1.8439791910785672
6.7484965221721929 2.1546668958967352 1.8439791910785672
6.7484965221721929 2.1546668958967352 2.8439791910785672
6.7484965221721929 2.1546668958967352 2.8439791910785672
6.7484965221721929 3.5546668958967347 2.8439791910785672
6.7484965221721929 3.5546668958967347 1.8439791910785672
3 0 1 2
3 3 4 5
