ply
format ascii 1.0
element vertex 48
property float x
property float y
property float z
element face 16
property list uchar int vertex_indices
end_header
0 5.1903034470849718 3.6061218324285647
6.7484965221721929 0 3.6061218324285647
0 0 3.6061218324285647
6.7484965221721929 0 3.6061218324285647
0 5.1903034470849718 3.6061218324285647
6.7484965221721929 5.1903034470849718 3.6061218324285647
0 0 0
0 5.1903034470849718 3.6061218324285647
0 0 3.6061218324285647
0 5.1903034470849718 3.6061218324285647
0 0 0
0 5.1903034470849718 0
0 0 3.6061218324285647
6.7484965221721929 0 0
0 0 0
6.7484965221721929 0 0
0 0 3.6061218324285647
6.7484965221721929 0 3.6061218324285647
0 5.1903034470849718 0
6.7484965221721929 5.1903034470849718 3.6061218324285647
0 5.1903034470849718 3.6061218324285647
6.7484965221721929 5.1903034470849718 3.6061218324285647
0 5.1903034470849718 0
6.7484965221721929 5.1903034470849718 0
6.7484965221721929 0 3.6061218324285647
6.7484965221721929 2.1546668958967352 0
6.7484965221721929 0 0
6.7484965221721929 2.1546668958967352 0
6.7484965221721929 0 3.6061218324285647
6.7484965221721929 2.1546668958967352 3.6061218324285647
6.7484965221721929 3.5546668958967347 3.6061218324285647
6.7484965221721929 5.1903034470849718 0
6.7484965221721929 3.5546668958967347 0
6.7484965221721929 5.1903034470849718 0
6.7484965221721929 3.5546668958967347 3.6061218324285647
6.7484965221721929 5.1903034470849718 3.6061218324285647
6.7484965221721929 2.1546668958967352 1.8439791910785672
6.7484965221721929 3.5546668958967347 0
6.7484965221721929 2.1546668958967352 0
6.7484965221721929 3.5546668958967347 0
6.7484965221721929 2.1546668958967352 1.8439791910785672
6.7484965221721929 3.5546668958967347 1.8439791910785672
6.7484965221721929 2.1546668958967352 3.6061218324285647
6.7484965221721929 3.5546668958967347 2.8439791910785672
6.7484965221721929 2.1546668958967352 2.8439791910785672
6.7484965221721929 3.5546668958967347 2.8439791910785672
6.7484965221721929 2.1546668958967352 3.6061218324285647
6.7484965221721929 3.5546668958967347 3.6061218324285647
3 0 1 2
3 3 4 5
3 6 7 8
3 9 10 11
3 12 13 14
3 15 16 17
3 18 19 20
3 21 22 23
3 24 25 26
3 27 28 29
3 30 31 32
3 33 34 35
3 36 37 38
3 39 40 41
3 42 43 44
3 45 46 47
