ply
format ascii 1.0
element vertex 96
property float x
property float y
property float z
element face 32
property list uchar int vertex_indices
end_header
1.1499182463177215 1.075 3.8734439957864177
1.1499182463177215 1.325 0
1.1499182463177215 1.075 0
1.1499182463177215 1.325 0
1.1499182463177215 1.075 3.8734439957864177
1.1499182463177215 1.325 3.8734439957864177
1.3999182463177215 1.075 0
1.3999182463177215 1.325 3.8734439957864177
1.3999182463177215 1.075 3.8734439957864177
1.3999182463177215 1.325 3.8734439957864177
1.3999182463177215 1.075 0
1.3999182463177215 1.325 0
1.1499182463177215 1.075 0
1.3999182463177215 1.075 3.8734439957864177
1.1499182463177215 1.075 3.8734439957864177
1.3999182463177215 1.075 3.8734439957864177
1.1499182463177215 1.075 0
1.3999182463177215 1.075 0
1.1499182463177215 1.325 3.8734439957864177
1.3999182463177215 1.325 0
1.1499182463177215 1.325 0
1.3999182463177215 1.325 0
1.1499182463177215 1.325 3.8734439957864177
1.3999182463177215 1.325 3.8734439957864177
1.1499182463177215 6.389227668954792 3.8734439957864177
1.1499182463177215 6.639227668954792 0
1.1499182463177215 6.389227668954792 0
1.1499182463177215 6.639227668954792 0
1.1499182463177215 6.389227668954792 3.8734439957864177
1.1499182463177215 6.639227668954792 3.8734439957864177
1.3999182463177215 6.389227668954792 0
1.3999182463177215 6.639227668954792 3.8734439957864177
1.3999182463177215 6.389227668954792 3.8734439957864177
1.3999182463177215 6.639227668954792 3.8734439957864177
1.3999182463177215 6.389227668954792 0
1.3999182463177215 6.639227668954792 0
1.1499182463177215 6.389227668954792 0
1.3999182463177215 6.389227668954792 3.8734439957864177
1.1499182463177215 6.389227668954792 3.8734439957864177
1.3999182463177215 6.389227668954792 3.8734439957864177
1.1499182463177215 6.389227668954792 0
1.3999182463177215 6.389227668954792 0
1.1499182463177215 6.639227668954792 3.8734439957864177
1.3999182463177215 6.639227668954792 0
1.1499182463177215 6.639227668954792 0
1.3999182463177215 6.639227668954792 0
1.1499182463177215 6.639227668954792 3.8734439957864177
1.3999182463177215 6.639227668954792 3.8734439957864177
7.0995367291337566 1.075 3.8734439957864177
7.0995367291337566 1.325 0
7.0995367291337566 1.075 0
7.0995367291337566 1.325 0
7.0995367291337566 1.075 3.8734439957864177
7.0995367291337566 1.325 3.8734439957864177
7.3495367291337566 1.075 0
7.3495367291337566 1.325 3.8734439957864177
7.3495367291337566 1.075 3.8734439957864177
7.3495367291337566 1.325 3.8734439957864177
7.3495367291337566 1.075 0
7.3495367291337566 1.325 0
7.0995367291337566 1.075 0
7.3495367291337566 1.075 3.8734439957864177
7.0995367291337566 1.075 3.8734439957864177
7.3495367291337566 1.075 3.8734439957864177
7.0995367291337566 1.075 0
7.3495367291337566 1.075 0
7.0995367291337566 1.325 3.8734439957864177
7.3495367291337566 1.325 0
7.0995367291337566 1.325 0
7.3495367291337566 1.325 0
7.0995367291337566 1.325 3.8734439957864177
7.3495367291337566 1.325 3.8734439957864177
7.0995367291337566 6.389227668954792 3.8734439957864177
7.0995367291337566 6.639227668954792 0
7.0995367291337566 6.389227668954792 0
7.0995367291337566 6.639227668954792 0
7.0995367291337566 6.389227668954792 3.8734439957864177
7.0995367291337566 6.639227668954792 3.8734439957864177
7.3495367291337566 6.389227668954792 0
7.3495367291337566 6.639227668954792 3.8734439957864177
7.3495367291337566 6.389227668954792 3.8734439957864177
7.3495367291337566 6.639227668954792 3.8734439957864177
7.3495367291337566 6.389227668954792 0
7.3495367291337566 6.639227668954792 0
7.0995367291337566 6.389227668954792 0
7.3495367291337566 6.389227668954792 3.8734439957864177
7.0995367291337566 6.389227668954792 3.8734439957864177
7.3495367291337566 6.389227668954792 3.8734439957864177
7.0995367291337566 6.389227668954792 0
7.3495367291337566 6.389227668954792 0
7.0995367291337566 6.639227668954792 3.8734439957864177
7.3495367291337566 6.639227668954792 0
7.0995367291337566 6.639227668954792 0
7.3495367291337566 6.639227668954792 0
7.0995367291337566 6.639227668954792 3.8734439957864177
7.3495367291337566 6.639227668954792 3.8734439957864177
3 0 1 2
3 3 4 5
3 6 7 8
3 9 10 11
3 12 13 14
3 15 16 17
3 18 19 20
3 21 22 23
3 24 25 26
3 27 28 29
3 30 31 32
3 33 34 35
3 36 37 38
3 39 40 41
3 42 43 44
3 45 46 47
3 48 49 50
3 51 52 53
3 54 55 56
3 57 58 59
3 60 61 62
3 63 64 65
3 66 67 68
3 69 70 71
3 72 73 74
3 75 76 77
3 78 79 80
3 81 82 83
3 84 85 86
3 87 88 89
3 90 91 92
3 93 94 95
