ply
format ascii 1.0
element vertex 30
property float x
property float y
property float z
element face 10
property list uchar int vertex_indices
end_header
0 7.7142276689547922 3.8734439957864177
8.4994549754514779 0 3.8734439957864177
0 0 3.8734439957864177
8.4994549754514779 0 3.8734439957864177
0 7.7142276689547922 3.8734439957864177
8.4994549754514779 7.7142276689547922 3.8734439957864177
0 0 0
0 7.7142276689547922 3.8734439957864177
0 0 3.8734439957864177
0 7.7142276689547922 3.8734439957864177
0 0 0
0 7.7142276689547922 0
8.4994549754514779 0 3.8734439957864177
8.4994549754514779 7.7142276689547922 0
8.4994549754514779 0 0
8.4994549754514779 7.7142276689547922 0
8.4994549754514779 0 3.8734439957864177
8.4994549754514779 7.7142276689547922 3.8734439957864177
0 0 3.8734439957864177
8.4994549754514779 0 0
0 0 0
8.4994549754514779 0 0
0 0 3.8734439957864177
8.4994549754514779 0 3.8734439957864177
0 7.7142276689547922 0
8.4994549754514779 7.7142276689547922 3.8734439957864177
0 7.7142276689547922 3.8734439957864177
8.4994549754514779 7.7142276689547922 3.8734439957864177
0 7.7142276689547922 0
8.4994549754514779 7.7142276689547922 0
3 0 1 2
3 3 4 5
3 6 7 8
3 9 10 11
3 12 13 14
3 15 16 17
3 18 19 20
3 21 22 23
3 24 25 26
3 27 28 29
