ply
format ascii 1.0
element vertex 48
property float x
property float y
property float z
element face 16
property list uchar int vertex_indices
end_header
0 6 3
10 0 3
0 0 3
10 0 3
0 6 3
10 6 3
0 0 0
0 6 3
0 0 3
0 6 3
0 0 0
0 6 0
0 0 3
10 0 0
0 0 0
10 0 0
0 0 3
10 0 3
0 6 0
10 6 3
0 6 3
10 6 3
0 6 0
10 6 0
10 2.6000000000000005 0
10 0 0
10 0 3
10 0 3
10 2.6000000000000005 3
10 2.6000000000000005 0
10 4 3
10 6 0
10 4 0
10 6 0
10 4 3
10 6 3
10 2.6000000000000005 1.4500000000000002
10 4 0
10 2.6000000000000005 0
10 4 0
10 2.6000000000000005 1.4500000000000002
10 4 1.4500000000000002
10 2.6000000000000005 3
10 4 2.4500000000000002
10 2.6000000000000005 2.4500000000000002
10 4 2.4500000000000002
10 2.6000000000000005 3
10 4 3
3 0 1 2
3 3 4 5
3 6 7 8
3 9 10 11
3 12 13 14
3 15 16 17
3 18 19 20
3 21 22 23
3 24 25 26
3 27 28 29
3 30 31 32
3 33 34 35
3 36 37 38
3 39 40 41
3 42 43 44
3 45 46 47
