ply
format ascii 1.0
element vertex 48
property float x
property float y
property float z
element face 16
property list uchar int vertex_indices
end_header
0 4 3
5.5 0 3
0 0 3
5.5 0 3
0 4 3
5.5 4 3
0 0 0
0 4 3
0 0 3
0 4 3
0 0 0
0 4 0
0 0 3
5.5 0 0
0 0 0
5.5 0 0
0 0 3
5.5 0 3
0 4 0
5.5 4 3
0 4 3
5.5 4 3
0 4 0
5.5 4 0
5.5 1.5000000000000002 0
5.5 0 0
5.5 0 3
5.5 0 3
5.5 1.5000000000000002 3
5.5 1.5000000000000002 0
5.5 2.9000000000000004 3
5.5 4 0
5.5 2.9000000000000004 0
5.5 4 0
5.5 2.9000000000000004 3
5.5 4 3
5.5 1.5000000000000002 1.4500000000000002
5.5 2.9000000000000004 0
5.5 1.5000000000000002 0
5.5 2.9000000000000004 0
5.5 1.5000000000000002 1.4500000000000002
5.5 2.9000000000000004 1.4500000000000002
5.5 1.5000000000000002 3
5.5 2.9000000000000004 2.4500000000000002
5.5 1.5000000000000002 2.4500000000000002
5.5 2.9000000000000004 2.4500000000000002
5.5 1.5000000000000002 3
5.5 2.9000000000000004 3
3 0 1 2
3 3 4 5
3 6 7 8
3 9 10 11
3 12 13 14
3 15 16 17
3 18 19 20
3 21 22 23
3 24 25 26
3 27 28 29
3 30 31 32
3 33 34 35
3 36 37 38
3 39 40 41
3 42 43 44
3 45 46 47
