ply
format ascii 1.0
element vertex 24
property float x
property float y
property float z
element face 8
property list uchar int vertex_indices
end_header
5.0999999999999996 7 1.8
8.0999999999999996 7 0
5.0999999999999996 7 0
8.0999999999999996 7 0
5.0999999999999996 7 1.8
8.0999999999999996 7 1.8
12.100000000000001 10.5 0
12.100000000000001 13.5 1.8
12.100000000000001 10.5 1.8
12.100000000000001 13.5 1.8
12.100000000000001 10.5 0
12.100000000000001 13.5 0
13.899999999999999 6 1.8
16.899999999999999 6 0
13.899999999999999 6 0
16.899999999999999 6 0
13.899999999999999 6 1.8
16.899999999999999 6 1.8
8.8000000000000007 12.5 0
8.8000000000000007 15.5 1.8
8.8000000000000007 12.5 1.8
8.8000000000000007 15.5 1.8
8.8000000000000007 12.5 0
8.8000000000000007 15.5 0
3 0 1 2
3 3 4 5
3 6 7 8
3 9 10 11
3 12 13 14
3 15 16 17
3 18 19 20
3 21 22 23
