ply
format ascii 1.0
element vertex 6
property float x
property float y
property float z
element face 2
property list uchar int vertex_indices
end_header
6.3454128035693316 1.7780864036718393 2.5385010091719895
6.3454128035693316 3.1780864036718395 1.5385010091719895
6.3454128035693316 1.7780864036718393 1.5385010091719895
6.3454128035693316 3.1780864036718395 1.5385010091719895
6.3454128035693316 1.7780864036718393 2.5385010091719895
6.3454128035693316 3.1780864036718395 2.5385010091719895
3 0 1 2
3 3 4 5
