ply
format ascii 1.0
element vertex 48
property float x
property float y
property float z
element face 16
property list uchar int vertex_indices
end_header
6.3454128035693316 0 3.1361553987261375
0 0 3.1361553987261375
0 4.5056116430397077 3.1361553987261375
0 4.5056116430397077 3.1361553987261375
6.3454128035693316 4.5056116430397077 3.1361553987261375
6.3454128035693316 0 3.1361553987261375
0 0 0
0 4.5056116430397077 3.1361553987261375
0 0 3.1361553987261375
0 4.5056116430397077 3.1361553987261375
0 0 0
0 4.5056116430397077 0
0 0 3.1361553987261375
6.3454128035693316 0 0
0 0 0
6.3454128035693316 0 0
0 0 3.1361553987261375
6.3454128035693316 0 3.1361553987261375
0 4.5056116430397077 0
6.3454128035693316 4.5056116430397077 3.1361553987261375
0 4.5056116430397077 3.1361553987261375
6.3454128035693316 4.5056116430397077 3.1361553987261375
0 4.5056116430397077 0
6.3454128035693316 4.5056116430397077 0
6.3454128035693316 0 3.1361553987261375
6.3454128035693316 1.7780864036718393 0
6.3454128035693316 0 0
6.3454128035693316 1.7780864036718393 0
6.3454128035693316 0 3.1361553987261375
6.3454128035693316 1.7780864036718393 3.1361553987261375
6.3454128035693316 3.1780864036718395 3.1361553987261375
6.3454128035693316 4.5056116430397077 0
6.3454128035693316 3.1780864036718395 0
6.3454128035693316 4.5056116430397077 0
6.3454128035693316 3.1780864036718395 3.1361553987261375
6.3454128035693316 4.5056116430397077 3.1361553987261375
6.3454128035693316 1.7780864036718393 1.5385010091719895
6.3454128035693316 3.1780864036718395 0
6.3454128035693316 1.7780864036718393 0
6.3454128035693316 3.1780864036718395 0
6.3454128035693316 1.7780864036718393 1.5385010091719895
6.3454128035693316 3.1780864036718395 1.5385010091719895
6.3454128035693316 1.7780864036718393 3.1361553987261375
6.3454128035693316 3.1780864036718395 2.5385010091719895
6.3454128035693316 1.7780864036718393 2.5385010091719895
6.3454128035693316 3.1780864036718395 2.5385010091719895
6.3454128035693316 1.7780864036718393 3.1361553987261375
6.3454128035693316 3.1780864036718395 3.1361553987261375
3 0 1 2
3 3 4 5
3 6 7 8
3 9 10 11
3 12 13 14
3 15 16 17
3 18 19 20
3 21 22 23
3 24 25 26
3 27 28 29
3 30 31 32
3 33 34 35
3 36 37 38
3 39 40 41
3 42 43 44
3 45 46 47
