ply
format ascii 1.0
element vertex 24
property float x
property float y
property float z
element face 8
property list uchar int vertex_indices
end_header
2.7999999999999998 4.1999999999999993 1.8
5.6000000000000005 4.1999999999999993 0
2.7999999999999998 4.1999999999999993 0
5.6000000000000005 4.1999999999999993 0
2.7999999999999998 4.1999999999999993 1.8
5.6000000000000005 4.1999999999999993 1.8
7.7000000000000011 5.7999999999999989 0
7.7000000000000011 8.5999999999999996 1.8
7.7000000000000011 5.7999999999999989 1.8
7.7000000000000011 8.5999999999999996 1.8
7.7000000000000011 5.7999999999999989 0
7.7000000000000011 8.5999999999999996 0
8.3999999999999986 3.5999999999999996 1.8
11.199999999999999 3.5999999999999996 0
8.3999999999999986 3.5999999999999996 0
11.199999999999999 3.5999999999999996 0
8.3999999999999986 3.5999999999999996 1.8
11.199999999999999 3.5999999999999996 1.8
5.6000000000000005 6.9999999999999982 0
5.6000000000000005 9.7999999999999989 1.8
5.6000000000000005 6.9999999999999982 1.8
5.6000000000000005 9.7999999999999989 1.8
5.6000000000000005 6.9999999999999982 0
5.6000000000000005 9.7999999999999989 0
3 0 1 2
3 3 4 5
3 6 7 8
3 9 10 11
3 12 13 14
3 15 16 17
3 18 19 20
3 21 22 23
