ply
format ascii 1.0
element vertex 1200
property float x
property float y
property float z
element face 400
property list uchar int vertex_indices
end_header
6.2165694622006686 5.2773621389214123 0.46000000000000002
6.2165694622006686 5.2773621389214123 0.39999999999999991
6.2581537538361189 5.2179736157104601 0.39999999999999991
6.0000443574781483 5.5865920356405061 0.48999999999999999
5.845178719663366 5.8077630875985342 0.39999999999999991
6.1735512294743398 5.3387985422430866 0.39999999999999991
6.0000443574781483 5.5865920356405061 0.48999999999999999
6.0000443574781483 5.5865920356405061 0.54000000000000004
5.845178719663366 5.8077630875985342 0.54000000000000004
6.1735512294743398 5.3387985422430866 0.46000000000000002
6.2165694622006686 5.2773621389214123 0.46000000000000002
6.2581537538361189 5.2179736157104601 0.54000000000000004
6.2581537538361189 5.2179736157104601 0.39999999999999991
6.2581537538361189 5.2179736157104601 0.54000000000000004
6.2165694622006686 5.2773621389214123 0.46000000000000002
5.845178719663366 5.8077630875985342 0.54000000000000004
5.845178719663366 5.8077630875985342 0.39999999999999991
6.0000443574781483 5.5865920356405061 0.48999999999999999
6.2581537538361189 5.2179736157104601 0.54000000000000004
6.0344589436592111 5.5374429129831668 0.54000000000000004
6.1735512294743398 5.3387985422430866 0.46000000000000002
6.0344589436592111 5.5374429129831668 0.48999999999999999
6.0000443574781483 5.5865920356405061 0.48999999999999999
6.1735512294743398 5.3387985422430866 0.39999999999999991
6.0344589436592111 5.5374429129831668 0.54000000000000004
6.0344589436592111 5.5374429129831668 0.48999999999999999
6.1735512294743398 5.3387985422430866 0.46000000000000002
6.1735512294743398 5.3387985422430866 0.39999999999999991
6.1735512294743398 5.3387985422430866 0.46000000000000002
6.0344589436592111 5.5374429129831668 0.48999999999999999
6.73904792833698 5.7347635936194123 0.46000000000000002
6.5999556425218513 5.9334079643594935 0.48999999999999999
6.5999556425218513 5.9334079643594935 0.54000000000000004
6.5655410563407886 5.9825570870168328 0.48999999999999999
6.4106754185260062 6.2037281389748609 0.54000000000000004
6.5655410563407886 5.9825570870168328 0.54000000000000004
6.5655410563407886 5.9825570870168328 0.48999999999999999
6.73904792833698 5.7347635936194123 0.39999999999999991
6.4106754185260062 6.2037281389748609 0.39999999999999991
6.7820661610633088 5.673327190297738 0.46000000000000002
6.8236504526987591 5.6139386670867868 0.39999999999999991
6.7820661610633088 5.673327190297738 0.39999999999999991
6.4106754185260062 6.2037281389748609 0.39999999999999991
6.4106754185260062 6.2037281389748609 0.54000000000000004
6.5655410563407886 5.9825570870168328 0.48999999999999999
6.7820661610633088 5.673327190297738 0.46000000000000002
6.8236504526987591 5.6139386670867868 0.54000000000000004
6.8236504526987591 5.6139386670867868 0.39999999999999991
6.5999556425218513 5.9334079643594935 0.48999999999999999
6.73904792833698 5.7347635936194123 0.39999999999999991
6.5655410563407886 5.9825570870168328 0.48999999999999999
6.73904792833698 5.7347635936194123 0.46000000000000002
6.8236504526987591 5.6139386670867868 0.54000000000000004
6.7820661610633088 5.673327190297738 0.46000000000000002
6.5999556425218513 5.9334079643594935 0.48999999999999999
6.73904792833698 5.7347635936194123 0.46000000000000002
6.73904792833698 5.7347635936194123 0.39999999999999991
6.5999556425218513 5.9334079643594935 0.54000000000000004
6.8236504526987591 5.6139386670867868 0.54000000000000004
6.73904792833698 5.7347635936194123 0.46000000000000002
6.8236504526987591 5.6139386670867868 0.39999999999999991
6.2581537538361189 5.2179736157104601 0.54000000000000004
6.2581537538361189 5.2179736157104601 0.39999999999999991
6.2581537538361189 5.2179736157104601 0.54000000000000004
6.8236504526987591 5.6139386670867868 0.39999999999999991
6.8236504526987591 5.6139386670867868 0.54000000000000004
5.845178719663366 5.8077630875985342 0.39999999999999991
6.4106754185260062 6.2037281389748609 0.53000000000000003
6.4106754185260062 6.2037281389748609 0.39999999999999991
6.4106754185260062 6.2037281389748609 0.53000000000000003
5.845178719663366 5.8077630875985342 0.39999999999999991
5.845178719663366 5.8077630875985342 0.53000000000000003
6.1960779106922876 5.3545718942427394 0.39999999999999991
6.1735512294743398 5.3387985422430857 0.39999999999999991
5.845178719663366 5.8077630875985342 0.39999999999999991
6.2390961434186156 5.2931354909210659 0.39999999999999991
6.2581537538361189 5.2179736157104601 0.39999999999999991
6.2165694622006686 5.2773621389214114 0.39999999999999991
6.759539479845361 5.6575538382980843 0.39999999999999991
6.7820661610633088 5.673327190297738 0.39999999999999991
6.8236504526987591 5.6139386670867868 0.39999999999999991
6.7165212471190321 5.7189902416197578 0.39999999999999991
6.4106754185260062 6.2037281389748609 0.39999999999999991
6.73904792833698 5.7347635936194132 0.39999999999999991
6.7165212471190321 5.7189902416197578 0.39999999999999991
6.1960779106922876 5.3545718942427394 0.39999999999999991
5.845178719663366 5.8077630875985342 0.39999999999999991
6.8236504526987591 5.6139386670867868 0.39999999999999991
6.2581537538361189 5.2179736157104601 0.39999999999999991
6.759539479845361 5.6575538382980843 0.39999999999999991
5.845178719663366 5.8077630875985342 0.39999999999999991
6.4106754185260062 6.2037281389748609 0.39999999999999991
6.7165212471190321 5.7189902416197578 0.39999999999999991
6.2390961434186156 5.2931354909210659 0.39999999999999991
6.759539479845361 5.6575538382980843 0.39999999999999991
6.2581537538361189 5.2179736157104601 0.39999999999999991
6.2390961434186156 5.2931354909210659 0.39999999999999991
6.1960779106922876 5.3545718942427394 0.39999999999999991
6.7165212471190321 5.7189902416197578 0.39999999999999991
6.7165212471190321 5.7189902416197578 0.39999999999999991
6.759539479845361 5.6575538382980843 0.39999999999999991
6.2390961434186156 5.2931354909210659 0.39999999999999991
6.0508419845449914 5.5489144417101874 0.54000000000000004
6.0344589436592111 5.5374429129831668 0.54000000000000004
6.2581537538361189 5.2179736157104601 0.54000000000000004
6.5491580154550082 5.9710855582898121 0.54000000000000004
6.5655410563407886 5.9825570870168336 0.54000000000000004
6.4106754185260062 6.2037281389748609 0.54000000000000004
6.5835726016360709 5.921936435632472 0.54000000000000004
6.8236504526987591 5.6139386670867868 0.54000000000000004
6.5999556425218513 5.9334079643594935 0.54000000000000004
6.5835726016360709 5.921936435632472 0.54000000000000004
6.0508419845449914 5.5489144417101874 0.54000000000000004
6.2581537538361189 5.2179736157104601 0.54000000000000004
6.0164273983639287 5.5980635643675276 0.54000000000000004
5.845178719663366 5.8077630875985342 0.54000000000000004
6.0000443574781483 5.5865920356405061 0.54000000000000004
6.4106754185260062 6.2037281389748609 0.54000000000000004
5.845178719663366 5.8077630875985342 0.54000000000000004
6.5491580154550082 5.9710855582898121 0.54000000000000004
6.2581537538361189 5.2179736157104601 0.54000000000000004
6.8236504526987591 5.6139386670867868 0.54000000000000004
6.5835726016360709 5.921936435632472 0.54000000000000004
6.0164273983639287 5.5980635643675276 0.54000000000000004
6.5491580154550082 5.9710855582898121 0.54000000000000004
5.845178719663366 5.8077630875985342 0.54000000000000004
6.0164273983639287 5.5980635643675276 0.54000000000000004
6.0508419845449914 5.5489144417101874 0.54000000000000004
6.5835726016360709 5.921936435632472 0.54000000000000004
6.5835726016360709 5.921936435632472 0.54000000000000004
6.5491580154550082 5.9710855582898121 0.54000000000000004
6.0164273983639287 5.5980635643675276 0.54000000000000004
5.7677459007559753 5.9183486135775478 0.7400000000000001
5.7677459007559753 5.9183486135775478 1.01
5.7648780185742199 5.9224443737989931 1.01
5.8078962513005479 5.8610079704773188 0.7400000000000001
5.845178719663366 5.8077630875985342 1.01
5.8078962513005479 5.8610079704773188 1.01
5.7648780185742199 5.9224443737989931 1.01
5.7648780185742199 5.9224443737989931 0.53000000000000014
5.7677459007559753 5.9183486135775478 0.7400000000000001
5.8078962513005479 5.8610079704773188 0.7400000000000001
5.845178719663366 5.8077630875985342 0.53000000000000014
5.845178719663366 5.8077630875985342 1.01
5.8078962513005479 5.8610079704773188 0.7400000000000001
5.7677459007559753 5.9183486135775478 0.7400000000000001
5.7648780185742199 5.9224443737989931 0.53000000000000014
5.7648780185742199 5.9224443737989931 0.53000000000000014
5.845178719663366 5.8077630875985342 0.53000000000000014
5.8078962513005479 5.8610079704773188 0.7400000000000001
6.3733929501631881 6.2569730218536455 0.73999999999999999
6.3733929501631881 6.2569730218536455 1.01
6.4106754185260062 6.2037281389748609 1.01
6.3332425996186146 6.3143136649538745 0.73999999999999999
6.3303747174368592 6.3184094251753198 1.01
6.3332425996186146 6.3143136649538745 1.01
6.4106754185260062 6.2037281389748609 1.01
6.4106754185260062 6.2037281389748609 0.53000000000000003
6.3733929501631881 6.2569730218536455 0.73999999999999999
6.3332425996186146 6.3143136649538745 0.73999999999999999
6.3303747174368592 6.3184094251753198 0.53000000000000003
6.3303747174368592 6.3184094251753198 1.01
6.3303747174368592 6.3184094251753198 0.53000000000000003
6.3733929501631881 6.2569730218536455 0.73999999999999999
6.4106754185260062 6.2037281389748609 0.53000000000000003
6.3733929501631881 6.2569730218536455 0.73999999999999999
6.3303747174368592 6.3184094251753198 0.53000000000000003
6.3332425996186146 6.3143136649538745 0.73999999999999999
5.845178719663366 5.8077630875985342 1.01
6.4106754185260062 6.2037281389748609 0.54000000000000004
6.4106754185260062 6.2037281389748609 1.01
6.4106754185260062 6.2037281389748609 0.54000000000000004
5.845178719663366 5.8077630875985342 1.01
5.845178719663366 5.8077630875985342 0.54000000000000004
5.7648780185742199 5.9224443737989931 0.53000000000000003
6.3303747174368592 6.3184094251753198 1.01
6.3303747174368592 6.3184094251753198 0.53000000000000003
6.3303747174368592 6.3184094251753198 1.01
5.7648780185742199 5.9224443737989931 0.53000000000000003
5.7648780185742199 5.9224443737989931 1.01
6.3303747174368592 6.3184094251753198 0.53000000000000003
6.4106754185260062 6.2037281389748609 0.53000000000000003
5.845178719663366 5.8077630875985342 0.53000000000000003
5.845178719663366 5.8077630875985342 0.53000000000000003
5.7648780185742199 5.9224443737989931 0.53000000000000003
6.3303747174368592 6.3184094251753198 0.53000000000000003
6.3733929501631881 6.2569730218536455 1.01
5.8078962513005479 5.8610079704773188 1.01
5.845178719663366 5.8077630875985342 1.01
6.3332425996186146 6.3143136649538754 1.01
5.7648780185742199 5.9224443737989931 1.01
5.7677459007559744 5.9183486135775487 1.01
5.845178719663366 5.8077630875985342 1.01
6.4106754185260062 6.2037281389748609 1.01
6.3733929501631881 6.2569730218536455 1.01
6.3332425996186146 6.3143136649538754 1.01
6.3303747174368592 6.3184094251753198 1.01
5.7648780185742199 5.9224443737989931 1.01
6.1958930983096936 5.211001473039822 0.745
5.8058611215909819 5.7680248631563362 0.65499999999999992
6.1958930983096936 5.211001473039822 0.65499999999999992
5.8058611215909819 5.7680248631563362 0.65499999999999992
6.1958930983096936 5.211001473039822 0.745
5.8058611215909819 5.7680248631563362 0.745
6.269616782295703 5.2626233523114161 0.65499999999999992
5.8795848055769913 5.8196467424279303 0.745
6.269616782295703 5.2626233523114161 0.745
5.8795848055769913 5.8196467424279303 0.745
6.269616782295703 5.2626233523114161 0.65499999999999992
5.8795848055769913 5.8196467424279303 0.65499999999999992
6.269616782295703 5.2626233523114161 0.65499999999999992
6.1958930983096936 5.211001473039822 0.745
6.1958930983096936 5.211001473039822 0.65499999999999992
6.1958930983096936 5.211001473039822 0.745
6.269616782295703 5.2626233523114161 0.65499999999999992
6.269616782295703 5.2626233523114161 0.745
5.8058611215909819 5.7680248631563362 0.65499999999999992
5.8795848055769913 5.8196467424279303 0.745
5.8795848055769913 5.8196467424279303 0.65499999999999992
5.8795848055769913 5.8196467424279303 0.745
5.8058611215909819 5.7680248631563362 0.65499999999999992
5.8058611215909819 5.7680248631563362 0.745
5.8058611215909819 5.7680248631563362 0.65499999999999992
5.9672782757065885 5.5636489781864649 0.65499999999999992
6.0016928618876513 5.5144998555291247 0.65499999999999992
6.0508419845449914 5.5489144417101874 0.65499999999999992
6.1958930983096936 5.211001473039822 0.65499999999999992
6.0016928618876513 5.5144998555291247 0.65499999999999992
6.0016928618876513 5.5144998555291247 0.65499999999999992
6.1958930983096936 5.211001473039822 0.65499999999999992
5.8058611215909819 5.7680248631563362 0.65499999999999992
6.0508419845449914 5.5489144417101874 0.65499999999999992
6.269616782295703 5.262623352311417 0.65499999999999992
6.1958930983096936 5.211001473039822 0.65499999999999992
5.8795848055769913 5.8196467424279303 0.65499999999999992
5.9672782757065885 5.5636489781864649 0.65499999999999992
5.8058611215909819 5.7680248631563362 0.65499999999999992
5.8795848055769913 5.8196467424279303 0.65499999999999992
6.269616782295703 5.262623352311417 0.65499999999999992
6.0508419845449914 5.5489144417101874 0.65499999999999992
5.8795848055769913 5.8196467424279303 0.65499999999999992
6.0164273983639287 5.5980635643675276 0.65499999999999992
5.9672782757065885 5.5636489781864649 0.65499999999999992
6.0508419845449914 5.5489144417101874 0.65499999999999992
6.0164273983639287 5.5980635643675276 0.65499999999999992
5.8795848055769913 5.8196467424279303 0.65499999999999992
6.1958930983096936 5.211001473039822 0.745
5.8795848055769913 5.8196467424279303 0.745
5.8058611215909819 5.7680248631563362 0.745
5.8795848055769913 5.8196467424279303 0.745
6.1958930983096936 5.211001473039822 0.745
6.269616782295703 5.2626233523114161 0.745
6.0016928618876513 5.5144998555291247 0.48999999999999999
5.9672782757065885 5.5636489781864649 0.65499999999999992
5.9672782757065885 5.5636489781864649 0.48999999999999999
5.9672782757065885 5.5636489781864649 0.65499999999999992
6.0016928618876513 5.5144998555291247 0.48999999999999999
6.0016928618876513 5.5144998555291247 0.65499999999999992
6.0164273983639287 5.5980635643675276 0.54000000000000004
6.0508419845449914 5.5489144417101874 0.65499999999999992
6.0508419845449914 5.5489144417101874 0.54000000000000004
6.0508419845449914 5.5489144417101874 0.65499999999999992
6.0164273983639287 5.5980635643675276 0.54000000000000004
6.0164273983639287 5.5980635643675276 0.65499999999999992
6.0344589436592111 5.5374429129831668 0.54000000000000004
6.0016928618876513 5.5144998555291247 0.48999999999999999
6.0344589436592111 5.5374429129831668 0.48999999999999999
6.0344589436592111 5.5374429129831668 0.54000000000000004
6.0508419845449914 5.5489144417101874 0.65499999999999992
6.0016928618876513 5.5144998555291247 0.65499999999999992
6.0508419845449914 5.5489144417101874 0.65499999999999992
6.0344589436592111 5.5374429129831668 0.54000000000000004
6.0508419845449914 5.5489144417101874 0.54000000000000004
6.0016928618876513 5.5144998555291247 0.65499999999999992
6.0016928618876513 5.5144998555291247 0.48999999999999999
6.0344589436592111 5.5374429129831668 0.54000000000000004
5.9672782757065885 5.5636489781864649 0.48999999999999999
6.0000443574781483 5.5865920356405061 0.54000000000000004
6.0000443574781483 5.5865920356405061 0.48999999999999999
6.0000443574781483 5.5865920356405061 0.54000000000000004
6.0164273983639287 5.5980635643675276 0.65499999999999992
6.0164273983639287 5.5980635643675276 0.54000000000000004
6.0000443574781483 5.5865920356405061 0.54000000000000004
5.9672782757065885 5.5636489781864649 0.48999999999999999
5.9672782757065885 5.5636489781864649 0.65499999999999992
5.9672782757065885 5.5636489781864649 0.65499999999999992
6.0164273983639287 5.5980635643675276 0.65499999999999992
6.0000443574781483 5.5865920356405061 0.54000000000000004
6.0000443574781483 5.5865920356405061 0.48999999999999999
6.0344589436592111 5.5374429129831668 0.48999999999999999
6.0016928618876513 5.5144998555291247 0.48999999999999999
6.0016928618876513 5.5144998555291247 0.48999999999999999
5.9672782757065885 5.5636489781864649 0.48999999999999999
6.0000443574781483 5.5865920356405061 0.48999999999999999
6.1776597400969413 5.2501172581947371 0.46000000000000002
6.1346415073706133 5.3115536615164114 2.2204460492503131e-16
6.1776597400969413 5.2501172581947371 2.2204460492503131e-16
6.1346415073706133 5.3115536615164114 2.2204460492503131e-16
6.1776597400969413 5.2501172581947371 0.46000000000000002
6.1346415073706133 5.3115536615164114 0.46000000000000002
6.1960779106922876 5.3545718942427403 0
6.2390961434186156 5.2931354909210659 0.39999999999999974
6.2390961434186156 5.2931354909210659 0
6.2390961434186156 5.2931354909210659 0.39999999999999974
6.1960779106922876 5.3545718942427403 0
6.1960779106922876 5.3545718942427403 0.39999999999999974
6.2165694622006686 5.2773621389214123 0.39999999999999997
6.1776597400969413 5.2501172581947371 0.46000000000000002
6.1776597400969413 5.2501172581947371 0
6.1776597400969413 5.2501172581947371 0.46000000000000002
6.2165694622006686 5.2773621389214123 0.39999999999999997
6.2165694622006686 5.2773621389214123 0.46000000000000002
6.2165694622006686 5.2773621389214123 0.39999999999999997
6.2390961434186156 5.2931354909210659 0
6.2390961434186156 5.2931354909210659 0.39999999999999997
6.1776597400969413 5.2501172581947371 0
6.2390961434186156 5.2931354909210659 0
6.2165694622006686 5.2773621389214123 0.39999999999999997
6.1735512294743398 5.3387985422430857 0.39999999999999997
6.1960779106922876 5.3545718942427403 0
6.1346415073706133 5.3115536615164114 0
6.1960779106922876 5.3545718942427403 0
6.1735512294743398 5.3387985422430857 0.39999999999999997
6.1960779106922876 5.3545718942427403 0.39999999999999997
6.1735512294743398 5.3387985422430857 0.39999999999999997
6.1346415073706133 5.3115536615164114 0.46000000000000002
6.1735512294743398 5.3387985422430857 0.46000000000000002
6.1346415073706133 5.3115536615164114 0
6.1346415073706133 5.3115536615164114 0.46000000000000002
6.1735512294743398 5.3387985422430857 0.39999999999999997
6.2165694622006686 5.2773621389214123 0.46000000000000002
6.1735512294743398 5.3387985422430866 0.46000000000000002
6.1346415073706133 5.3115536615164114 0.46000000000000002
6.1346415073706133 5.3115536615164114 0.46000000000000002
6.1776597400969413 5.2501172581947371 0.46000000000000002
6.2165694622006686 5.2773621389214123 0.46000000000000002
5.804835056468761 5.7825660869825821 0.46000000000000002
5.761816823742433 5.8440024903042564 2.2204460492503131e-16
5.804835056468761 5.7825660869825821 2.2204460492503131e-16
5.761816823742433 5.8440024903042564 2.2204460492503131e-16
5.804835056468761 5.7825660869825821 0.46000000000000002
5.761816823742433 5.8440024903042564 0.46000000000000002
5.8232532270641073 5.8870207230305844 0.46000000000000002
5.8662714597904362 5.8255843197089101 0.46000000000000002
5.8662714597904362 5.8255843197089101 0
5.8662714597904362 5.8255843197089101 0
5.8232532270641073 5.8870207230305844 0
5.8232532270641073 5.8870207230305844 0.46000000000000002
5.8662714597904362 5.8255843197089101 0
5.804835056468761 5.7825660869825821 0.46000000000000002
5.804835056468761 5.7825660869825821 0
5.804835056468761 5.7825660869825821 0.46000000000000002
5.8662714597904362 5.8255843197089101 0
5.8662714597904362 5.8255843197089101 0.46000000000000002
5.761816823742433 5.8440024903042564 0
5.8232532270641073 5.8870207230305844 0.46000000000000002
5.8232532270641073 5.8870207230305844 0
5.8232532270641073 5.8870207230305844 0.46000000000000002
5.761816823742433 5.8440024903042564 0
5.761816823742433 5.8440024903042564 0.46000000000000002
5.804835056468761 5.7825660869825821 0.46000000000000002
5.8232532270641073 5.8870207230305844 0.46000000000000002
5.761816823742433 5.8440024903042564 0.46000000000000002
5.8232532270641073 5.8870207230305844 0.46000000000000002
5.804835056468761 5.7825660869825821 0.46000000000000002
5.8662714597904362 5.8255843197089101 0.46000000000000002
6.7777728380581133 5.6184380531431692 0.745
6.3877408613394016 6.1754614432596844 0.65499999999999992
6.7777728380581133 5.6184380531431692 0.65499999999999992
6.3877408613394016 6.1754614432596844 0.65499999999999992
6.7777728380581133 5.6184380531431692 0.745
6.3877408613394016 6.1754614432596844 0.745
6.8514965220441226 5.6700599324147634 0.65499999999999992
6.4614645453254109 6.2270833225312785 0.745
6.8514965220441226 5.6700599324147634 0.745
6.4614645453254109 6.2270833225312785 0.745
6.8514965220441226 5.6700599324147634 0.65499999999999992
6.4614645453254109 6.2270833225312785 0.65499999999999992
6.8514965220441226 5.6700599324147634 0.65499999999999992
6.7777728380581133 5.6184380531431692 0.745
6.7777728380581133 5.6184380531431692 0.65499999999999992
6.7777728380581133 5.6184380531431692 0.745
6.8514965220441226 5.6700599324147634 0.65499999999999992
6.8514965220441226 5.6700599324147634 0.745
6.3877408613394016 6.1754614432596844 0.65499999999999992
6.4614645453254109 6.2270833225312785 0.745
6.4614645453254109 6.2270833225312785 0.65499999999999992
6.4614645453254109 6.2270833225312785 0.745
6.3877408613394016 6.1754614432596844 0.65499999999999992
6.3877408613394016 6.1754614432596844 0.745
6.3877408613394016 6.1754614432596844 0.65499999999999992
6.5491580154550082 5.971085558289813 0.65499999999999992
6.5835726016360709 5.921936435632472 0.65499999999999992
6.6327217242934111 5.9563510218135347 0.65499999999999992
6.7777728380581124 5.6184380531431692 0.65499999999999992
6.5835726016360709 5.921936435632472 0.65499999999999992
6.5835726016360709 5.921936435632472 0.65499999999999992
6.7777728380581124 5.6184380531431692 0.65499999999999992
6.3877408613394016 6.1754614432596844 0.65499999999999992
6.6327217242934111 5.9563510218135347 0.65499999999999992
6.8514965220441217 5.6700599324147634 0.65499999999999992
6.7777728380581124 5.6184380531431692 0.65499999999999992
6.4614645453254109 6.2270833225312785 0.65499999999999992
6.5491580154550082 5.971085558289813 0.65499999999999992
6.3877408613394016 6.1754614432596844 0.65499999999999992
6.4614645453254109 6.2270833225312785 0.65499999999999992
6.8514965220441217 5.6700599324147634 0.65499999999999992
6.6327217242934111 5.9563510218135347 0.65499999999999992
6.4614645453254109 6.2270833225312785 0.65499999999999992
6.5983071381123484 6.0055001444708749 0.65499999999999992
6.5491580154550082 5.971085558289813 0.65499999999999992
6.6327217242934111 5.9563510218135347 0.65499999999999992
6.5983071381123484 6.0055001444708749 0.65499999999999992
6.4614645453254109 6.2270833225312785 0.65499999999999992
6.7777728380581133 5.6184380531431692 0.745
6.4614645453254118 6.2270833225312785 0.745
6.3877408613394024 6.1754614432596844 0.745
6.4614645453254118 6.2270833225312785 0.745
6.7777728380581133 5.6184380531431692 0.745
6.8514965220441226 5.6700599324147634 0.745
6.5491580154550082 5.9710855582898121 0.65499999999999992
6.5835726016360709 5.921936435632472 0.54000000000000004
6.5835726016360709 5.921936435632472 0.65499999999999992
6.5835726016360709 5.921936435632472 0.54000000000000004
6.5491580154550082 5.9710855582898121 0.65499999999999992
6.5491580154550082 5.9710855582898121 0.54000000000000004
6.5983071381123484 6.0055001444708749 0.48999999999999999
6.6327217242934111 5.9563510218135347 0.65499999999999992
6.6327217242934111 5.9563510218135347 0.48999999999999999
6.6327217242934111 5.9563510218135347 0.65499999999999992
6.5983071381123484 6.0055001444708749 0.48999999999999999
6.5983071381123484 6.0055001444708749 0.65499999999999992
6.6327217242934111 5.9563510218135347 0.48999999999999999
6.5999556425218513 5.9334079643594935 0.54000000000000004
6.5999556425218513 5.9334079643594935 0.48999999999999999
6.5999556425218513 5.9334079643594935 0.54000000000000004
6.5835726016360709 5.921936435632472 0.65499999999999992
6.5835726016360709 5.921936435632472 0.54000000000000004
6.5999556425218513 5.9334079643594935 0.54000000000000004
6.6327217242934111 5.9563510218135347 0.48999999999999999
6.6327217242934111 5.9563510218135347 0.65499999999999992
6.6327217242934111 5.9563510218135347 0.65499999999999992
6.5835726016360709 5.921936435632472 0.65499999999999992
6.5999556425218513 5.9334079643594935 0.54000000000000004
6.5655410563407886 5.9825570870168328 0.54000000000000004
6.5983071381123484 6.0055001444708749 0.48999999999999999
6.5655410563407886 5.9825570870168328 0.48999999999999999
6.5655410563407886 5.9825570870168328 0.54000000000000004
6.5491580154550082 5.9710855582898121 0.65499999999999992
6.5983071381123484 6.0055001444708749 0.65499999999999992
6.5491580154550082 5.9710855582898121 0.65499999999999992
6.5655410563407886 5.9825570870168328 0.54000000000000004
6.5491580154550082 5.9710855582898121 0.54000000000000004
6.5983071381123484 6.0055001444708749 0.65499999999999992
6.5983071381123484 6.0055001444708749 0.48999999999999999
6.5655410563407886 5.9825570870168328 0.54000000000000004
6.5999556425218513 5.9334079643594935 0.48999999999999999
6.5655410563407886 5.9825570870168336 0.48999999999999999
6.5983071381123484 6.0055001444708749 0.48999999999999999
6.5983071381123484 6.0055001444708749 0.48999999999999999
6.6327217242934111 5.9563510218135347 0.48999999999999999
6.5999556425218513 5.9334079643594935 0.48999999999999999
6.7165212471190321 5.7189902416197587 0.39999999999999997
6.7165212471190321 5.7189902416197587 0
6.759539479845361 5.6575538382980843 0
6.759539479845361 5.6575538382980843 0
6.759539479845361 5.6575538382980843 0.39999999999999997
6.7165212471190321 5.7189902416197587 0.39999999999999997
6.7779576504407064 5.7620084743460875 0.46000000000000002
6.8209758831670353 5.7005720710244132 0.46000000000000002
6.8209758831670353 5.7005720710244132 0
6.8209758831670353 5.7005720710244132 0
6.7779576504407064 5.7620084743460875 0
6.7779576504407064 5.7620084743460875 0.46000000000000002
6.782066161063308 5.673327190297738 0.39999999999999997
6.759539479845361 5.6575538382980843 0
6.8209758831670353 5.7005720710244132 0
6.759539479845361 5.6575538382980843 0
6.782066161063308 5.673327190297738 0.39999999999999997
6.759539479845361 5.6575538382980843 0.39999999999999997
6.782066161063308 5.673327190297738 0.39999999999999997
6.8209758831670353 5.7005720710244132 0.46000000000000002
6.782066161063308 5.673327190297738 0.46000000000000002
6.8209758831670353 5.7005720710244132 0
6.8209758831670353 5.7005720710244132 0.46000000000000002
6.782066161063308 5.673327190297738 0.39999999999999997
6.73904792833698 5.7347635936194132 0.39999999999999997
6.7779576504407064 5.7620084743460875 0.46000000000000002
6.7779576504407064 5.7620084743460875 0
6.7779576504407064 5.7620084743460875 0.46000000000000002
6.73904792833698 5.7347635936194132 0.39999999999999997
6.73904792833698 5.7347635936194132 0.46000000000000002
6.73904792833698 5.7347635936194132 0.39999999999999997
6.7165212471190321 5.7189902416197587 0
6.7165212471190321 5.7189902416197587 0.39999999999999997
6.7779576504407064 5.7620084743460875 0
6.7165212471190321 5.7189902416197587 0
6.73904792833698 5.7347635936194132 0.39999999999999997
6.8209758831670353 5.7005720710244132 0.46000000000000002
6.7779576504407064 5.7620084743460875 0.46000000000000002
6.73904792833698 5.7347635936194132 0.46000000000000002
6.73904792833698 5.7347635936194132 0.46000000000000002
6.7820661610633088 5.673327190297738 0.46000000000000002
6.8209758831670353 5.7005720710244132 0.46000000000000002
6.3867147962171806 6.1900026670859294 0.46000000000000002
6.3436965634908526 6.2514390704076037 2.2204460492503131e-16
6.3867147962171806 6.1900026670859294 2.2204460492503131e-16
6.3436965634908526 6.2514390704076037 2.2204460492503131e-16
6.3867147962171806 6.1900026670859294 0.46000000000000002
6.3436965634908526 6.2514390704076037 0.46000000000000002
6.448151199538855 6.2330208998122574 0
6.405132966812527 6.2944573031339317 0.4599999999999998
6.448151199538855 6.2330208998122574 0.4599999999999998
6.405132966812527 6.2944573031339317 0.4599999999999998
6.448151199538855 6.2330208998122574 0
6.405132966812527 6.2944573031339317 0
6.448151199538855 6.2330208998122574 0
6.3867147962171806 6.1900026670859294 0.46000000000000002
6.3867147962171806 6.1900026670859294 0
6.3867147962171806 6.1900026670859294 0.46000000000000002
6.448151199538855 6.2330208998122574 0
6.448151199538855 6.2330208998122574 0.46000000000000002
6.3436965634908526 6.2514390704076037 0
6.405132966812527 6.2944573031339317 0.46000000000000002
6.405132966812527 6.2944573031339317 0
6.405132966812527 6.2944573031339317 0.46000000000000002
6.3436965634908526 6.2514390704076037 0
6.3436965634908526 6.2514390704076037 0.46000000000000002
6.448151199538855 6.2330208998122574 0.46000000000000002
6.405132966812527 6.2944573031339317 0.46000000000000002
6.3436965634908526 6.2514390704076037 0.46000000000000002
6.3436965634908526 6.2514390704076037 0.46000000000000002
6.3867147962171806 6.1900026670859294 0.46000000000000002
6.448151199538855 6.2330208998122574 0.46000000000000002
5.7308840587629701 5.8925376739417512 0.73999999999999999
5.7710344093075436 5.8351970308415213 0.73999999999999999
5.7710344093075436 5.8351970308415213 1.02
5.7710344093075436 5.8351970308415213 1.02
5.7308840587629701 5.8925376739417512 1.02
5.7308840587629701 5.8925376739417512 0.73999999999999999
6.3701044416116188 6.340124604589672 1.02
6.4102547921561923 6.2827839614894421 1.02
6.4102547921561923 6.2827839614894421 0.73999999999999999
6.4102547921561923 6.2827839614894421 0.73999999999999999
6.3701044416116188 6.340124604589672 0.73999999999999999
6.3701044416116188 6.340124604589672 1.02
6.3733929501631881 6.2569730218536455 1.01
6.3733929501631881 6.2569730218536455 0.73999999999999999
6.4102547921561923 6.2827839614894421 0.73999999999999999
5.8078962513005479 5.8610079704773179 1.01
5.7710344093075436 5.8351970308415213 0.73999999999999999
5.8078962513005479 5.8610079704773179 0.73999999999999999
6.4102547921561923 6.2827839614894421 0.73999999999999999
6.4102547921561923 6.2827839614894421 1.02
6.3733929501631881 6.2569730218536455 1.01
5.8078962513005479 5.8610079704773179 1.01
5.7710344093075436 5.8351970308415213 1.02
5.7710344093075436 5.8351970308415213 0.73999999999999999
5.8078962513005479 5.8610079704773179 1.01
6.3733929501631881 6.2569730218536455 1.01
6.4102547921561923 6.2827839614894421 1.02
6.4102547921561923 6.2827839614894421 1.02
5.7710344093075436 5.8351970308415213 1.02
5.8078962513005479 5.8610079704773179 1.01
5.7677459007559753 5.9183486135775487 1.01
5.7677459007559753 5.9183486135775487 0.73999999999999999
5.7308840587629701 5.8925376739417512 0.73999999999999999
6.3332425996186146 6.3143136649538754 1.01
6.3701044416116188 6.340124604589672 0.73999999999999999
6.3332425996186146 6.3143136649538754 0.73999999999999999
5.7308840587629701 5.8925376739417512 0.73999999999999999
5.7308840587629701 5.8925376739417512 1.02
5.7677459007559753 5.9183486135775487 1.01
6.3332425996186146 6.3143136649538754 1.01
6.3701044416116188 6.340124604589672 1.02
6.3701044416116188 6.340124604589672 0.73999999999999999
6.3701044416116188 6.340124604589672 1.02
5.7677459007559753 5.9183486135775487 1.01
5.7308840587629701 5.8925376739417512 1.02
5.7677459007559753 5.9183486135775487 1.01
6.3701044416116188 6.340124604589672 1.02
6.3332425996186146 6.3143136649538754 1.01
5.7308840587629701 5.8925376739417512 0.73999999999999999
5.8078962513005479 5.8610079704773188 0.73999999999999999
5.7710344093075436 5.8351970308415213 0.73999999999999999
5.8078962513005479 5.8610079704773188 0.73999999999999999
5.7308840587629701 5.8925376739417512 0.73999999999999999
5.7677459007559753 5.9183486135775487 0.73999999999999999
6.3733929501631881 6.2569730218536455 0.73999999999999999
6.3332425996186146 6.3143136649538754 0.73999999999999999
6.3701044416116188 6.340124604589672 0.73999999999999999
6.3701044416116188 6.340124604589672 0.73999999999999999
6.4102547921561923 6.2827839614894421 0.73999999999999999
6.3733929501631881 6.2569730218536455 0.73999999999999999
6.4102547921561923 6.2827839614894421 1.02
6.3701044416116188 6.340124604589672 1.02
5.7308840587629701 5.8925376739417512 1.02
5.7308840587629701 5.8925376739417512 1.02
5.7710344093075436 5.8351970308415213 1.02
6.4102547921561923 6.2827839614894421 1.02
7.8679338389366906 5.673327190297738 0.46000000000000002
7.8679338389366906 5.673327190297738 0.39999999999999991
7.8263495473012403 5.6139386670867868 0.39999999999999991
8.0844589436592109 5.9825570870168328 0.48999999999999999
8.2393245814739942 6.2037281389748609 0.39999999999999991
7.9109520716630195 5.7347635936194123 0.39999999999999991
8.0844589436592109 5.9825570870168328 0.48999999999999999
8.0844589436592109 5.9825570870168328 0.54000000000000004
8.2393245814739942 6.2037281389748609 0.54000000000000004
7.9109520716630195 5.7347635936194123 0.46000000000000002
7.8679338389366906 5.673327190297738 0.46000000000000002
7.8263495473012403 5.6139386670867868 0.54000000000000004
7.8263495473012403 5.6139386670867868 0.39999999999999991
7.8263495473012403 5.6139386670867868 0.54000000000000004
7.8679338389366906 5.673327190297738 0.46000000000000002
8.2393245814739942 6.2037281389748609 0.54000000000000004
8.2393245814739942 6.2037281389748609 0.39999999999999991
8.0844589436592109 5.9825570870168328 0.48999999999999999
7.8263495473012403 5.6139386670867868 0.54000000000000004
8.0500443574781482 5.9334079643594935 0.54000000000000004
7.9109520716630195 5.7347635936194123 0.46000000000000002
8.0500443574781482 5.9334079643594935 0.48999999999999999
8.0844589436592109 5.9825570870168328 0.48999999999999999
7.9109520716630195 5.7347635936194123 0.39999999999999991
8.0500443574781482 5.9334079643594935 0.54000000000000004
8.0500443574781482 5.9334079643594935 0.48999999999999999
7.9109520716630195 5.7347635936194123 0.46000000000000002
7.9109520716630195 5.7347635936194123 0.39999999999999991
7.9109520716630195 5.7347635936194123 0.46000000000000002
8.0500443574781482 5.9334079643594935 0.48999999999999999
8.4764487705256588 5.3387985422430866 0.46000000000000002
8.6155410563407884 5.5374429129831668 0.48999999999999999
8.6155410563407884 5.5374429129831668 0.54000000000000004
8.6499556425218511 5.586592035640507 0.48999999999999999
8.8048212803366326 5.8077630875985342 0.54000000000000004
8.6499556425218511 5.586592035640507 0.54000000000000004
8.6499556425218511 5.586592035640507 0.48999999999999999
8.4764487705256588 5.3387985422430866 0.39999999999999991
8.8048212803366326 5.8077630875985342 0.39999999999999991
8.4334305377993317 5.2773621389214131 0.46000000000000002
8.3918462461638796 5.2179736157104601 0.39999999999999991
8.4334305377993317 5.2773621389214131 0.39999999999999991
8.8048212803366326 5.8077630875985342 0.39999999999999991
8.8048212803366326 5.8077630875985342 0.54000000000000004
8.6499556425218511 5.586592035640507 0.48999999999999999
8.4334305377993317 5.2773621389214131 0.46000000000000002
8.3918462461638796 5.2179736157104601 0.54000000000000004
8.3918462461638796 5.2179736157104601 0.39999999999999991
8.6155410563407884 5.5374429129831668 0.48999999999999999
8.4764487705256588 5.3387985422430866 0.39999999999999991
8.6499556425218511 5.586592035640507 0.48999999999999999
8.4764487705256588 5.3387985422430866 0.46000000000000002
8.3918462461638796 5.2179736157104601 0.54000000000000004
8.4334305377993317 5.2773621389214131 0.46000000000000002
8.6155410563407884 5.5374429129831668 0.48999999999999999
8.4764487705256588 5.3387985422430866 0.46000000000000002
8.4764487705256588 5.3387985422430866 0.39999999999999991
8.6155410563407884 5.5374429129831668 0.54000000000000004
8.3918462461638796 5.2179736157104601 0.54000000000000004
8.4764487705256588 5.3387985422430866 0.46000000000000002
7.8263495473012403 5.6139386670867868 0.54000000000000004
7.8263495473012403 5.6139386670867868 0.39999999999999991
8.3918462461638796 5.2179736157104601 0.39999999999999991
8.3918462461638796 5.2179736157104601 0.39999999999999991
8.3918462461638796 5.2179736157104601 0.54000000000000004
7.8263495473012403 5.6139386670867868 0.54000000000000004
8.2393245814739942 6.2037281389748609 0.39999999999999991
8.8048212803366326 5.8077630875985342 0.53000000000000003
8.8048212803366326 5.8077630875985342 0.39999999999999991
8.8048212803366326 5.8077630875985342 0.53000000000000003
8.2393245814739942 6.2037281389748609 0.39999999999999991
8.2393245814739942 6.2037281389748609 0.53000000000000003
7.9334787528809683 5.7189902416197587 0.39999999999999991
7.9109520716630195 5.7347635936194132 0.39999999999999991
8.2393245814739942 6.2037281389748609 0.39999999999999991
7.9334787528809683 5.7189902416197587 0.39999999999999991
8.4539220893077118 5.3545718942427403 0.39999999999999991
8.410903856581383 5.2931354909210659 0.39999999999999991
8.410903856581383 5.2931354909210659 0.39999999999999991
7.8904605201546376 5.6575538382980834 0.39999999999999991
7.9334787528809683 5.7189902416197587 0.39999999999999991
8.2393245814739942 6.2037281389748609 0.39999999999999991
8.8048212803366326 5.8077630875985342 0.39999999999999991
7.9334787528809683 5.7189902416197587 0.39999999999999991
8.8048212803366326 5.8077630875985342 0.39999999999999991
8.4764487705256588 5.3387985422430866 0.39999999999999991
8.4539220893077118 5.3545718942427403 0.39999999999999991
7.8904605201546376 5.6575538382980834 0.39999999999999991
7.8263495473012403 5.6139386670867868 0.39999999999999991
7.8679338389366906 5.6733271902977389 0.39999999999999991
8.4539220893077118 5.3545718942427403 0.39999999999999991
7.9334787528809683 5.7189902416197587 0.39999999999999991
8.8048212803366326 5.8077630875985342 0.39999999999999991
8.3918462461638796 5.2179736157104601 0.39999999999999991
7.8263495473012403 5.6139386670867868 0.39999999999999991
7.8904605201546376 5.6575538382980834 0.39999999999999991
7.8904605201546376 5.6575538382980834 0.39999999999999991
8.410903856581383 5.2931354909210659 0.39999999999999991
8.3918462461638796 5.2179736157104601 0.39999999999999991
8.410903856581383 5.2931354909210659 0.39999999999999991
8.4334305377993299 5.2773621389214114 0.39999999999999991
8.3918462461638796 5.2179736157104601 0.39999999999999991
8.1008419845449904 5.9710855582898121 0.54000000000000004
8.2393245814739942 6.2037281389748609 0.54000000000000004
8.0844589436592109 5.9825570870168328 0.54000000000000004
8.6335726016360717 5.5980635643675276 0.54000000000000004
8.6499556425218511 5.586592035640507 0.54000000000000004
8.8048212803366326 5.8077630875985342 0.54000000000000004
8.0664273983639276 5.921936435632472 0.54000000000000004
8.0500443574781482 5.9334079643594926 0.54000000000000004
7.8263495473012403 5.6139386670867868 0.54000000000000004
8.8048212803366326 5.8077630875985342 0.54000000000000004
8.2393245814739942 6.2037281389748609 0.54000000000000004
8.6335726016360717 5.5980635643675276 0.54000000000000004
8.5991580154550089 5.5489144417101874 0.54000000000000004
8.3918462461638796 5.2179736157104601 0.54000000000000004
8.6155410563407884 5.5374429129831668 0.54000000000000004
7.8263495473012403 5.6139386670867868 0.54000000000000004
8.3918462461638796 5.2179736157104601 0.54000000000000004
8.0664273983639276 5.921936435632472 0.54000000000000004
8.1008419845449904 5.9710855582898121 0.54000000000000004
8.6335726016360717 5.5980635643675276 0.54000000000000004
8.2393245814739942 6.2037281389748609 0.54000000000000004
8.5991580154550089 5.5489144417101874 0.54000000000000004
8.0664273983639276 5.921936435632472 0.54000000000000004
8.3918462461638796 5.2179736157104601 0.54000000000000004
8.0664273983639276 5.921936435632472 0.54000000000000004
8.6335726016360717 5.5980635643675276 0.54000000000000004
8.1008419845449904 5.9710855582898121 0.54000000000000004
8.6335726016360717 5.5980635643675276 0.54000000000000004
8.0664273983639276 5.921936435632472 0.54000000000000004
8.5991580154550089 5.5489144417101874 0.54000000000000004
8.316757400381384 6.3143136649538745 0.73999999999999999
8.316757400381384 6.3143136649538745 1.01
8.3196252825631394 6.3184094251753198 1.01
8.2766070498368123 6.2569730218536455 0.73999999999999999
8.2393245814739942 6.2037281389748609 1.01
8.2766070498368123 6.2569730218536455 1.01
8.3196252825631394 6.3184094251753198 1.01
8.3196252825631394 6.3184094251753198 0.53000000000000003
8.316757400381384 6.3143136649538745 0.73999999999999999
8.2766070498368123 6.2569730218536455 0.73999999999999999
8.2393245814739942 6.2037281389748609 0.53000000000000003
8.2393245814739942 6.2037281389748609 1.01
8.2766070498368123 6.2569730218536455 0.73999999999999999
8.316757400381384 6.3143136649538745 0.73999999999999999
8.3196252825631394 6.3184094251753198 0.53000000000000003
8.3196252825631394 6.3184094251753198 0.53000000000000003
8.2393245814739942 6.2037281389748609 0.53000000000000003
8.2766070498368123 6.2569730218536455 0.73999999999999999
8.8421037486994507 5.8610079704773188 0.73999999999999999
8.8421037486994507 5.8610079704773188 1.01
8.8048212803366326 5.8077630875985342 1.01
8.8822540992440242 5.9183486135775478 0.73999999999999999
8.8851219814257796 5.9224443737989931 1.01
8.8822540992440242 5.9183486135775478 1.01
8.8048212803366326 5.8077630875985342 1.01
8.8048212803366326 5.8077630875985342 0.53000000000000003
8.8421037486994507 5.8610079704773188 0.73999999999999999
8.8822540992440242 5.9183486135775478 0.73999999999999999
8.8851219814257796 5.9224443737989931 0.53000000000000003
8.8851219814257796 5.9224443737989931 1.01
8.8851219814257796 5.9224443737989931 0.53000000000000003
8.8421037486994507 5.8610079704773188 0.73999999999999999
8.8048212803366326 5.8077630875985342 0.53000000000000003
8.8421037486994507 5.8610079704773188 0.73999999999999999
8.8851219814257796 5.9224443737989931 0.53000000000000003
8.8822540992440242 5.9183486135775478 0.73999999999999999
8.2393245814739942 6.2037281389748609 1.01
8.8048212803366326 5.8077630875985342 0.54000000000000004
8.8048212803366326 5.8077630875985342 1.01
8.8048212803366326 5.8077630875985342 0.54000000000000004
8.2393245814739942 6.2037281389748609 1.01
8.2393245814739942 6.2037281389748609 0.54000000000000004
8.3196252825631394 6.3184094251753198 0.53000000000000003
8.8851219814257796 5.9224443737989931 1.01
8.8851219814257796 5.9224443737989931 0.53000000000000003
8.8851219814257796 5.9224443737989931 1.01
8.3196252825631394 6.3184094251753198 0.53000000000000003
8.3196252825631394 6.3184094251753198 1.01
8.8851219814257796 5.9224443737989931 0.53000000000000003
8.8048212803366326 5.8077630875985342 0.53000000000000003
8.2393245814739942 6.2037281389748609 0.53000000000000003
8.2393245814739942 6.2037281389748609 0.53000000000000003
8.3196252825631394 6.3184094251753198 0.53000000000000003
8.8851219814257796 5.9224443737989931 0.53000000000000003
8.2393245814739942 6.2037281389748609 1.01
8.8048212803366326 5.8077630875985342 1.01
8.8421037486994507 5.8610079704773188 1.01
8.8421037486994507 5.8610079704773188 1.01
8.2766070498368123 6.2569730218536446 1.01
8.2393245814739942 6.2037281389748609 1.01
8.3196252825631394 6.3184094251753198 1.01
8.8822540992440242 5.9183486135775487 1.01
8.8851219814257796 5.9224443737989931 1.01
8.8822540992440242 5.9183486135775487 1.01
8.3196252825631394 6.3184094251753198 1.01
8.316757400381384 6.3143136649538754 1.01
7.7985034779558777 5.6700599324147634 0.745
8.1885354546745894 6.2270833225312785 0.65499999999999992
7.7985034779558777 5.6700599324147634 0.65499999999999992
8.1885354546745894 6.2270833225312785 0.65499999999999992
7.7985034779558777 5.6700599324147634 0.745
8.1885354546745894 6.2270833225312785 0.745
7.8722271619418862 5.6184380531431692 0.65499999999999992
8.2622591386605979 6.1754614432596844 0.745
7.8722271619418862 5.6184380531431692 0.745
8.2622591386605979 6.1754614432596844 0.745
7.8722271619418862 5.6184380531431692 0.65499999999999992
8.2622591386605979 6.1754614432596844 0.65499999999999992
7.8722271619418862 5.6184380531431692 0.65499999999999992
7.7985034779558777 5.6700599324147634 0.745
7.7985034779558777 5.6700599324147634 0.65499999999999992
7.7985034779558777 5.6700599324147634 0.745
7.8722271619418862 5.6184380531431692 0.65499999999999992
7.8722271619418862 5.6184380531431692 0.745
8.1885354546745894 6.2270833225312785 0.65499999999999992
8.2622591386605979 6.1754614432596844 0.745
8.2622591386605979 6.1754614432596844 0.65499999999999992
8.2622591386605979 6.1754614432596844 0.745
8.1885354546745894 6.2270833225312785 0.65499999999999992
8.1885354546745894 6.2270833225312785 0.745
8.1885354546745894 6.2270833225312785 0.65499999999999992
8.051692861887652 6.0055001444708749 0.65499999999999992
8.0172782757065892 5.9563510218135347 0.65499999999999992
8.0172782757065892 5.9563510218135347 0.65499999999999992
7.7985034779558786 5.6700599324147634 0.65499999999999992
8.1885354546745894 6.2270833225312785 0.65499999999999992
8.0664273983639276 5.921936435632472 0.65499999999999992
7.7985034779558786 5.6700599324147634 0.65499999999999992
8.0172782757065892 5.9563510218135347 0.65499999999999992
8.2622591386605979 6.1754614432596844 0.65499999999999992
8.051692861887652 6.0055001444708749 0.65499999999999992
8.1885354546745894 6.2270833225312785 0.65499999999999992
8.0664273983639276 5.921936435632472 0.65499999999999992
7.8722271619418871 5.6184380531431692 0.65499999999999992
7.7985034779558786 5.6700599324147634 0.65499999999999992
8.2622591386605979 6.1754614432596844 0.65499999999999992
8.1008419845449904 5.9710855582898121 0.65499999999999992
8.051692861887652 6.0055001444708749 0.65499999999999992
8.2622591386605979 6.1754614432596844 0.65499999999999992
7.8722271619418871 5.6184380531431692 0.65499999999999992
8.0664273983639276 5.921936435632472 0.65499999999999992
8.0664273983639276 5.921936435632472 0.65499999999999992
8.1008419845449904 5.9710855582898121 0.65499999999999992
8.2622591386605979 6.1754614432596844 0.65499999999999992
7.7985034779558777 5.6700599324147634 0.745
8.2622591386605979 6.1754614432596844 0.745
8.1885354546745894 6.2270833225312785 0.745
8.2622591386605979 6.1754614432596844 0.745
7.7985034779558777 5.6700599324147634 0.745
7.8722271619418862 5.6184380531431692 0.745
8.0172782757065892 5.9563510218135347 0.48999999999999999
8.051692861887652 6.0055001444708749 0.65499999999999992
8.051692861887652 6.0055001444708749 0.48999999999999999
8.051692861887652 6.0055001444708749 0.65499999999999992
8.0172782757065892 5.9563510218135347 0.48999999999999999
8.0172782757065892 5.9563510218135347 0.65499999999999992
8.1008419845449904 5.9710855582898121 0.54000000000000004
8.0664273983639276 5.921936435632472 0.65499999999999992
8.0664273983639276 5.921936435632472 0.54000000000000004
8.0664273983639276 5.921936435632472 0.65499999999999992
8.1008419845449904 5.9710855582898121 0.54000000000000004
8.1008419845449904 5.9710855582898121 0.65499999999999992
8.0500443574781482 5.9334079643594935 0.54000000000000004
8.0172782757065892 5.9563510218135347 0.48999999999999999
8.0500443574781482 5.9334079643594935 0.48999999999999999
8.0500443574781482 5.9334079643594935 0.54000000000000004
8.0664273983639276 5.921936435632472 0.65499999999999992
8.0172782757065892 5.9563510218135347 0.65499999999999992
8.0664273983639276 5.921936435632472 0.65499999999999992
8.0500443574781482 5.9334079643594935 0.54000000000000004
8.0664273983639276 5.921936435632472 0.54000000000000004
8.0172782757065892 5.9563510218135347 0.65499999999999992
8.0172782757065892 5.9563510218135347 0.48999999999999999
8.0500443574781482 5.9334079643594935 0.54000000000000004
8.051692861887652 6.0055001444708749 0.48999999999999999
8.0844589436592109 5.9825570870168328 0.54000000000000004
8.0844589436592109 5.9825570870168328 0.48999999999999999
8.0844589436592109 5.9825570870168328 0.54000000000000004
8.1008419845449904 5.9710855582898121 0.65499999999999992
8.1008419845449904 5.9710855582898121 0.54000000000000004
8.0844589436592109 5.9825570870168328 0.54000000000000004
8.051692861887652 6.0055001444708749 0.48999999999999999
8.051692861887652 6.0055001444708749 0.65499999999999992
8.051692861887652 6.0055001444708749 0.65499999999999992
8.1008419845449904 5.9710855582898121 0.65499999999999992
8.0844589436592109 5.9825570870168328 0.54000000000000004
8.0844589436592109 5.9825570870168328 0.48999999999999999
8.0500443574781482 5.9334079643594935 0.48999999999999999
8.0172782757065892 5.9563510218135347 0.48999999999999999
8.0172782757065892 5.9563510218135347 0.48999999999999999
8.051692861887652 6.0055001444708749 0.48999999999999999
8.0844589436592109 5.9825570870168328 0.48999999999999999
7.8720423495592931 5.7620084743460875 0
7.8290241168329642 5.7005720710244132 0
7.8290241168329642 5.7005720710244132 0.46000000000000002
7.8290241168329642 5.7005720710244132 0.46000000000000002
7.8720423495592931 5.7620084743460875 0.46000000000000002
7.8720423495592931 5.7620084743460875 0
7.8904605201546385 5.6575538382980843 0.39999999999999997
7.8904605201546385 5.6575538382980843 0
7.9334787528809674 5.7189902416197587 0
7.9334787528809674 5.7189902416197587 0
7.9334787528809674 5.7189902416197587 0.39999999999999997
7.8904605201546385 5.6575538382980843 0.39999999999999997
7.8679338389366915 5.673327190297738 0.39999999999999997
7.8290241168329642 5.7005720710244132 0.46000000000000002
7.8290241168329642 5.7005720710244132 0
7.8290241168329642 5.7005720710244132 0.46000000000000002
7.8679338389366915 5.673327190297738 0.39999999999999997
7.8679338389366915 5.673327190297738 0.46000000000000002
7.8679338389366915 5.673327190297738 0.39999999999999997
7.8904605201546385 5.6575538382980843 0
7.8904605201546385 5.6575538382980843 0.39999999999999997
7.8290241168329642 5.7005720710244132 0
7.8904605201546385 5.6575538382980843 0
7.8679338389366915 5.673327190297738 0.39999999999999997
7.9109520716630195 5.7347635936194132 0.39999999999999997
7.9334787528809674 5.7189902416197587 0
7.8720423495592931 5.7620084743460875 0
7.9334787528809674 5.7189902416197587 0
7.9109520716630195 5.7347635936194132 0.39999999999999997
7.9334787528809674 5.7189902416197587 0.39999999999999997
7.9109520716630195 5.7347635936194132 0.39999999999999997
7.8720423495592931 5.7620084743460875 0.46000000000000002
7.9109520716630195 5.7347635936194132 0.46000000000000002
7.8720423495592931 5.7620084743460875 0
7.8720423495592931 5.7620084743460875 0.46000000000000002
7.9109520716630195 5.7347635936194132 0.39999999999999997
7.8290241168329642 5.7005720710244132 0.46000000000000002
7.9109520716630195 5.7347635936194132 0.46000000000000002
7.8720423495592931 5.7620084743460875 0.46000000000000002
7.8290241168329642 5.7005720710244132 0.46000000000000002
7.8679338389366906 5.673327190297738 0.46000000000000002
7.9109520716630195 5.7347635936194132 0.46000000000000002
8.2448670331874734 6.2944573031339317 0
8.2018488004611445 6.2330208998122574 0
8.2018488004611445 6.2330208998122574 0.46000000000000002
8.2018488004611445 6.2330208998122574 0.46000000000000002
8.2448670331874734 6.2944573031339317 0.46000000000000002
8.2448670331874734 6.2944573031339317 0
8.3063034365091468 6.2514390704076037 0.46000000000000002
8.2632852037828179 6.1900026670859294 0.46000000000000002
8.2632852037828179 6.1900026670859294 0
8.2632852037828179 6.1900026670859294 0
8.3063034365091468 6.2514390704076037 0
8.3063034365091468 6.2514390704076037 0.46000000000000002
8.2632852037828179 6.1900026670859294 0
8.2018488004611445 6.2330208998122574 0.46000000000000002
8.2018488004611445 6.2330208998122574 0
8.2018488004611445 6.2330208998122574 0.46000000000000002
8.2632852037828179 6.1900026670859294 0
8.2632852037828179 6.1900026670859294 0.46000000000000002
8.2448670331874734 6.2944573031339317 0
8.3063034365091468 6.2514390704076037 0.46000000000000002
8.3063034365091468 6.2514390704076037 0
8.3063034365091468 6.2514390704076037 0.46000000000000002
8.2448670331874734 6.2944573031339317 0
8.2448670331874734 6.2944573031339317 0.46000000000000002
8.2632852037828179 6.1900026670859294 0.46000000000000002
8.3063034365091468 6.2514390704076037 0.46000000000000002
8.2448670331874734 6.2944573031339317 0.46000000000000002
8.2448670331874734 6.2944573031339317 0.46000000000000002
8.2018488004611445 6.2330208998122574 0.46000000000000002
8.2632852037828179 6.1900026670859294 0.46000000000000002
8.3803832177042974 5.2626233523114161 0.745
8.7704151944230073 5.8196467424279303 0.65499999999999992
8.3803832177042974 5.2626233523114161 0.65499999999999992
8.7704151944230073 5.8196467424279303 0.65499999999999992
8.3803832177042974 5.2626233523114161 0.745
8.7704151944230073 5.8196467424279303 0.745
8.4541069016903059 5.211001473039822 0.65499999999999992
8.8441388784090176 5.7680248631563362 0.745
8.4541069016903059 5.211001473039822 0.745
8.8441388784090176 5.7680248631563362 0.745
8.4541069016903059 5.211001473039822 0.65499999999999992
8.8441388784090176 5.7680248631563362 0.65499999999999992
8.4541069016903059 5.211001473039822 0.65499999999999992
8.3803832177042974 5.2626233523114161 0.745
8.3803832177042974 5.2626233523114161 0.65499999999999992
8.3803832177042974 5.2626233523114161 0.745
8.4541069016903059 5.211001473039822 0.65499999999999992
8.4541069016903059 5.211001473039822 0.745
8.7704151944230073 5.8196467424279303 0.65499999999999992
8.8441388784090176 5.7680248631563362 0.745
8.8441388784090176 5.7680248631563362 0.65499999999999992
8.8441388784090176 5.7680248631563362 0.745
8.7704151944230073 5.8196467424279303 0.65499999999999992
8.7704151944230073 5.8196467424279303 0.745
8.8441388784090176 5.7680248631563362 0.65499999999999992
8.6335726016360717 5.5980635643675276 0.65499999999999992
8.7704151944230073 5.8196467424279303 0.65499999999999992
8.5991580154550089 5.5489144417101874 0.65499999999999992
8.7704151944230073 5.8196467424279303 0.65499999999999992
8.6335726016360717 5.5980635643675276 0.65499999999999992
8.8441388784090176 5.7680248631563362 0.65499999999999992
8.68272172429341 5.5636489781864649 0.65499999999999992
8.6335726016360717 5.5980635643675276 0.65499999999999992
8.5991580154550089 5.5489144417101874 0.65499999999999992
8.3803832177042974 5.2626233523114161 0.65499999999999992
8.7704151944230073 5.8196467424279303 0.65499999999999992
8.6483071381123473 5.5144998555291247 0.65499999999999992
8.68272172429341 5.5636489781864649 0.65499999999999992
8.8441388784090176 5.7680248631563362 0.65499999999999992
8.6483071381123473 5.5144998555291247 0.65499999999999992
8.3803832177042974 5.2626233523114161 0.65499999999999992
8.5991580154550089 5.5489144417101874 0.65499999999999992
8.8441388784090176 5.7680248631563362 0.65499999999999992
8.4541069016903059 5.211001473039822 0.65499999999999992
8.6483071381123473 5.5144998555291247 0.65499999999999992
8.6483071381123473 5.5144998555291247 0.65499999999999992
8.4541069016903059 5.211001473039822 0.65499999999999992
8.3803832177042974 5.2626233523114161 0.65499999999999992
8.4541069016903059 5.211001473039822 0.745
8.8441388784090176 5.7680248631563362 0.745
8.7704151944230073 5.8196467424279303 0.745
8.7704151944230073 5.8196467424279303 0.745
8.3803832177042974 5.2626233523114161 0.745
8.4541069016903059 5.211001473039822 0.745
8.6335726016360717 5.5980635643675276 0.65499999999999992
8.5991580154550089 5.5489144417101874 0.54000000000000004
8.5991580154550089 5.5489144417101874 0.65499999999999992
8.5991580154550089 5.5489144417101874 0.54000000000000004
8.6335726016360717 5.5980635643675276 0.65499999999999992
8.6335726016360717 5.5980635643675276 0.54000000000000004
8.68272172429341 5.5636489781864649 0.48999999999999999
8.6483071381123473 5.5144998555291247 0.65499999999999992
8.6483071381123473 5.5144998555291247 0.48999999999999999
8.6483071381123473 5.5144998555291247 0.65499999999999992
8.68272172429341 5.5636489781864649 0.48999999999999999
8.68272172429341 5.5636489781864649 0.65499999999999992
8.6483071381123473 5.5144998555291247 0.48999999999999999
8.6155410563407884 5.5374429129831668 0.54000000000000004
8.6155410563407884 5.5374429129831668 0.48999999999999999
8.6155410563407884 5.5374429129831668 0.54000000000000004
8.5991580154550089 5.5489144417101874 0.65499999999999992
8.5991580154550089 5.5489144417101874 0.54000000000000004
8.6155410563407884 5.5374429129831668 0.54000000000000004
8.6483071381123473 5.5144998555291247 0.48999999999999999
8.6483071381123473 5.5144998555291247 0.65499999999999992
8.6483071381123473 5.5144998555291247 0.65499999999999992
8.5991580154550089 5.5489144417101874 0.65499999999999992
8.6155410563407884 5.5374429129831668 0.54000000000000004
8.6499556425218511 5.5865920356405061 0.54000000000000004
8.68272172429341 5.5636489781864649 0.48999999999999999
8.6499556425218511 5.5865920356405061 0.48999999999999999
8.6499556425218511 5.5865920356405061 0.54000000000000004
8.6335726016360717 5.5980635643675276 0.65499999999999992
8.68272172429341 5.5636489781864649 0.65499999999999992
8.6335726016360717 5.5980635643675276 0.65499999999999992
8.6499556425218511 5.5865920356405061 0.54000000000000004
8.6335726016360717 5.5980635643675276 0.54000000000000004
8.68272172429341 5.5636489781864649 0.65499999999999992
8.68272172429341 5.5636489781864649 0.48999999999999999
8.6499556425218511 5.5865920356405061 0.54000000000000004
8.6155410563407884 5.5374429129831677 0.48999999999999999
8.6499556425218511 5.586592035640507 0.48999999999999999
8.68272172429341 5.5636489781864649 0.48999999999999999
8.68272172429341 5.5636489781864649 0.48999999999999999
8.6483071381123473 5.5144998555291247 0.48999999999999999
8.6155410563407884 5.5374429129831677 0.48999999999999999
8.4539220893077118 5.3545718942427403 0.39999999999999997
8.4539220893077118 5.3545718942427403 0
8.410903856581383 5.2931354909210659 0
8.410903856581383 5.2931354909210659 0
8.410903856581383 5.2931354909210659 0.39999999999999997
8.4539220893077118 5.3545718942427403 0.39999999999999997
8.515358492629387 5.3115536615164114 0.46000000000000002
8.4723402599030582 5.2501172581947371 0.46000000000000002
8.4723402599030582 5.2501172581947371 0
8.4723402599030582 5.2501172581947371 0
8.515358492629387 5.3115536615164114 0
8.515358492629387 5.3115536615164114 0.46000000000000002
8.4334305377993317 5.2773621389214114 0.39999999999999997
8.410903856581383 5.2931354909210659 0
8.4723402599030582 5.2501172581947371 0
8.410903856581383 5.2931354909210659 0
8.4334305377993317 5.2773621389214114 0.39999999999999997
8.410903856581383 5.2931354909210659 0.39999999999999997
8.4334305377993317 5.2773621389214114 0.39999999999999997
8.4723402599030582 5.2501172581947371 0.46000000000000002
8.4334305377993317 5.2773621389214114 0.46000000000000002
8.4723402599030582 5.2501172581947371 0
8.4723402599030582 5.2501172581947371 0.46000000000000002
8.4334305377993317 5.2773621389214114 0.39999999999999997
8.4764487705256588 5.3387985422430866 0.39999999999999997
8.515358492629387 5.3115536615164114 0.46000000000000002
8.515358492629387 5.3115536615164114 0
8.515358492629387 5.3115536615164114 0.46000000000000002
8.4764487705256588 5.3387985422430866 0.39999999999999997
8.4764487705256588 5.3387985422430866 0.46000000000000002
8.4764487705256588 5.3387985422430866 0.39999999999999997
8.4539220893077118 5.3545718942427403 0
8.4539220893077118 5.3545718942427403 0.39999999999999997
8.515358492629387 5.3115536615164114 0
8.4539220893077118 5.3545718942427403 0
8.4764487705256588 5.3387985422430866 0.39999999999999997
8.4723402599030582 5.2501172581947371 0.46000000000000002
8.515358492629387 5.3115536615164114 0.46000000000000002
8.4764487705256588 5.3387985422430866 0.46000000000000002
8.4764487705256588 5.3387985422430866 0.46000000000000002
8.4334305377993299 5.2773621389214123 0.46000000000000002
8.4723402599030582 5.2501172581947371 0.46000000000000002
8.7837285402095642 5.8255843197089101 0.46000000000000002
8.8267467729358913 5.8870207230305844 0
8.7837285402095642 5.8255843197089101 0
8.8267467729358913 5.8870207230305844 0
8.7837285402095642 5.8255843197089101 0.46000000000000002
8.8267467729358913 5.8870207230305844 0.46000000000000002
8.8881831762575665 5.8440024903042564 0.46000000000000002
8.8451649435312376 5.7825660869825821 0.46000000000000002
8.8451649435312376 5.7825660869825821 0
8.8451649435312376 5.7825660869825821 0
8.8881831762575665 5.8440024903042564 0
8.8881831762575665 5.8440024903042564 0.46000000000000002
8.8451649435312376 5.7825660869825821 0
8.7837285402095642 5.8255843197089101 0.46000000000000002
8.7837285402095642 5.8255843197089101 0
8.7837285402095642 5.8255843197089101 0.46000000000000002
8.8451649435312376 5.7825660869825821 0
8.8451649435312376 5.7825660869825821 0.46000000000000002
8.8267467729358913 5.8870207230305844 0
8.8881831762575665 5.8440024903042564 0.46000000000000002
8.8881831762575665 5.8440024903042564 0
8.8881831762575665 5.8440024903042564 0.46000000000000002
8.8267467729358913 5.8870207230305844 0
8.8267467729358913 5.8870207230305844 0.46000000000000002
8.7837285402095642 5.8255843197089101 0.46000000000000002
8.8881831762575665 5.8440024903042564 0.46000000000000002
8.8267467729358913 5.8870207230305844 0.46000000000000002
8.8881831762575665 5.8440024903042564 0.46000000000000002
8.7837285402095642 5.8255843197089101 0.46000000000000002
8.8451649435312376 5.7825660869825821 0.46000000000000002
8.2798955583883806 6.340124604589672 0.73999999999999999
8.2397452078438072 6.2827839614894421 0.73999999999999999
8.2397452078438072 6.2827839614894421 1.02
8.2397452078438072 6.2827839614894421 1.02
8.2798955583883806 6.340124604589672 1.02
8.2798955583883806 6.340124604589672 0.73999999999999999
8.9191159412370293 5.8925376739417512 1.02
8.8789655906924558 5.8351970308415213 1.02
8.8789655906924558 5.8351970308415213 0.73999999999999999
8.8789655906924558 5.8351970308415213 0.73999999999999999
8.9191159412370293 5.8925376739417512 0.73999999999999999
8.9191159412370293 5.8925376739417512 1.02
8.8421037486994507 5.8610079704773188 1.01
8.8421037486994507 5.8610079704773188 0.73999999999999999
8.8789655906924558 5.8351970308415213 0.73999999999999999
8.2766070498368123 6.2569730218536446 1.01
8.2397452078438072 6.2827839614894421 0.73999999999999999
8.2766070498368123 6.2569730218536446 0.73999999999999999
8.8789655906924558 5.8351970308415213 0.73999999999999999
8.8789655906924558 5.8351970308415213 1.02
8.8421037486994507 5.8610079704773188 1.01
8.2766070498368123 6.2569730218536446 1.01
8.2397452078438072 6.2827839614894421 1.02
8.2397452078438072 6.2827839614894421 0.73999999999999999
8.2397452078438072 6.2827839614894421 1.02
8.8421037486994507 5.8610079704773188 1.01
8.8789655906924558 5.8351970308415213 1.02
8.8421037486994507 5.8610079704773188 1.01
8.2397452078438072 6.2827839614894421 1.02
8.2766070498368123 6.2569730218536446 1.01
8.316757400381384 6.3143136649538754 1.01
8.316757400381384 6.3143136649538754 0.73999999999999999
8.2798955583883806 6.340124604589672 0.73999999999999999
8.8822540992440242 5.9183486135775487 1.01
8.9191159412370293 5.8925376739417512 0.73999999999999999
8.8822540992440242 5.9183486135775487 0.73999999999999999
8.2798955583883806 6.340124604589672 0.73999999999999999
8.2798955583883806 6.340124604589672 1.02
8.316757400381384 6.3143136649538754 1.01
8.8822540992440242 5.9183486135775487 1.01
8.9191159412370293 5.8925376739417512 1.02
8.9191159412370293 5.8925376739417512 0.73999999999999999
8.8822540992440242 5.9183486135775487 1.01
8.316757400381384 6.3143136649538754 1.01
8.2798955583883806 6.340124604589672 1.02
8.2798955583883806 6.340124604589672 1.02
8.9191159412370293 5.8925376739417512 1.02
8.8822540992440242 5.9183486135775487 1.01
8.316757400381384 6.3143136649538754 0.73999999999999999
8.2766070498368123 6.2569730218536455 0.73999999999999999
8.2397452078438072 6.2827839614894421 0.73999999999999999
8.2397452078438072 6.2827839614894421 0.73999999999999999
8.2798955583883806 6.340124604589672 0.73999999999999999
8.316757400381384 6.3143136649538754 0.73999999999999999
8.8789655906924558 5.8351970308415213 0.73999999999999999
8.8822540992440242 5.9183486135775487 0.73999999999999999
8.9191159412370293 5.8925376739417512 0.73999999999999999
8.8822540992440242 5.9183486135775487 0.73999999999999999
8.8789655906924558 5.8351970308415213 0.73999999999999999
8.8421037486994507 5.8610079704773188 0.73999999999999999
8.2397452078438072 6.2827839614894421 1.02
8.9191159412370293 5.8925376739417512 1.02
8.2798955583883806 6.340124604589672 1.02
8.9191159412370293 5.8925376739417512 1.02
8.2397452078438072 6.2827839614894421 1.02
8.8789655906924558 5.8351970308415213 1.02
3 0 1 2
3 3 4 5
3 6 7 8
3 9 10 11
3 12 13 14
3 15 16 17
3 18 19 20
3 21 22 23
3 24 25 26
3 27 28 29
3 30 31 32
3 33 34 35
3 36 37 38
3 39 40 41
3 42 43 44
3 45 46 47
3 48 49 50
3 51 52 53
3 54 55 56
3 57 58 59
3 60 61 62
3 63 64 65
3 66 67 68
3 69 70 71
3 72 73 74
3 75 76 77
3 78 79 80
3 81 82 83
3 84 85 86
3 87 88 89
3 90 91 92
3 93 94 95
3 96 97 98
3 99 100 101
3 102 103 104
3 105 106 107
3 108 109 110
3 111 112 113
3 114 115 116
3 117 118 119
3 120 121 122
3 123 124 125
3 126 127 128
3 129 130 131
3 132 133 134
3 135 136 137
3 138 139 140
3 141 142 143
3 144 145 146
3 147 148 149
3 150 151 152
3 153 154 155
3 156 157 158
3 159 160 161
3 162 163 164
3 165 166 167
3 168 169 170
3 171 172 173
3 174 175 176
3 177 178 179
3 180 181 182
3 183 184 185
3 186 187 188
3 189 190 191
3 192 193 194
3 195 196 197
3 198 199 200
3 201 202 203
3 204 205 206
3 207 208 209
3 210 211 212
3 213 214 215
3 216 217 218
3 219 220 221
3 222 223 224
3 225 226 227
3 228 229 230
3 231 232 233
3 234 235 236
3 237 238 239
3 240 241 242
3 243 244 245
3 246 247 248
3 249 250 251
3 252 253 254
3 255 256 257
3 258 259 260
3 261 262 263
3 264 265 266
3 267 268 269
3 270 271 272
3 273 274 275
3 276 277 278
3 279 280 281
3 282 283 284
3 285 286 287
3 288 289 290
3 291 292 293
3 294 295 296
3 297 298 299
3 300 301 302
3 303 304 305
3 306 307 308
3 309 310 311
3 312 313 314
3 315 316 317
3 318 319 320
3 321 322 323
3 324 325 326
3 327 328 329
3 330 331 332
3 333 334 335
3 336 337 338
3 339 340 341
3 342 343 344
3 345 346 347
3 348 349 350
3 351 352 353
3 354 355 356
3 357 358 359
3 360 361 362
3 363 364 365
3 366 367 368
3 369 370 371
3 372 373 374
3 375 376 377
3 378 379 380
3 381 382 383
3 384 385 386
3 387 388 389
3 390 391 392
3 393 394 395
3 396 397 398
3 399 400 401
3 402 403 404
3 405 406 407
3 408 409 410
3 411 412 413
3 414 415 416
3 417 418 419
3 420 421 422
3 423 424 425
3 426 427 428
3 429 430 431
3 432 433 434
3 435 436 437
3 438 439 440
3 441 442 443
3 444 445 446
3 447 448 449
3 450 451 452
3 453 454 455
3 456 457 458
3 459 460 461
3 462 463 464
3 465 466 467
3 468 469 470
3 471 472 473
3 474 475 476
3 477 478 479
3 480 481 482
3 483 484 485
3 486 487 488
3 489 490 491
3 492 493 494
3 495 496 497
3 498 499 500
3 501 502 503
3 504 505 506
3 507 508 509
3 510 511 512
3 513 514 515
3 516 517 518
3 519 520 521
3 522 523 524
3 525 526 527
3 528 529 530
3 531 532 533
3 534 535 536
3 537 538 539
3 540 541 542
3 543 544 545
3 546 547 548
3 549 550 551
3 552 553 554
3 555 556 557
3 558 559 560
3 561 562 563
3 564 565 566
3 567 568 569
3 570 571 572
3 573 574 575
3 576 577 578
3 579 580 581
3 582 583 584
3 585 586 587
3 588 589 590
3 591 592 593
3 594 595 596
3 597 598 599
3 600 601 602
3 603 604 605
3 606 607 608
3 609 610 611
3 612 613 614
3 615 616 617
3 618 619 620
3 621 622 623
3 624 625 626
3 627 628 629
3 630 631 632
3 633 634 635
3 636 637 638
3 639 640 641
3 642 643 644
3 645 646 647
3 648 649 650
3 651 652 653
3 654 655 656
3 657 658 659
3 660 661 662
3 663 664 665
3 666 667 668
3 669 670 671
3 672 673 674
3 675 676 677
3 678 679 680
3 681 682 683
3 684 685 686
3 687 688 689
3 690 691 692
3 693 694 695
3 696 697 698
3 699 700 701
3 702 703 704
3 705 706 707
3 708 709 710
3 711 712 713
3 714 715 716
3 717 718 719
3 720 721 722
3 723 724 725
3 726 727 728
3 729 730 731
3 732 733 734
3 735 736 737
3 738 739 740
3 741 742 743
3 744 745 746
3 747 748 749
3 750 751 752
3 753 754 755
3 756 757 758
3 759 760 761
3 762 763 764
3 765 766 767
3 768 769 770
3 771 772 773
3 774 775 776
3 777 778 779
3 780 781 782
3 783 784 785
3 786 787 788
3 789 790 791
3 792 793 794
3 795 796 797
3 798 799 800
3 801 802 803
3 804 805 806
3 807 808 809
3 810 811 812
3 813 814 815
3 816 817 818
3 819 820 821
3 822 823 824
3 825 826 827
3 828 829 830
3 831 832 833
3 834 835 836
3 837 838 839
3 840 841 842
3 843 844 845
3 846 847 848
3 849 850 851
3 852 853 854
3 855 856 857
3 858 859 860
3 861 862 863
3 864 865 866
3 867 868 869
3 870 871 872
3 873 874 875
3 876 877 878
3 879 880 881
3 882 883 884
3 885 886 887
3 888 889 890
3 891 892 893
3 894 895 896
3 897 898 899
3 900 901 902
3 903 904 905
3 906 907 908
3 909 910 911
3 912 913 914
3 915 916 917
3 918 919 920
3 921 922 923
3 924 925 926
3 927 928 929
3 930 931 932
3 933 934 935
3 936 937 938
3 939 940 941
3 942 943 944
3 945 946 947
3 948 949 950
3 951 952 953
3 954 955 956
3 957 958 959
3 960 961 962
3 963 964 965
3 966 967 968
3 969 970 971
3 972 973 974
3 975 976 977
3 978 979 980
3 981 982 983
3 984 985 986
3 987 988 989
3 990 991 992
3 993 994 995
3 996 997 998
3 999 1000 1001
3 1002 1003 1004
3 1005 1006 1007
3 1008 1009 1010
3 1011 1012 1013
3 1014 1015 1016
3 1017 1018 1019
3 1020 1021 1022
3 1023 1024 1025
3 1026 1027 1028
3 1029 1030 1031
3 1032 1033 1034
3 1035 1036 1037
3 1038 1039 1040
3 1041 1042 1043
3 1044 1045 1046
3 1047 1048 1049
3 1050 1051 1052
3 1053 1054 1055
3 1056 1057 1058
3 1059 1060 1061
3 1062 1063 1064
3 1065 1066 1067
3 1068 1069 1070
3 1071 1072 1073
3 1074 1075 1076
3 1077 1078 1079
3 1080 1081 1082
3 1083 1084 1085
3 1086 1087 1088
3 1089 1090 1091
3 1092 1093 1094
3 1095 1096 1097
3 1098 1099 1100
3 1101 1102 1103
3 1104 1105 1106
3 1107 1108 1109
3 1110 1111 1112
3 1113 1114 1115
3 1116 1117 1118
3 1119 1120 1121
3 1122 1123 1124
3 1125 1126 1127
3 1128 1129 1130
3 1131 1132 1133
3 1134 1135 1136
3 1137 1138 1139
3 1140 1141 1142
3 1143 1144 1145
3 1146 1147 1148
3 1149 1150 1151
3 1152 1153 1154
3 1155 1156 1157
3 1158 1159 1160
3 1161 1162 1163
3 1164 1165 1166
3 1167 1168 1169
3 1170 1171 1172
3 1173 1174 1175
3 1176 1177 1178
3 1179 1180 1181
3 1182 1183 1184
3 1185 1186 1187
3 1188 1189 1190
3 1191 1192 1193
3 1194 1195 1196
3 1197 1198 1199
